<svg width="347" height="319" viewBox="0 0 347 319" fill="none" xmlns="http://www.w3.org/2000/svg">
    <path d="M174.884 318.962C238.76 318.962 290.542 309.864 290.542 298.64C290.542 287.416 238.76 278.317 174.884 278.317C111.008 278.317 59.2256 287.416 59.2256 298.64C59.2256 309.864 111.008 318.962 174.884 318.962Z" fill="#FFA3DC"/>
    <path opacity="0.5" d="M174.884 318.962C238.76 318.962 290.542 309.864 290.542 298.64C290.542 287.416 238.76 278.317 174.884 278.317C111.008 278.317 59.2256 287.416 59.2256 298.64C59.2256 309.864 111.008 318.962 174.884 318.962Z" fill="white"/>
    <path d="M183.966 139.56C183.966 139.56 174.865 172.918 173.856 187.064C172.847 201.211 173.856 217.049 175.201 220.702C176.547 224.356 187.348 277.644 187.348 277.644C187.348 277.644 181.966 284.717 179.939 287.745C177.911 290.772 171.184 295.836 170.847 297.855C170.511 299.873 178.93 298.864 183.312 297.518C187.694 296.173 192.067 291.79 194.095 290.781C196.122 289.772 200.495 289.436 200.495 285.726C200.495 282.017 197.795 274.943 197.795 270.225C197.795 265.506 197.103 233.933 197.103 227.832C197.103 221.73 192.048 213.349 192.048 213.349L202.495 177.636C202.495 177.636 204.177 217.731 206.232 224.132C208.288 230.532 214.324 271.299 214.324 278.373C214.324 285.446 213.651 287.464 213.651 287.464C213.651 287.464 205.896 297.911 202.869 301.611C199.841 305.311 196.468 306.666 199.131 309.03C201.794 311.394 217.66 309.703 221.369 299.593C225.079 289.482 226.425 275.672 227.77 267.59C229.116 259.507 231.816 248.388 230.461 238.278C229.106 228.168 224.061 222.113 225.079 217.722C226.097 213.33 234.171 161.799 234.171 153.707C234.171 145.615 232.152 141.924 232.152 141.924C232.152 141.924 207.55 149.68 183.966 139.56Z" fill="white" stroke="#263238" stroke-linecap="round" stroke-linejoin="round"/>
    <path d="M234.161 153.716C234.161 145.634 232.143 141.934 232.143 141.934C232.143 141.934 207.55 149.68 183.966 139.57C183.966 139.57 174.865 172.927 173.856 187.074C172.847 201.22 173.856 217.058 175.201 220.712C176.229 223.515 182.676 254.714 185.713 269.702C189.53 271.39 193.853 271.537 197.776 270.113C197.776 265.02 197.103 233.802 197.103 227.785C197.103 221.768 192.048 213.302 192.048 213.302L202.495 177.59C202.495 177.59 204.177 217.684 206.232 224.085C208.288 230.485 214.324 271.253 214.324 278.326C214.324 278.765 214.324 279.195 214.324 279.597C218.005 281.083 222.073 281.32 225.901 280.27C226.658 275.476 227.237 270.991 227.77 267.543C229.115 259.461 231.816 248.342 230.461 238.231C229.106 228.121 224.06 222.067 225.079 217.675C226.097 213.283 234.161 161.808 234.161 153.716Z" fill="#263238" stroke="#263238" stroke-linecap="round" stroke-linejoin="round"/>
    <path d="M184.639 131.487C184.639 131.487 182.957 139.57 182.957 141.251C182.957 142.933 190.703 150.016 205.522 151.361C220.342 152.707 230.116 150.016 232.816 148.67C235.516 147.325 233.152 133.505 233.152 133.505C233.152 133.505 210.241 140.579 201.486 137.888C195.753 136.078 190.128 133.94 184.639 131.487Z" fill="#8C53FF" stroke="#263238" stroke-linecap="round" stroke-linejoin="round"/>
    <path d="M86.6123 120.069C86.6123 120.069 80.6229 129.282 79.9501 133.954C79.2774 138.626 84.9211 143.999 88.2942 141.307C91.6673 138.616 93.6856 123.433 93.6856 121.414C93.6856 119.396 93.0129 115.341 86.6123 120.069Z" fill="#37B6FF" stroke="#263238" stroke-linecap="round" stroke-linejoin="round"/>
    <path d="M97.0589 102.185C97.0589 102.185 90.9947 102.867 89.9762 105.558C88.9577 108.249 84.5848 119.377 84.2484 122.078C83.9121 124.778 90.9947 125.451 90.9947 125.451L97.0589 102.185Z" fill="#37B6FF" stroke="#263238" stroke-linecap="round" stroke-linejoin="round"/>
    <path d="M119.307 75.9004C119.307 75.9004 102.114 87.3653 98.4045 95.4571C94.6949 103.549 86.9489 132.207 85.594 137.934C84.2392 143.662 90.3127 148.044 97.7411 150.408C105.169 152.772 111.561 153.782 119.989 146.671C128.417 139.56 128.081 122.377 128.081 113.967C128.081 105.558 126.399 79.2455 125.726 76.8815C125.053 74.5175 119.307 75.9004 119.307 75.9004Z" fill="#FF66C4" stroke="#263238" stroke-linecap="round" stroke-linejoin="round"/>
    <path d="M113.691 136.224C113.691 136.224 110.103 154.529 110.822 169.236C111.326 180.015 110.967 190.817 109.748 201.538C109.028 209.069 106.16 219.478 106.16 231.317C106.16 243.156 112.261 271.15 112.261 274.738C112.261 278.326 109.028 292.678 109.028 298.098C109.028 303.517 111.177 312.805 118.372 309.581C125.567 306.358 121.96 290.893 121.96 280.877C121.96 270.86 124.109 253.957 125.903 241.399C127.697 228.841 128.772 206.958 129.491 204.08C130.211 201.202 135.228 179.683 135.593 175.375C135.957 171.068 140.975 157.799 140.975 157.799V191.886C140.975 205.164 142.769 213.769 142.769 223.459C142.769 233.148 142.049 241.763 142.769 250.369C143.488 258.975 142.049 279.073 142.049 285.175C142.049 291.277 141.33 291.277 146.357 294.519C151.384 297.761 150.664 300.62 153.888 303.125C157.112 305.629 163.232 307.432 163.942 302.414C164.652 297.397 157.121 284.11 155.327 280.522C153.533 276.934 158.915 249.687 160.709 240.343C162.503 230.999 163.578 209.125 162.503 201.23C161.429 193.334 172.548 162.116 172.193 150.997C172.183 150.941 136.658 151.296 113.691 136.224Z" fill="white" stroke="#263238" stroke-linecap="round" stroke-linejoin="round"/>
    <path d="M172.183 150.941C172.183 150.941 136.677 151.296 113.691 136.224C113.691 136.224 110.103 154.529 110.822 169.236C111.326 180.015 110.967 190.817 109.748 201.538C109.028 209.069 106.16 219.478 106.16 231.317C106.16 239.082 108.776 253.742 110.589 264.021C112.607 265.684 116.307 267.011 122.923 265.16C123.717 257.218 124.866 248.594 125.894 241.38C127.688 228.822 128.762 206.939 129.482 204.061C130.201 201.183 135.219 179.664 135.584 175.357C135.948 171.049 140.966 157.781 140.966 157.781V191.886C140.966 205.164 142.76 213.769 142.76 223.459C142.76 233.148 142.04 241.763 142.76 250.369C142.956 252.761 142.993 256.022 142.937 259.629C147.331 261.565 152.215 262.104 156.925 261.171C158.233 253.135 159.887 244.697 160.737 240.287C162.531 230.943 163.606 209.069 162.531 201.174C161.457 193.278 172.538 162.06 172.183 150.941Z" fill="#263238" stroke="#263238" stroke-linecap="round" stroke-linejoin="round"/>
    <path d="M154.841 56.5493C154.841 56.5493 138.462 56.2222 132.771 58.8946C127.081 61.5669 122.745 109.043 122.745 109.043L113.401 137.794C113.401 137.794 133.463 151.81 144.498 152.847C155.533 153.884 172.529 153.174 172.529 153.174L173.866 121.078C173.866 121.078 185.91 84.6369 188.582 75.2931C191.254 65.9492 184.237 62.5854 177.211 59.913C170.184 57.2407 154.841 56.5493 154.841 56.5493Z" fill="white" stroke="#263238" stroke-linecap="round" stroke-linejoin="round"/>
    <path d="M138.62 90.5703L127.847 133.702L163.195 145.232L174.23 101.101L138.62 90.5703Z" fill="#8C53FF" stroke="#263238" stroke-linecap="round" stroke-linejoin="round"/>
    <path d="M139.536 57.3622L118.297 123.769L145.273 56.3438L139.536 57.3622Z" fill="#263238" stroke="#263238" stroke-linecap="round" stroke-linejoin="round"/>
    <path d="M135.116 55.5494C135.116 55.5494 125.417 56.5492 123.081 60.2214C120.745 63.8935 107.029 97.3352 106.692 101.68C106.356 106.025 136.892 136.411 136.892 136.411L143.432 132.776C143.432 132.776 133.743 116.724 131.734 110.706C130.179 106.536 128.009 102.621 125.296 99.0919L134.742 73.2561" fill="white"/>
    <path d="M135.116 55.5494C135.116 55.5494 125.417 56.5492 123.081 60.2214C120.745 63.8935 107.029 97.3352 106.692 101.68C106.356 106.025 136.892 136.411 136.892 136.411L143.432 132.776C143.432 132.776 133.743 116.724 131.734 110.706C130.179 106.536 128.009 102.621 125.296 99.0919L134.742 73.2561" stroke="#263238" stroke-linecap="round" stroke-linejoin="round"/>
    <path d="M143.47 132.786C143.47 132.786 149.823 131.45 151.16 132.113C152.496 132.777 159.859 139.14 159.859 139.14C159.859 139.14 160.522 140.476 158.186 140.476C155.85 140.476 150.823 137.794 150.823 137.794L155.841 148.493C156.033 148.914 156.132 149.371 156.132 149.834C156.132 150.296 156.033 150.754 155.841 151.175C155.177 152.511 152.496 151.838 151.169 151.838C149.842 151.838 146.497 152.511 143.815 151.175C141.134 149.838 136.901 136.421 136.901 136.421L143.47 132.786Z" fill="white" stroke="#263238" stroke-linecap="round" stroke-linejoin="round"/>
    <path d="M189.358 71.5182C189.685 73.5271 185.013 105.614 185.013 111.884C185.013 118.153 183.256 129.189 178.472 134.458C173.688 139.728 159.728 146.493 159.728 146.493L158.187 140.495C158.187 140.495 175.005 112.659 175.239 111.902C175.473 111.146 180.5 81.0676 180.5 81.0676" fill="white"/>
    <path d="M189.358 71.5182C189.685 73.5271 185.013 105.614 185.013 111.884C185.013 118.153 183.256 129.189 178.472 134.458C173.688 139.728 159.728 146.493 159.728 146.493L158.187 140.495C158.187 140.495 175.005 112.659 175.239 111.902C175.473 111.146 180.5 81.0676 180.5 81.0676" stroke="#263238" stroke-linecap="round" stroke-linejoin="round"/>
    <path d="M150.16 139.971C148.21 140.866 146.199 141.621 144.142 142.232C142.638 142.475 139.629 146.241 137.116 147.493C134.602 148.745 135.116 150.754 136.368 151.006C137.62 151.259 140.881 149.997 140.881 149.997C140.881 149.997 137.62 154.015 137.873 155.015C138.125 156.015 140.377 156.519 141.386 156.267C142.395 156.015 145.899 157.024 149.403 156.772C152.907 156.519 159.681 146.493 159.681 146.493L158.429 139.719L150.16 139.971Z" fill="white" stroke="#263238" stroke-linecap="round" stroke-linejoin="round"/>
    <path d="M200.477 61.7445C200.477 61.7445 191.376 60.7354 186.657 62.4266C181.938 64.1179 178.575 86.3376 180.929 93.0838C183.284 99.8301 183.966 113.64 181.948 122.05C179.93 130.459 181.266 136.206 197.776 141.588C214.287 146.97 224.724 143.952 230.115 139.906C235.507 135.86 238.217 82.301 238.217 76.2369C238.217 70.1727 219.351 63.4358 212.988 62.4266C208.848 61.805 204.659 61.5767 200.477 61.7445Z" fill="#FF66C4" stroke="#263238" stroke-linecap="round" stroke-linejoin="round"/>
    <path d="M212.988 62.4266C212.988 62.4266 197.104 97.7932 197.104 100.83V107.903L217.66 142.606L217.996 137.934L200.14 106.268V100.204L216.651 62.8284L212.988 62.4266Z" fill="#263238" stroke="#263238" stroke-linecap="round" stroke-linejoin="round"/>
    <path d="M228.77 98.1295C228.77 98.1295 218.323 128.114 217.314 136.206C216.305 144.298 219.342 150.352 226.415 154.053C233.489 157.753 239.216 160.799 249.999 157.089C260.782 153.38 265.155 137.215 262.8 124.386C260.446 111.557 256.063 93.7752 251.681 85.3658C247.299 76.9563 241.571 74.9287 236.852 78.6288C232.134 82.329 228.77 98.1295 228.77 98.1295Z" fill="white" stroke="#263238" stroke-linecap="round" stroke-linejoin="round"/>
    <path d="M239.506 113.93C239.506 113.93 229.405 141.625 227.938 147.839C226.471 154.052 236.413 158.995 242.664 158.547" stroke="#263238" stroke-linecap="round" stroke-linejoin="round"/>
    <path d="M262.707 138.467C259.167 135.472 255.076 133.199 250.662 131.777C243.524 129.544 236.834 127.32 235.049 128.656C233.264 129.992 232.367 135.795 232.367 135.795C232.367 135.795 243.524 137.579 249.326 139.812C253.107 141.324 256.701 143.268 260.034 145.606C260.034 145.606 261.819 144.232 262.707 138.467Z" stroke="#263238" stroke-linecap="round" stroke-linejoin="round"/>
    <path d="M157.009 41.87C157.009 41.87 134.78 39.179 128.043 42.5428C121.306 45.9066 129.052 51.3074 135.789 53.662C140.97 55.5022 146.489 56.191 151.963 55.6803C155.663 55.3439 159.036 47.2615 157.009 41.87Z" fill="#FF66C4" stroke="#263238" stroke-linecap="round" stroke-linejoin="round"/>
    <path d="M153.309 59.3899C153.309 59.3899 152.973 69.8363 165.101 72.1909C177.229 74.5456 178.238 67.4723 178.238 67.4723L176.893 50.6533L166.11 45.9347L153.309 59.3899Z" fill="white" stroke="#263238" stroke-linecap="round" stroke-linejoin="round"/>
    <path d="M185.966 16.2212C185.966 16.2212 182.284 12.222 172.174 13.2405C162.064 14.259 156.336 32.4422 154.318 38.17C152.3 43.8977 146.572 60.0626 146.908 62.464C147.245 64.8654 155.318 64.4823 159.373 58.4181C162.053 54.5128 164.311 50.3346 166.11 45.9534C168.128 41.5711 175.884 30.0688 175.884 30.0688L177.902 46.5794C175.136 52.1951 173.315 58.2279 172.51 64.4356C171.501 73.8635 173.52 82.6281 170.492 88.0195C167.465 93.4109 166.755 96.7747 173.856 95.7655C180.957 94.7564 188.685 80.6098 189.357 71.4715C190.03 62.3332 190.703 54.9609 191.039 43.851C191.376 32.7412 191.376 23.9673 189.694 20.9399C188.718 19.1736 187.458 17.5796 185.966 16.2212Z" fill="#263238" stroke="#263238" stroke-linecap="round" stroke-linejoin="round"/>
    <path d="M180.191 86.6085C179.058 87.1677 177.833 87.519 176.575 87.6457" stroke="white" stroke-width="0.75" stroke-linecap="round" stroke-linejoin="round"/>
    <path d="M186.601 46.5233C186.601 46.5233 187.881 48.009 187.274 55.2131C186.666 62.4172 187.61 76.6106 184.928 81.9646C184.381 83.0732 183.633 84.071 182.723 84.9079" stroke="white" stroke-width="0.75" stroke-linecap="round" stroke-linejoin="round"/>
    <path d="M151.496 50.8682C151.496 50.8682 155.505 50.2048 159.186 45.8506" stroke="white" stroke-width="0.75" stroke-linecap="round" stroke-linejoin="round"/>
    <path d="M178.575 15.7633C178.575 15.7633 181.92 18.7533 181.256 21.108" stroke="white" stroke-width="0.75" stroke-linecap="round" stroke-linejoin="round"/>
    <path d="M200.841 12.9041C200.841 12.9041 192.749 12.222 189.385 17.576C186.021 22.9301 189.049 31.3956 189.049 43.8603C189.049 56.3251 188.376 68.7898 186.685 73.8354C184.994 78.8811 190.731 77.2086 193.422 73.1627C196.113 69.1168 198.477 62.3892 199.822 60.3616C201.168 58.334 208.923 55.3066 208.923 55.3066C208.923 55.3066 208.251 67.7713 210.269 72.1255C212.287 76.4798 220.715 75.4987 223.406 73.8074C225.893 72.0661 228.256 70.1554 230.48 68.089C230.48 68.089 226.742 66.3977 226.742 56.6334C226.742 46.8691 228.424 29.6763 223.705 19.912C222.753 17.8688 221.381 16.0485 219.681 14.5688C217.98 13.0892 215.987 11.9832 213.832 11.3226C211.676 10.662 209.406 10.4614 207.168 10.7338C204.93 11.0063 202.775 11.7456 200.841 12.9041Z" fill="#263238" stroke="#263238" stroke-linecap="round" stroke-linejoin="round"/>
    <path d="M211.586 38.8427C215.219 42.0956 217.712 46.4289 218.697 51.2046C220.37 59.231 217.697 67.9208 222.042 69.2569" stroke="white" stroke-width="0.75" stroke-linecap="round" stroke-linejoin="round"/>
    <path d="M208.886 19.286C212.576 21.771 215.695 25.0137 218.034 28.7981C224.051 38.497 222.379 55.8953 223.715 63.5759C225.051 71.2566 229.396 67.2481 229.396 67.2481" stroke="white" stroke-width="0.75" stroke-linecap="round" stroke-linejoin="round"/>
    <path d="M203.317 16.436C204.344 16.7804 205.339 17.2151 206.289 17.7348" stroke="white" stroke-width="0.75" stroke-linecap="round" stroke-linejoin="round"/>
    <path d="M200.645 14.7635C200.645 14.7635 197.234 18.1741 196.431 20.6502" stroke="white" stroke-width="0.75" stroke-linecap="round" stroke-linejoin="round"/>
    <path d="M196.094 52.9892C196.094 52.9892 197.776 60.0625 196.767 64.7812C195.758 69.4998 199.794 73.5364 203.168 70.509C206.541 67.4816 208.559 62.0995 208.895 58.362C209.154 55.8614 209.604 53.3842 210.241 50.9523C210.241 50.9523 197.776 54.3348 196.094 52.9892Z" fill="white" stroke="#263238" stroke-linecap="round" stroke-linejoin="round"/>
    <path d="M200.477 285.782C200.374 283.991 200.086 282.216 199.617 280.484C195.646 282.157 191.376 284.1 191.376 284.1C190.933 282.679 189.973 281.475 188.685 280.727C187.705 280.288 186.647 280.05 185.573 280.026C183.817 282.362 181.2 285.885 179.967 287.801C177.949 290.837 171.212 295.892 170.876 297.911C170.539 299.929 178.958 298.92 183.34 297.574C187.723 296.229 192.095 291.846 194.123 290.837C196.151 289.828 200.477 289.492 200.477 285.782Z" fill="#37B6FF" stroke="#263238" stroke-linecap="round" stroke-linejoin="round"/>
    <path d="M221.398 299.592C222.481 296.538 223.364 293.417 224.042 290.249L219.37 292.837C219.37 292.837 219.37 291.491 216.67 288.791C215.85 287.992 214.824 287.436 213.708 287.184C213.69 287.272 213.668 287.359 213.642 287.445C213.642 287.445 205.887 297.892 202.859 301.592C199.832 305.292 196.459 306.647 199.122 309.011C201.785 311.375 217.66 309.703 221.398 299.592Z" fill="#37B6FF" stroke="#263238" stroke-linecap="round" stroke-linejoin="round"/>
    <path d="M202.495 177.636L197.776 166.527" stroke="white" stroke-linecap="round" stroke-linejoin="round"/>
    <path d="M141.18 46.2524C141.18 46.2524 153.645 61.0717 153.645 64.1085C153.645 67.1452 142.909 69.4812 139.499 69.1635C136.088 68.8458 125.006 55.3439 122.988 50.971C120.97 46.5981 126.015 43.8977 129.389 43.2156C131.611 42.7977 133.865 42.5726 136.125 42.5428" fill="#FF66C4"/>
    <path d="M141.18 46.2524C141.18 46.2524 153.645 61.0717 153.645 64.1085C153.645 67.1452 142.909 69.4812 139.499 69.1635C136.088 68.8458 125.006 55.3439 122.988 50.971C120.97 46.5981 126.015 43.8977 129.389 43.2156C131.611 42.7977 133.865 42.5726 136.125 42.5428" stroke="#263238" stroke-linecap="round" stroke-linejoin="round"/>
    <path d="M160.046 74.8914C160.046 74.8914 160.924 77.6945 161.167 79.0214C161.41 80.3482 161.045 82.6748 161.531 83.8988C162.017 85.1229 161.167 87.7952 159.223 85.8424C157.28 83.8895 157.635 81.2172 158.121 79.5072C158.659 77.9277 159.302 76.3857 160.046 74.8914Z" fill="white" stroke="#263238" stroke-linecap="round" stroke-linejoin="round"/>
    <path d="M150.608 62.4265C150.608 62.4265 143.872 62.4265 141.853 64.1084C139.835 65.7903 141.517 69.1635 141.517 69.1635C141.926 70.8244 142.47 72.4493 143.143 74.0223C144.89 77.2646 146.796 77.5636 146.796 77.5636C146.796 77.5636 146.908 83.3101 148.927 83.3101C150.945 83.3101 156 83.9828 157.691 83.3101C159.382 82.6373 160.046 77.2459 160.046 74.9006C160.046 72.5553 152.636 61.7444 150.608 62.4265Z" fill="white" stroke="#263238" stroke-linecap="round" stroke-linejoin="round"/>
    <path d="M151.29 75.2277L150.608 82.9737" stroke="#263238" stroke-linecap="round" stroke-linejoin="round"/>
    <path d="M155.196 75.3585L153.841 83.441" stroke="#263238" stroke-linecap="round" stroke-linejoin="round"/>
    <path d="M158.177 75.863C158.177 75.863 157.243 80.862 156.822 83.1606" stroke="#263238" stroke-linecap="round" stroke-linejoin="round"/>
    <path d="M118.363 309.544C111.187 312.767 109.019 303.442 109.019 298.06C109.019 292.678 112.252 278.326 112.252 274.7C112.214 273.956 112.136 273.213 112.018 272.477C114.055 274.009 117.896 275.99 122.194 273.785C122.035 276.345 121.942 278.718 121.942 280.802C121.951 290.931 125.539 306.311 118.363 309.544ZM153.87 303.078C157.103 305.591 163.213 307.385 163.924 302.368C164.634 297.35 157.103 284.063 155.309 280.475C154.692 279.251 154.916 275.261 155.551 270.197C153.524 271.227 151.26 271.701 148.989 271.569C146.719 271.438 144.524 270.706 142.629 269.449C142.367 275.99 142.031 282.232 142.031 285.166C142.031 291.267 141.311 291.267 146.338 294.509C151.365 297.752 150.655 300.574 153.879 303.078H153.87Z" fill="#263238" stroke="#263238" stroke-linecap="round" stroke-linejoin="round"/>
    <path d="M146.348 294.472C151.375 297.696 150.655 300.574 153.879 303.078C157.102 305.582 163.223 307.385 163.933 302.368C163.933 302.256 163.933 302.115 163.933 301.994C158.999 304.096 156.766 302.125 154.159 299.957C151.15 297.443 150.151 293.687 146.142 291.931C142.134 290.174 142.031 285.138 142.031 285.138C142.04 291.239 141.321 291.239 146.348 294.472Z" fill="white" stroke="#263238" stroke-linecap="round" stroke-linejoin="round"/>
    <path d="M122.829 298.696C121.82 301.545 120.166 305.367 117.307 306.47C114.279 307.656 111.252 304.993 109.589 303.115C110.617 307.656 113.177 311.87 118.363 309.544C121.736 308.021 122.726 303.797 122.829 298.696Z" fill="white" stroke="#263238" stroke-linecap="round" stroke-linejoin="round"/>
    <path d="M196.431 20.6501C196.431 20.6501 190.703 25.0231 190.03 27.7235C189.357 30.4238 190.03 43.8977 191.039 47.2615C192.201 51.15 194.818 54.4403 198.346 56.4465C203.018 59.1842 210.241 50.971 210.241 50.971L211.586 38.824C211.586 38.824 196.431 25.3688 196.431 20.6501Z" fill="white" stroke="#263238" stroke-linecap="round" stroke-linejoin="round"/>
    <path d="M195.441 35.6564C195.441 36.5907 195.029 37.2915 194.506 37.2915C193.983 37.2915 193.572 36.5627 193.572 35.6564C193.572 34.75 193.983 34.0305 194.506 34.0305C195.029 34.0305 195.441 34.7593 195.441 35.6564Z" fill="#263238"/>
    <path d="M203.99 35.6564C203.99 36.5907 203.588 37.2915 203.055 37.2915C202.523 37.2915 202.121 36.5627 202.121 35.6564C202.121 34.75 202.532 34.0305 203.055 34.0305C203.579 34.0305 203.99 34.7593 203.99 35.6564Z" fill="#263238"/>
    <path d="M197.272 36.2731C196.412 37.7727 195.666 39.3343 195.039 40.945C194.833 41.9635 196.263 42.982 198.094 42.8138" stroke="#263238" stroke-linecap="round" stroke-linejoin="round"/>
    <path d="M192.432 31.5919C192.936 31.0985 193.593 30.7896 194.294 30.715C194.996 30.6404 195.703 30.8045 196.3 31.1807" stroke="#263238" stroke-linecap="round" stroke-linejoin="round"/>
    <path d="M199.514 31.3863C199.514 31.3863 202.775 29.5175 205.008 32.4048" stroke="#263238" stroke-linecap="round" stroke-linejoin="round"/>
    <path d="M197.636 46.5233C197.636 46.5233 201.505 48.3453 205.111 43.5613" stroke="#263238" stroke-linecap="round" stroke-linejoin="round"/>
    <path d="M180.593 23.472C180.593 23.472 176.528 21.6032 172.828 25.6865C169.128 29.7697 169.09 35.6564 165.811 39.7023C162.531 43.7482 160.644 44.8788 160.644 44.8788C160.644 44.8788 161.382 54.1105 167.287 58.1751C173.192 62.2397 179.845 54.8487 185.386 44.8788C185.386 44.8974 179.481 29.3773 180.593 23.472Z" fill="white" stroke="#263238" stroke-linecap="round" stroke-linejoin="round"/>
    <path d="M179.416 40.3751C178.362 42.0975 177.5 43.9306 176.846 45.8413C176.426 47.7101 173.501 47.0934 173.286 45.4208" stroke="#263238" stroke-linecap="round" stroke-linejoin="round"/>
    <path d="M168.269 44.7947C168.269 44.7947 168.895 47.7287 172.875 48.7658" stroke="#263238" stroke-linecap="round" stroke-linejoin="round"/>
    <path d="M172.034 33.5073C172.034 33.5073 174.548 31.6385 176.846 34.5538" stroke="#263238" stroke-linecap="round" stroke-linejoin="round"/>
    <path d="M180.612 36.6468C180.612 36.6468 183.536 36.2264 185.209 40.618" stroke="#263238" stroke-linecap="round" stroke-linejoin="round"/>
    <path d="M171.23 39.0109C171.23 39.0109 173.735 37.1421 175.781 40.3751" stroke="#263238" stroke-linecap="round" stroke-linejoin="round"/>
    <path d="M179.883 42.655C179.883 42.655 182.153 41.515 182.611 44.7013" stroke="#263238" stroke-linecap="round" stroke-linejoin="round"/>
    <path d="M213.614 105.548C213.614 105.548 204.849 99.8207 202.831 99.1479C199.974 98.4161 197.012 98.1854 194.076 98.4658C193.808 98.5053 193.55 98.5984 193.318 98.7398C193.087 98.8811 192.886 99.0677 192.728 99.2883C192.57 99.509 192.458 99.7593 192.399 100.024C192.34 100.289 192.335 100.563 192.385 100.83L193.058 102.175C193.058 102.175 191.712 106.558 194.412 108.912C197.113 111.267 205.859 111.276 205.859 111.276L211.25 113.967L213.614 105.548Z" fill="white" stroke="#263238" stroke-linecap="round" stroke-linejoin="round"/>
    <path d="M220.155 95.7374L226.359 97.6809" stroke="#263238" stroke-linecap="round" stroke-linejoin="round"/>
    <path d="M223.379 91.3926L230.788 107.567C230.788 107.567 221.697 106.894 217.651 105.212C213.605 103.53 210.577 105.549 210.241 107.903C209.905 110.258 208.559 116.995 211.25 118.35C213.941 119.705 227.088 122.386 236.852 124.077C246.617 125.769 252.354 122.386 253.027 119.022C253.699 115.659 243.935 87.0197 241.235 80.9555C238.534 74.8913 234.498 69.8363 230.115 69.8363" fill="#FF66C4"/>
    <path d="M223.379 91.3926L230.788 107.567C230.788 107.567 221.697 106.894 217.651 105.212C213.605 103.53 210.577 105.549 210.241 107.903C209.905 110.258 208.559 116.995 211.25 118.35C213.941 119.705 227.088 122.386 236.852 124.077C246.617 125.769 252.354 122.386 253.027 119.022C253.699 115.659 243.935 87.0197 241.235 80.9555C238.534 74.8913 234.498 69.8363 230.115 69.8363" stroke="#263238" stroke-linecap="round" stroke-linejoin="round"/>
    <path d="M230.788 107.567C230.788 107.567 236.282 106.679 242.617 111.304" stroke="#263238" stroke-linecap="round" stroke-linejoin="round"/>
</svg>