<svg width="36" height="15" viewBox="0 0 36 15" fill="none" xmlns="http://www.w3.org/2000/svg">
    <path d="M11.3463 1.06902C11.8281 0.986835 12.3292 0.9875 12.8056 1.10162C13.1263 1.20277 13.4454 1.32454 13.7239 1.51685C14.1717 1.80199 14.5324 2.21323 14.7883 2.67637C14.8452 2.77985 14.8814 2.89364 14.943 2.99478C15.0218 2.95719 15.0272 2.85404 15.0677 2.78517C15.3908 2.11608 15.9604 1.57009 16.6405 1.27197C16.8272 1.2021 17.0105 1.11959 17.2065 1.079C17.6753 0.986502 18.1624 0.989164 18.6315 1.078C19.414 1.26465 20.1231 1.75109 20.5626 2.42717C20.6917 2.61482 20.7865 2.8221 20.884 3.02706C21.217 2.1743 21.932 1.47293 22.8028 1.18114C23.23 1.00713 23.7021 0.99848 24.1566 1.0231C24.7106 1.05937 25.2372 1.28062 25.6914 1.59305C26.3316 2.06417 26.8047 2.77153 26.9491 3.55774C27.0143 3.83257 27.0073 4.11537 27.0076 4.39552C27.0013 4.47072 27.0961 4.47404 27.1451 4.499C27.3969 4.57419 27.5992 4.74854 27.8145 4.8916C27.9565 4.84103 28.0896 4.76983 28.2241 4.70162C29.7249 3.96199 31.2272 3.22469 32.7284 2.48539C32.8475 2.4295 32.9643 2.36794 33.086 2.3177C33.5439 2.14902 34.0709 2.20092 34.4954 2.43682C35.0604 2.74258 35.4111 3.38872 35.3738 4.02754C35.3415 4.33663 35.26 4.64539 35.078 4.90159C34.8904 5.17974 34.6112 5.38403 34.3141 5.53208C33.3961 5.9919 32.4719 6.43841 31.5539 6.89822C30.9823 7.17338 30.4207 7.46916 29.8434 7.73268C29.9249 7.93297 30.0756 8.09301 30.1861 8.277C30.3488 8.51656 30.5188 8.75977 30.5827 9.04757C30.7211 9.56994 30.5414 10.1515 30.1588 10.5272C29.7762 10.9021 29.1999 11.0495 28.6799 10.9397C28.4064 10.8589 28.1375 10.7321 27.9409 10.5202C27.7353 10.3196 27.6039 10.0614 27.4315 9.83545C27.4162 10.8369 27.4292 11.8394 27.4249 12.8412C27.4156 13.0745 27.4445 13.3103 27.4109 13.5419C27.2119 13.5785 27.0063 13.5499 26.8047 13.5522C26.7964 12.0956 26.8027 10.6386 26.8017 9.18233C26.794 9.06221 26.8316 8.92447 26.7554 8.82C26.3176 8.17818 25.8831 7.53404 25.4542 6.88624C25.1434 7.03597 24.827 7.18369 24.486 7.24924C23.9237 7.34207 23.3298 7.33874 22.7921 7.13212C22.1836 6.93016 21.6509 6.52292 21.2779 6.00388C21.2639 7.72902 21.2756 9.45449 21.2719 11.18C21.2729 11.9695 21.2693 12.7587 21.2739 13.5482C21.0537 13.5612 20.8327 13.5649 20.6131 13.5442C20.6181 11.6804 20.6138 9.81648 20.6155 7.9526C20.6121 7.24525 20.6218 6.53789 20.6105 5.83053C20.4205 6.0834 20.2378 6.34824 19.987 6.54621C19.6107 6.87726 19.1492 7.10284 18.6661 7.22861C18.2835 7.30314 17.8889 7.33009 17.5012 7.27985C17.0624 7.24092 16.6435 7.07257 16.2669 6.84964C15.9601 6.65733 15.676 6.4211 15.4577 6.13031C15.3778 6.02717 15.301 5.9217 15.2201 5.81955C15.2205 8.39545 15.2155 10.9717 15.2225 13.5476C15.0192 13.5569 14.8136 13.5705 14.6113 13.5476C14.6059 13.5416 14.5953 13.5303 14.59 13.5243C14.5737 12.9657 14.588 12.406 14.5833 11.8471C14.581 9.89866 14.588 7.94994 14.5797 6.00155C14.407 6.19153 14.2569 6.40447 14.05 6.56018C13.4055 7.11648 12.5251 7.38432 11.6794 7.29149C11.2259 7.26354 10.7947 7.09719 10.3981 6.88292C9.94856 7.53471 9.51902 8.19981 9.0652 8.84828C9.06154 10.4167 9.0632 11.9851 9.0642 13.5536C8.85392 13.5602 8.64331 13.5572 8.43303 13.5566C8.42072 12.4869 8.43071 11.4175 8.42871 10.3478C8.43004 10.1815 8.44102 10.0128 8.39976 9.85009C8.21011 10.1153 8.05008 10.4097 7.79455 10.62C7.6049 10.785 7.36767 10.8828 7.12712 10.9481C6.69026 11.0246 6.22213 10.9318 5.8578 10.6746C5.27156 10.2663 5.05063 9.42554 5.35307 8.77974C5.52908 8.41375 5.79791 8.10299 6.00087 7.75264C5.72072 7.58927 5.41962 7.46417 5.13248 7.31279C3.9347 6.72421 2.73991 6.12964 1.54313 5.53841C1.27762 5.41397 1.03573 5.2373 0.845751 5.01338C0.5493 4.64639 0.419208 4.15796 0.479097 3.69116C0.558284 3.1638 0.891334 2.6777 1.36412 2.4265C1.72712 2.23486 2.15899 2.16432 2.56058 2.26081C2.75888 2.29708 2.93455 2.40022 3.11488 2.48506C4.63041 3.23068 6.1466 3.97464 7.6608 4.72225C7.77858 4.77748 7.88938 4.85467 8.0188 4.87896C8.08202 4.87031 8.12926 4.82007 8.1805 4.78613C8.37547 4.63009 8.60172 4.51597 8.84261 4.44976C8.82897 4.04417 8.83263 3.62927 8.96439 3.24033C9.28878 2.158 10.238 1.29094 11.3463 1.06902ZM11.6621 1.65493C11.5014 1.68321 11.3436 1.72647 11.1873 1.77138C10.8506 1.87852 10.5518 2.07748 10.2863 2.30672C9.94956 2.61682 9.70834 3.02107 9.5706 3.4556C9.47544 3.79131 9.47644 4.14499 9.50438 4.49001C9.62117 5.53508 10.4806 6.43874 11.513 6.62539C12.0457 6.73286 12.614 6.65567 13.1007 6.41379C13.649 6.1526 14.0856 5.67781 14.3248 5.12184C14.3837 4.94151 14.4472 4.76151 14.4832 4.57486C14.5411 4.19157 14.5208 3.79297 14.3997 3.42299C14.2063 2.74258 13.6946 2.1743 13.0595 1.8722C12.8326 1.76273 12.584 1.70683 12.3388 1.65593C12.1146 1.63031 11.8863 1.63131 11.6621 1.65493ZM17.3615 1.70451C17.1116 1.7594 16.8697 1.85057 16.6502 1.98266C16.4212 2.13338 16.1897 2.29075 16.0183 2.50868C15.7581 2.8068 15.5668 3.1668 15.474 3.55208C15.3935 3.82525 15.4101 4.11238 15.4164 4.39353C15.4673 4.96746 15.7262 5.51911 16.1334 5.92635C16.6398 6.44473 17.3788 6.72055 18.1008 6.66698C18.3563 6.63371 18.6172 6.59844 18.8534 6.48898C19.6123 6.19153 20.2096 5.49881 20.3773 4.69929C20.4105 4.47571 20.4651 4.24913 20.4331 4.02188C20.4019 3.79763 20.3829 3.56972 20.309 3.35412C20.1946 3.04802 20.0385 2.75423 19.8206 2.50902C19.2324 1.8183 18.2459 1.47926 17.3615 1.70451ZM23.2889 1.70251C22.3576 1.90048 21.5834 2.6787 21.3834 3.60831C21.3305 3.85519 21.3308 4.10939 21.3431 4.36025C21.3757 4.95482 21.6499 5.52709 22.0748 5.94099C22.6407 6.5146 23.4991 6.7861 24.291 6.62972C24.7784 6.54521 25.2396 6.30765 25.5929 5.96162C25.9546 5.62092 26.1961 5.16576 26.3123 4.68532C26.463 3.96 26.28 3.17245 25.8145 2.59486C25.2373 1.84691 24.2088 1.47293 23.2889 1.70251ZM1.54546 3.07264C1.25333 3.27427 1.09862 3.64125 1.11758 3.99127C1.1229 4.29404 1.27595 4.5895 1.51351 4.77615C1.61533 4.85534 1.73344 4.9099 1.84656 4.97079C3.34612 5.70942 4.84468 6.45038 6.34523 7.18669C6.38649 7.21763 6.40912 7.15774 6.43041 7.13279C6.75082 6.65135 7.07655 6.1739 7.39795 5.69312C7.46549 5.59863 7.52804 5.50014 7.58194 5.397C7.17403 5.21334 6.78276 4.99441 6.37518 4.80942C5.16043 4.20421 3.93869 3.61364 2.72394 3.00776C2.35928 2.81412 1.87984 2.81711 1.54546 3.07264ZM32.9663 3.08894C32.4635 3.32351 31.9738 3.58469 31.4714 3.81992C30.3984 4.3526 29.3214 4.87696 28.2473 5.40765C28.6616 6.00255 29.0562 6.61109 29.4681 7.20765C30.9956 6.44173 32.5344 5.69645 34.0649 4.93652C34.2379 4.84669 34.4066 4.73756 34.5234 4.57785C34.6964 4.32 34.7822 3.99227 34.6991 3.68683C34.6478 3.52414 34.5866 3.35811 34.4705 3.22968C34.2642 2.99578 33.9534 2.85371 33.64 2.87301C33.3971 2.86635 33.1736 2.97549 32.9663 3.08894ZM8.63699 5.25127C8.46498 5.37105 8.30095 5.50913 8.18516 5.6858C7.46749 6.75316 6.74549 7.81785 6.02849 8.88587C5.75599 9.27083 5.83751 9.8634 6.22213 10.1435C6.39248 10.249 6.58313 10.3425 6.78908 10.3309C7.11015 10.3302 7.42191 10.1579 7.59259 9.88569C8.34586 8.76077 9.10546 7.63952 9.86405 6.51826L9.8574 6.48931C9.56694 6.22147 9.32538 5.89974 9.15437 5.54273C9.07851 5.40366 9.01895 5.25593 8.98534 5.10055C8.85825 5.11985 8.74346 5.18273 8.63699 5.25127ZM26.8749 5.09157C26.7441 5.49316 26.5348 5.86846 26.267 6.19452C26.1748 6.30565 26.0631 6.39815 25.9732 6.51061C26.7405 7.63918 27.5021 8.77109 28.2633 9.90332C28.4756 10.2384 28.9124 10.4034 29.2941 10.3016C29.503 10.2327 29.7086 10.1159 29.8234 9.92096C29.9735 9.71833 29.9998 9.45116 29.9568 9.20894C29.9173 9.01064 29.7878 8.84861 29.6794 8.68358C29.0236 7.70939 28.3678 6.73486 27.708 5.76332C27.5197 5.4519 27.2149 5.216 26.8749 5.09157Z" fill="#F7FAFC" stroke="#F7FAFC" stroke-width="0.3"/>
    <path d="M11.6615 1.65494C11.8857 1.63131 12.114 1.63032 12.3382 1.65594C12.5834 1.70684 12.832 1.76274 13.0589 1.8722C13.694 2.17431 14.2057 2.74259 14.3991 3.423C14.5202 3.79298 14.5405 4.19157 14.4826 4.57486C14.4466 4.76152 14.3831 4.94152 14.3242 5.12185C14.085 5.67782 13.6484 6.15261 13.1001 6.41379C12.6134 6.65568 12.0451 6.73287 11.5124 6.6254C10.48 6.43875 9.62057 5.53508 9.50378 4.49002C9.47584 4.14499 9.47484 3.79131 9.57 3.4556C9.70774 3.02107 9.94896 2.61682 10.2857 2.30673C10.5512 2.07749 10.85 1.87852 11.1867 1.77139C11.343 1.72647 11.5008 1.68322 11.6615 1.65494Z" stroke="#F7FAFC" stroke-width="0.3"/>
    <path d="M17.362 1.7045C18.2464 1.47925 19.2329 1.81829 19.8211 2.50901C20.0391 2.75422 20.1951 3.04801 20.3096 3.35411C20.3834 3.56971 20.4024 3.79762 20.4337 4.02187C20.4656 4.24912 20.411 4.4757 20.3778 4.69929C20.2101 5.49881 19.6129 6.19152 18.8539 6.48897C18.6177 6.59843 18.3568 6.6337 18.1013 6.66697C17.3793 6.72054 16.6404 6.44472 16.134 5.92635C15.7267 5.5191 15.4679 4.96746 15.417 4.39352C15.4106 4.11237 15.394 3.82524 15.4745 3.55208C15.5673 3.16679 15.7587 2.80679 16.0188 2.50868C16.1902 2.29075 16.4218 2.13337 16.6507 1.98265C16.8703 1.85056 17.1122 1.7594 17.362 1.7045Z" stroke="#F7FAFC" stroke-width="0.3"/>
    <path d="M23.2875 1.70252C24.2074 1.47294 25.2359 1.84692 25.8131 2.59487C26.2786 3.17246 26.4616 3.96 26.3109 4.68533C26.1948 5.16577 25.9532 5.62093 25.5916 5.96163C25.2382 6.30766 24.7771 6.54522 24.2896 6.62973C23.4978 6.7861 22.6394 6.51461 22.0734 5.941C21.6485 5.5271 21.3744 4.95483 21.3418 4.36026C21.3294 4.10939 21.3291 3.8552 21.382 3.60832C21.582 2.67871 22.3562 1.90048 23.2875 1.70252Z" stroke="#F7FAFC" stroke-width="0.3"/>
    <path d="M1.54564 3.07265C1.88003 2.81713 2.35947 2.81413 2.72413 3.00777C3.93888 3.61365 5.16062 4.20423 6.37537 4.80944C6.78295 4.99443 7.17422 5.21336 7.58213 5.39702C7.52823 5.50016 7.46568 5.59864 7.39814 5.69313C7.07673 6.17391 6.751 6.65136 6.4306 7.1328C6.4093 7.15776 6.38668 7.21765 6.34542 7.1867C4.84487 6.4504 3.34631 5.70944 1.84675 4.97081C1.73363 4.90992 1.61551 4.85535 1.5137 4.77617C1.27614 4.58951 1.12309 4.29406 1.11777 3.99129C1.09881 3.64127 1.25352 3.27428 1.54564 3.07265Z" stroke="#F7FAFC" stroke-width="0.3"/>
    <path d="M32.965 3.08894C33.1723 2.97548 33.3959 2.86635 33.6388 2.87301C33.9522 2.85371 34.263 2.99578 34.4692 3.22968C34.5854 3.35811 34.6466 3.52414 34.6978 3.68683C34.781 3.99227 34.6952 4.31999 34.5221 4.57785C34.4054 4.73755 34.2367 4.84669 34.0637 4.93652C32.5332 5.69645 30.9943 6.44173 29.4668 7.20765C29.0549 6.61109 28.6603 6.00255 28.2461 5.40765C29.3201 4.87696 30.3971 4.3526 31.4701 3.81992C31.9725 3.58469 32.4623 3.32351 32.965 3.08894Z" stroke="#F7FAFC" stroke-width="0.3"/>
    <path d="M8.63701 5.25127C8.74348 5.18273 8.85827 5.11985 8.98536 5.10055C9.01897 5.25593 9.07852 5.40365 9.15438 5.54273C9.3254 5.89973 9.56695 6.22147 9.85742 6.48931L9.86407 6.51826C9.10547 7.63951 8.34588 8.76077 7.59261 9.88569C7.42193 10.1578 7.11017 10.3302 6.7891 10.3309C6.58315 10.3425 6.3925 10.249 6.22215 10.1435C5.83753 9.8634 5.75601 9.27083 6.02851 8.88587C6.74551 7.81785 7.46751 6.75315 8.18518 5.6858C8.30096 5.50912 8.46499 5.37105 8.63701 5.25127Z" stroke="#F7FAFC" stroke-width="0.3"/>
    <path d="M26.8743 5.09157C27.2144 5.216 27.5191 5.4519 27.7074 5.76332C28.3672 6.73486 29.023 7.70939 29.6788 8.68358C29.7873 8.84861 29.9167 9.01064 29.9563 9.20894C29.9992 9.45116 29.9729 9.71833 29.8229 9.92096C29.7081 10.1159 29.5025 10.2327 29.2935 10.3016C28.9119 10.4034 28.475 10.2384 28.2627 9.90332C27.5015 8.77109 26.7399 7.63918 25.9727 6.51061C26.0625 6.39815 26.1743 6.30565 26.2664 6.19453C26.5343 5.86846 26.7436 5.49316 26.8743 5.09157Z" stroke="#F7FAFC" stroke-width="0.3"/>
</svg>