<svg width="18" height="18" viewBox="0 0 18 18" fill="none" xmlns="http://www.w3.org/2000/svg">
    <path d="M9.75464 11.4488L11.3424 9.09375M11.3424 9.09375L11.5306 8.81625C11.6519 8.63256 11.8202 8.48483 12.0181 8.38852C12.216 8.29221 12.4361 8.25086 12.6555 8.2688C12.8748 8.28674 13.0853 8.36331 13.2649 8.4905C13.4445 8.61768 13.5866 8.79081 13.6764 8.99175L15.6234 13.1475C16.0254 14.004 15.4209 15 14.5006 15H3.49964C2.58164 15 1.97714 14.01 2.37389 13.1535L6.72989 3.7335C6.82713 3.5134 6.98675 3.32663 7.18902 3.19629C7.39128 3.06595 7.62732 2.99776 7.86793 3.00015C8.10854 3.00255 8.34317 3.07542 8.5428 3.20976C8.74243 3.3441 8.89831 3.53401 8.99114 3.756L11.3424 9.09375Z" stroke="#006BA8" stroke-width="1.125" stroke-linecap="round" stroke-linejoin="round"/>
</svg>