<svg width="262" height="302" viewBox="0 0 262 302" fill="none" xmlns="http://www.w3.org/2000/svg">
    <path d="M254.095 144.68L212.611 151.102C211.027 151.348 209.941 152.831 210.186 154.416L214.098 179.683C214.343 181.267 215.826 182.353 217.411 182.108L258.895 175.686C260.48 175.44 261.565 173.957 261.32 172.372L257.408 147.105C257.163 145.521 255.68 144.435 254.095 144.68Z" stroke="#263238" stroke-width="0.421023" stroke-linecap="round" stroke-linejoin="round"/>
    <path d="M210.82 158.494L258.042 151.185" stroke="#263238" stroke-width="0.421023" stroke-linecap="round" stroke-linejoin="round"/>
    <path d="M254.35 159.473L246.721 160.654L248.422 171.638L256.05 170.457L254.35 159.473Z" stroke="#263238" stroke-width="0.421023" stroke-linecap="round" stroke-linejoin="round"/>
    <path d="M249.818 162.453C251.429 160.534 254.077 161.813 253.456 167.767L255.816 168.938L256.047 170.434L248.423 171.617L248.11 169.616L250.988 168.496C250.988 168.496 248.302 164.263 249.818 162.453Z" stroke="#263238" stroke-width="0.421023" stroke-linecap="round" stroke-linejoin="round"/>
    <path d="M233.273 175.883C233.273 175.883 238.786 175.928 237.206 174.828C235.627 173.728 235.39 172.615 236.733 172.596C238.076 172.577 240.327 175.154 240.148 173.581C239.969 172.007 240.941 173.031 241.126 173.133C241.312 173.235 242.904 172.596 242.981 172.781C243.058 172.967 242.949 173.485 248.136 172.685" stroke="#263238" stroke-width="0.421023" stroke-linecap="round" stroke-linejoin="round"/>
    <path d="M214.823 163.399L237.948 159.818" stroke="#263238" stroke-width="0.421023" stroke-linecap="round" stroke-linejoin="round"/>
    <path d="M215.232 166.021L228.854 163.911" stroke="#263238" stroke-width="0.421023" stroke-linecap="round" stroke-linejoin="round"/>
    <path d="M215.949 170.645L234.949 167.703" stroke="#263238" stroke-width="0.421023" stroke-linecap="round" stroke-linejoin="round"/>
    <path d="M221.845 153.353L245.034 149.758" stroke="#263238" stroke-width="0.421023" stroke-linecap="round" stroke-linejoin="round"/>
    <path d="M1 137.154L52.8458 126.8L70.9505 213.723L15.8432 225.541L1 137.154Z" stroke="#263238" stroke-width="0.421023" stroke-linecap="round" stroke-linejoin="round"/>
    <path d="M13.7583 213.141L68.7569 203.184" stroke="#263238" stroke-width="0.421023" stroke-linecap="round" stroke-linejoin="round"/>
    <path d="M62.2404 195.791L35.9753 200.639" stroke="#263238" stroke-width="0.421023" stroke-linecap="round" stroke-linejoin="round"/>
    <path d="M58.3456 191.43L50.6714 192.562" stroke="#263238" stroke-width="0.421023" stroke-linecap="round" stroke-linejoin="round"/>
    <path d="M59.516 182.553L20.3135 189.907" stroke="#263238" stroke-width="0.421023" stroke-linecap="round" stroke-linejoin="round"/>
    <path d="M7.77881 177.533L61.4408 168.062" stroke="#263238" stroke-width="0.421023" stroke-linecap="round" stroke-linejoin="round" stroke-dasharray="0.42 0.84"/>
    <path d="M64.7984 210.909L32.2021 217.739" stroke="#263238" stroke-width="0.421023" stroke-linecap="round" stroke-linejoin="round"/>
    <path d="M63.8263 208.159L48.5034 210.909" stroke="#263238" stroke-width="0.421023" stroke-linecap="round" stroke-linejoin="round"/>
    <path d="M55.5382 162.331L28.6592 167.659" stroke="#263238" stroke-width="0.421023" stroke-linecap="round" stroke-linejoin="round"/>
    <path d="M53.415 156.365L44.8518 158.047" stroke="#263238" stroke-width="0.421023" stroke-linecap="round" stroke-linejoin="round"/>
    <path d="M52.9096 152.221L13.7583 159.767" stroke="#263238" stroke-width="0.421023" stroke-linecap="round" stroke-linejoin="round"/>
    <path d="M49.354 132.05L38.7827 134.237" stroke="#263238" stroke-width="0.421023" stroke-linecap="round" stroke-linejoin="round"/>
    <path d="M13.7585 139.565L4.63892 141.336" stroke="#263238" stroke-width="0.421023" stroke-linecap="round" stroke-linejoin="round"/>
    <path d="M7.95801 146.363C8.14819 145.714 8.47483 145.114 8.91603 144.602C9.35723 144.09 9.90278 143.679 10.5161 143.395" stroke="#263238" stroke-width="0.421023" stroke-linecap="round" stroke-linejoin="round"/>
    <path d="M12.0124 152.221C10.88 152.086 9.83326 151.551 9.06229 150.71C8.29132 149.87 7.84727 148.781 7.81079 147.642" stroke="#263238" stroke-width="0.421023" stroke-linecap="round" stroke-linejoin="round"/>
    <path d="M15.568 151.133C14.9188 151.718 14.1109 152.096 13.2466 152.221" stroke="#263238" stroke-width="0.421023" stroke-linecap="round" stroke-linejoin="round"/>
    <path d="M12.4602 142.96C13.2836 142.987 14.086 143.227 14.7893 143.656C15.4925 144.085 16.0727 144.689 16.4732 145.409C16.8737 146.129 17.081 146.94 17.0748 147.764C17.0687 148.588 16.8493 149.396 16.438 150.11" stroke="#263238" stroke-width="0.421023" stroke-linecap="round" stroke-linejoin="round"/>
    <path d="M21.7844 144.163C20.9338 143.894 20.0897 143.587 19.2263 143.395" stroke="#263238" stroke-width="0.421023" stroke-linecap="round" stroke-linejoin="round"/>
    <path d="M29.0363 144.777C28.3137 146.497 24.2719 144.93 23.0952 144.572" stroke="#263238" stroke-width="0.421023" stroke-linecap="round" stroke-linejoin="round"/>
    <path d="M22.1169 140.21L29.6761 141.988C29.5545 142.494 29.4586 143.005 29.3627 143.51" stroke="#263238" stroke-width="0.421023" stroke-linecap="round" stroke-linejoin="round"/>
    <path d="M18.3757 141.988C19.1815 140.07 18.8618 139.43 20.8699 139.897" stroke="#263238" stroke-width="0.421023" stroke-linecap="round" stroke-linejoin="round"/>
    <path d="M110.614 277.739L120.622 280.809L113.184 272.047C117.262 267.514 119.596 261.68 119.771 255.586" stroke="#263238" stroke-width="0.421023" stroke-linecap="round" stroke-linejoin="round"/>
    <path d="M98.469 281.602C101.824 280.531 104.989 278.941 107.851 276.888" stroke="#263238" stroke-width="0.421023" stroke-linecap="round" stroke-linejoin="round"/>
    <path d="M59.8486 262.992C62.7968 277.195 78.4906 285.944 94.9071 282.542" stroke="#263238" stroke-width="0.421023" stroke-linecap="round" stroke-linejoin="round"/>
    <path d="M62.2402 246.978C61.6101 248.175 61.0755 249.419 60.6414 250.7" stroke="#263238" stroke-width="0.421023" stroke-linecap="round" stroke-linejoin="round"/>
    <path d="M119.292 250.662C116.35 236.458 100.65 227.709 84.2397 231.118C76.7879 232.581 70.0723 236.579 65.2332 242.431" stroke="#263238" stroke-width="0.421023" stroke-linecap="round" stroke-linejoin="round"/>
    <path d="M101.878 245.456C97.1516 240.308 90.7116 243.876 88.032 249.101C83.6066 245.264 76.2969 244.324 73.8283 250.866C69.6587 261.885 83.9199 268.607 90.5198 271.037C91.268 271.318 91.8819 271.555 92.3935 271.727C92.8092 271.376 93.2953 270.928 93.8836 270.391C99.1021 265.678 109.846 254.141 101.878 245.456Z" stroke="#263238" stroke-width="0.421023" stroke-linecap="round" stroke-linejoin="round"/>
    <path d="M141.176 35.8282L131.513 31.8057L138.068 41.245C133.588 45.3636 130.714 50.9384 129.959 56.9771" stroke="#263238" stroke-width="0.421023" stroke-linecap="round" stroke-linejoin="round"/>
    <path d="M153.621 33.1357C150.181 33.8816 146.877 35.1589 143.83 36.9217" stroke="#263238" stroke-width="0.421023" stroke-linecap="round" stroke-linejoin="round"/>
    <path d="M190.285 55.3782C188.718 40.9443 173.939 30.712 157.273 32.5474" stroke="#263238" stroke-width="0.421023" stroke-linecap="round" stroke-linejoin="round"/>
    <path d="M186.365 71.0848C187.095 69.9535 187.737 68.7668 188.283 67.5355" stroke="#263238" stroke-width="0.421023" stroke-linecap="round" stroke-linejoin="round"/>
    <path d="M129.959 61.9269C131.526 76.348 146.305 86.5675 162.971 84.7577C170.528 84.0152 177.595 80.6826 182.975 75.3248" stroke="#263238" stroke-width="0.421023" stroke-linecap="round" stroke-linejoin="round"/>
    <path d="M167.131 70.7522C174.52 66.7968 177.304 57.6 173.348 50.2108C169.393 42.8215 160.196 40.0378 152.807 43.9933C145.418 47.9487 142.634 57.1455 146.589 64.5347C150.545 71.924 159.742 74.7077 167.131 70.7522Z" stroke="#263238" stroke-width="0.421023" stroke-linecap="round" stroke-linejoin="round"/>
    <path d="M154.203 59.2921L158.744 63.5769L166.316 50.5371" stroke="#263238" stroke-width="0.421023" stroke-linecap="round" stroke-linejoin="round"/>
    <path opacity="0.2" d="M178.94 201.918C178.94 201.918 176.663 229.468 179.957 236.151C183.25 242.834 184.9 288.496 183.423 294.238C183.423 294.238 194.026 296.912 198.221 293.113C202.417 289.314 208.869 292.972 219.498 289.276C230.127 285.579 222.459 203.536 222.459 203.536L222.785 173.689L205.256 158.072L178.94 201.918Z" fill="black" fill-opacity="0.7"/>
    <path d="M193.073 215.168C193.007 215.365 192.901 215.546 192.76 215.699C190.496 217.842 180.833 220.221 172.532 221.935C165.657 223.361 159.742 224.326 159.742 224.326C159.742 224.326 155.188 186.486 155.188 182.508C155.188 178.53 147.847 114.131 147.847 114.131L165.446 113.37L188.795 112.359C188.795 112.359 188.936 114.08 189.172 117.085C190.714 136.233 196.009 207.616 193.073 215.168Z" fill="#FF66C4"/>
    <mask id="mask0_391_3000" style="mask-type:luminance" maskUnits="userSpaceOnUse" x="147" y="112" width="47" height="113">
        <path d="M193.073 215.168C193.007 215.365 192.901 215.546 192.76 215.699C190.496 217.842 180.833 220.221 172.532 221.935C165.657 223.361 159.742 224.326 159.742 224.326C159.742 224.326 155.188 186.486 155.188 182.508C155.188 178.53 147.847 114.131 147.847 114.131L165.446 113.37L188.795 112.359C188.795 112.359 188.936 114.08 189.172 117.085C190.714 136.233 196.009 207.616 193.073 215.168Z" fill="white"/>
    </mask>
    <g mask="url(#mask0_391_3000)">
        <path opacity="0.2" d="M193.074 215.168L172.532 219.37L164.775 220.962C162.671 218.897 161.066 218.858 161.066 218.858L160.426 213.071L159.422 203.599L150.584 120.27C152.503 118.946 153.449 116.049 153.449 116.049L165.28 115.621L185.777 114.873L189.16 117.06C190.714 136.233 196.009 207.616 193.074 215.168Z" fill="black" fill-opacity="0.7"/>
        <path d="M193.074 215.168L172.532 219.37L164.775 220.962C162.671 218.897 161.066 218.858 161.066 218.858L160.426 213.071L159.422 203.599L150.584 120.27C152.503 118.946 153.449 116.049 153.449 116.049L165.28 115.621L185.777 114.873L189.16 117.06C190.714 136.233 196.009 207.616 193.074 215.168Z" stroke="#263238" stroke-width="0.421023" stroke-linecap="round" stroke-linejoin="round"/>
        <path d="M162.153 190.636L169.008 190.624L169.015 192.766L167.109 193.444L162.716 193.924L162.153 190.636Z" fill="#FF66C4" stroke="#263238" stroke-width="0.421023" stroke-linecap="round" stroke-linejoin="round"/>
        <path d="M162.575 195.049L167.614 194.876L168.906 195.49L168.842 198.336L162.959 198.4L162.575 195.049Z" fill="#FF66C4" stroke="#263238" stroke-width="0.421023" stroke-linecap="round" stroke-linejoin="round"/>
        <path d="M163.381 199.596L169.136 199.18L169.072 201.336L166.29 202.32L163.349 202.154L163.381 199.596Z" fill="#FF66C4" stroke="#263238" stroke-width="0.421023" stroke-linecap="round" stroke-linejoin="round"/>
        <path d="M163.726 203.229L168.375 203.465L168.797 204.655L168.119 205.966L163.963 206.234L163.246 204.207L163.726 203.229Z" fill="#FF66C4" stroke="#263238" stroke-width="0.421023" stroke-linecap="round" stroke-linejoin="round"/>
        <path d="M169.085 207.392L169.725 209.253C169.827 209.451 169.88 209.67 169.88 209.892C169.88 210.115 169.827 210.334 169.725 210.532C169.606 210.668 169.454 210.771 169.284 210.831C169.114 210.892 168.931 210.908 168.753 210.877C168.395 210.845 168.043 210.724 167.685 210.705C166.604 210.66 165.613 211.549 164.551 211.344C164.135 210.193 163.086 208.505 164.506 207.987C164.768 207.903 169.239 207.814 169.085 207.392Z" fill="#FF66C4" stroke="#263238" stroke-width="0.421023" stroke-linecap="round" stroke-linejoin="round"/>
        <path d="M169.066 212.63C169.168 213.072 169.24 213.521 169.284 213.973C169.348 214.258 169.339 214.556 169.256 214.837C169.173 215.118 169.02 215.373 168.81 215.578C168.538 215.728 168.233 215.809 167.921 215.814L164.225 216.147C164.171 215.449 164.16 214.748 164.193 214.049C164.41 213.218 164.257 213.288 165.044 212.949C166.291 212.418 167.787 213.263 169.066 212.63Z" fill="#FF66C4" stroke="#263238" stroke-width="0.421023" stroke-linecap="round" stroke-linejoin="round"/>
        <path d="M155.623 122.163C155.623 122.163 157.017 135.638 157.081 138.305" stroke="#263238" stroke-width="0.421023" stroke-linecap="round" stroke-linejoin="round"/>
        <path d="M158.629 122.31L159.281 129.735" stroke="#263238" stroke-width="0.421023" stroke-linecap="round" stroke-linejoin="round"/>
        <path d="M169.047 119.503L169.891 128.207L171.074 128.322L170.69 119.586L169.047 119.503Z" fill="#FF66C4" stroke="#263238" stroke-width="0.421023" stroke-linecap="round" stroke-linejoin="round"/>
        <path opacity="0.2" d="M193.074 215.168C193.007 215.365 192.901 215.546 192.76 215.699C190.496 217.842 180.833 220.221 172.532 221.935V216.179L160.452 213.084L158.629 212.617L159.448 203.612L162.575 169.206L165.306 115.647L165.421 113.37L188.795 112.359C188.795 112.359 188.936 114.08 189.173 117.085C190.714 136.233 196.009 207.616 193.074 215.168Z" fill="black" fill-opacity="0.7"/>
    </g>
    <path d="M193.073 215.168C193.007 215.365 192.901 215.546 192.76 215.699C190.496 217.842 180.833 220.221 172.532 221.935C165.657 223.361 159.742 224.326 159.742 224.326C159.742 224.326 155.188 186.486 155.188 182.508C155.188 178.53 147.847 114.131 147.847 114.131L165.446 113.37L188.795 112.359C188.795 112.359 188.936 114.08 189.172 117.085C190.714 136.233 196.009 207.616 193.073 215.168Z" stroke="#263238" stroke-width="0.421023" stroke-linecap="round" stroke-linejoin="round"/>
    <path d="M205.461 301.037C205.608 299.687 203.485 280.329 203.446 278.225C203.344 272.469 201.713 264.917 201.713 264.917C199.436 259.097 197.665 245.686 191.59 237.085C185.514 228.483 185.521 218.366 184.51 209.777C183.5 201.189 183.749 201.93 184.005 194.307C184.189 188.581 183.935 182.849 183.244 177.162C182.739 172.097 181.728 163.188 183.244 159.038C184.76 154.887 188.725 153.922 193.067 158.079C197.409 162.235 199.181 179.279 199.181 181.383C199.181 183.487 199.181 190.061 200.703 192.593C200.703 192.593 209.304 188.193 209.304 186.978C209.304 185.763 209.048 175.026 210.315 174.45L205.256 158.079L214.849 154.67C216.655 156.29 218.214 158.164 219.479 160.234C220.562 161.948 221.468 163.767 222.184 165.663C226.232 176.401 232.736 183.89 234.079 186.978C235.422 190.067 234.079 214.599 234.079 219.159C234.079 223.719 231.137 244.74 231.214 248.276C231.272 250.834 232.998 260.35 234.719 267.647C235.358 270.461 239.24 290.849 239.835 292.467L205.461 301.037Z" fill="white"/>
    <path opacity="0.4" d="M213.033 173.369C212.969 174.744 214.612 185.706 214.612 185.706C215.751 188.436 209.534 197.748 209.534 197.748C208.191 198.503 207.616 203.184 207.616 203.184C203.408 202.25 193.77 192.561 193.77 192.561C193.77 192.561 192.632 196.533 191.353 206.362C190.074 216.192 198.183 239.54 201.636 255.663C205.09 271.785 203.446 278.206 203.446 278.206C203.344 272.45 201.713 264.897 201.713 264.897C199.436 259.078 197.665 245.667 191.59 237.066C185.514 228.464 185.521 218.366 184.51 209.777C183.5 201.189 183.749 201.93 184.005 194.307C184.189 188.581 183.935 182.849 183.244 177.162C182.739 172.097 181.728 163.188 183.244 159.038C184.76 154.887 188.725 153.922 193.067 158.079C197.409 162.235 199.181 179.279 199.181 181.383C199.181 183.487 199.181 190.061 200.703 192.593C200.703 192.593 209.304 188.193 209.304 186.978C209.304 185.763 209.048 175.026 210.315 174.45L205.256 158.079L214.849 154.67C216.655 156.29 218.214 158.164 219.479 160.234C216.377 166.437 213.097 172.512 213.033 173.369Z" fill="#FF66C4"/>
    <path opacity="0.4" d="M229.161 249.971C229.584 246.134 230.843 237.014 231.643 231.323C230.664 235.767 229.085 238.018 229.085 238.018C229.085 238.018 231.809 205.403 232.078 203.414C232.346 201.425 235.096 192.485 234.086 186.946C235.429 190.029 234.086 214.567 234.086 219.127C234.086 223.687 231.144 244.708 231.221 248.244C231.278 250.802 234.022 267.104 235.742 274.401C232.046 269.029 228.739 253.827 229.161 249.971Z" fill="#FF66C4"/>
    <path d="M239.822 292.435C237.801 286.615 231.31 251.762 231.233 248.244C231.157 244.727 234.098 223.68 234.098 219.127C234.098 214.574 235.441 190.029 234.098 186.946C232.755 183.864 226.251 176.369 222.203 165.631C220.673 161.433 218.158 157.663 214.868 154.638L205.275 158.047L210.334 174.418C209.055 174.994 209.323 185.731 209.323 186.946C209.323 188.161 200.722 192.561 200.722 192.561C199.2 190.003 199.2 183.455 199.2 181.351C199.2 179.247 197.428 162.197 193.086 158.047C188.744 153.896 184.772 154.849 183.263 159.006C181.754 163.163 182.758 172.065 183.263 177.13C183.955 182.824 184.21 188.562 184.024 194.294C183.768 201.918 183.512 201.163 184.529 209.764C185.546 218.366 185.54 228.483 191.609 237.085C197.678 245.686 199.456 259.097 201.732 264.917C201.732 264.917 206.03 295.978 205.48 301.037" stroke="#263238" stroke-width="0.421023" stroke-linecap="round" stroke-linejoin="round"/>
    <path d="M200.703 192.561C200.703 192.561 202.219 199.641 205.634 203.184" stroke="#263238" stroke-width="0.421023" stroke-linecap="round" stroke-linejoin="round"/>
    <path d="M201.624 195.791C201.624 195.791 208.019 197.748 210.692 197.869" stroke="#263238" stroke-width="0.421023" stroke-linecap="round" stroke-linejoin="round"/>
    <path d="M209.304 186.946C209.304 186.946 213.858 184.842 216.767 186.109" stroke="#263238" stroke-width="0.421023" stroke-linecap="round" stroke-linejoin="round"/>
    <path d="M210.315 174.418C210.315 174.418 213.858 174.092 214.612 172.321" stroke="#263238" stroke-width="0.421023" stroke-linecap="round" stroke-linejoin="round"/>
    <path d="M192.76 238.888C192.76 238.888 199.564 247.336 201.585 251.634" stroke="#263238" stroke-width="0.421023" stroke-linecap="round" stroke-linejoin="round"/>
    <path d="M232.327 201.918C231.189 208.626 229.667 226.968 229.161 230.255" stroke="#263238" stroke-width="0.421023" stroke-linecap="round" stroke-linejoin="round"/>
    <path d="M234.501 189.268C234.693 195.343 233.222 198.503 233.222 198.503" stroke="#263238" stroke-width="0.421023" stroke-linecap="round" stroke-linejoin="round"/>
    <path d="M182.195 104.257L229.085 116.625C229.085 116.625 212.604 166.642 209.26 172.845L203.67 216.447C203.67 216.447 173.715 215.13 159.94 210.967C159.94 210.967 168.65 165.561 169.117 159.505C169.584 153.448 182.195 104.257 182.195 104.257Z" fill="#FF66C4"/>
    <mask id="mask1_391_3000" style="mask-type:luminance" maskUnits="userSpaceOnUse" x="159" y="104" width="71" height="113">
        <path d="M182.195 104.257L229.085 116.625C229.085 116.625 212.604 166.642 209.26 172.845L203.67 216.447C203.67 216.447 173.715 215.13 159.94 210.967C159.94 210.967 168.65 165.561 169.117 159.505C169.584 153.448 182.195 104.257 182.195 104.257Z" fill="white"/>
    </mask>
    <g mask="url(#mask1_391_3000)">
        <path opacity="0.2" d="M172.11 156.819L182.445 112.634C182.445 112.634 186.889 110.428 188.61 108.414L222.204 117.968C222.204 117.968 222.306 121.262 224.231 123.372L207.277 172.225L203.165 208.236C203.165 208.236 197.697 208.671 197.173 212.713C197.173 212.713 179.446 213.672 167.557 210.538C167.557 210.538 166.156 206.17 164.014 203.408L172.11 156.819Z" fill="black" fill-opacity="0.7"/>
        <path d="M172.11 156.819L182.445 112.634C182.445 112.634 186.889 110.428 188.61 108.414L222.204 117.968C222.204 117.968 222.306 121.262 224.231 123.372L207.277 172.225L203.165 208.236C203.165 208.236 197.697 208.671 197.173 212.713C197.173 212.713 179.446 213.672 167.557 210.538C167.557 210.538 166.156 206.17 164.014 203.408L172.11 156.819Z" stroke="#263238" stroke-width="0.421023" stroke-linecap="round" stroke-linejoin="round"/>
        <path d="M180.712 159.115C180.712 159.115 183.762 147.603 194.506 149.669C205.25 151.735 199.181 165.919 199.181 165.919C199.181 165.919 199.245 177.366 190.528 175.787C182.969 174.418 178.94 170.268 180.712 159.115Z" fill="#FF66C4" stroke="#263238" stroke-width="0.421023" stroke-linecap="round" stroke-linejoin="round"/>
        <path d="M186.532 116.836C186.532 116.836 183.283 129.991 182.445 132.523" stroke="#263238" stroke-width="0.421023" stroke-linecap="round" stroke-linejoin="round"/>
        <path d="M189.313 117.974L187.42 125.188" stroke="#263238" stroke-width="0.421023" stroke-linecap="round" stroke-linejoin="round"/>
        <path d="M213.033 123.033L219.499 125.31L218.789 127.337H216.768L212.464 126.326L213.033 123.033Z" fill="#FF66C4" stroke="#263238" stroke-width="0.421023" stroke-linecap="round" stroke-linejoin="round"/>
        <path d="M211.959 127.337L216.768 128.853L217.778 129.863L216.768 132.523L211.198 130.624L211.959 127.337Z" fill="#FF66C4" stroke="#263238" stroke-width="0.421023" stroke-linecap="round" stroke-linejoin="round"/>
        <path d="M211.198 131.89L216.768 133.425L215.981 135.433H213.033L210.315 134.295L211.198 131.89Z" fill="#FF66C4" stroke="#263238" stroke-width="0.421023" stroke-linecap="round" stroke-linejoin="round"/>
        <path d="M210.315 135.433L214.613 137.205V138.465L213.538 139.481L209.535 138.343V136.188L210.315 135.433Z" fill="#FF66C4" stroke="#263238" stroke-width="0.421023" stroke-linecap="round" stroke-linejoin="round"/>
        <path d="M213.98 141.144V143.114C214.013 143.331 213.995 143.552 213.927 143.761C213.86 143.97 213.744 144.16 213.59 144.316C213.431 144.403 213.253 144.448 213.072 144.448C212.891 144.448 212.712 144.403 212.554 144.316C212.227 144.163 211.914 143.932 211.607 143.798C210.603 143.395 209.369 143.9 208.409 143.363C208.409 142.142 207.981 140.204 209.49 140.166C209.74 140.185 213.98 141.592 213.98 141.144Z" fill="#FF66C4" stroke="#263238" stroke-width="0.421023" stroke-linecap="round" stroke-linejoin="round"/>
        <path d="M212.208 146.075C212.16 146.526 212.079 146.972 211.965 147.411C211.824 147.981 211.549 148.614 210.98 148.767C210.674 148.818 210.359 148.792 210.066 148.69L206.472 147.744C206.645 147.071 206.859 146.409 207.111 145.761C207.597 145.052 207.431 145.064 208.282 145.007C209.663 144.949 210.788 146.248 212.208 146.075Z" fill="#FF66C4" stroke="#263238" stroke-width="0.421023" stroke-linecap="round" stroke-linejoin="round"/>
        <path d="M200.07 118.863L197.915 127.337L198.989 127.842L201.586 119.49L200.07 118.863Z" fill="#FF66C4" stroke="#263238" stroke-width="0.421023" stroke-linecap="round" stroke-linejoin="round"/>
        <path d="M173.063 175.768L179.702 177.488L179.164 179.56L177.15 179.739L172.776 179.093L173.063 175.768Z" fill="#FF66C4" stroke="#263238" stroke-width="0.421023" stroke-linecap="round" stroke-linejoin="round"/>
        <path d="M172.36 180.148L177.278 181.248L178.378 182.169L177.598 184.906L171.887 183.487L172.36 180.148Z" fill="#FF66C4" stroke="#263238" stroke-width="0.421023" stroke-linecap="round" stroke-linejoin="round"/>
        <path d="M171.995 184.753L177.674 185.802L177.06 187.867L174.125 188.123L171.317 187.221L171.995 184.753Z" fill="#FF66C4" stroke="#263238" stroke-width="0.421023" stroke-linecap="round" stroke-linejoin="round"/>
        <path d="M171.413 188.353L175.852 189.754L175.96 191.014L174.976 192.114L170.889 191.321L170.704 189.178L171.413 188.353Z" fill="#FF66C4" stroke="#263238" stroke-width="0.421023" stroke-linecap="round" stroke-linejoin="round"/>
        <path d="M175.551 193.732L175.724 195.695C175.776 195.909 175.777 196.132 175.727 196.347C175.677 196.561 175.578 196.761 175.436 196.929C175.285 197.029 175.112 197.089 174.932 197.104C174.752 197.118 174.571 197.087 174.406 197.013C174.067 196.891 173.767 196.686 173.415 196.584C172.385 196.264 171.196 196.872 170.218 196.418C170.102 195.203 169.52 193.31 171.017 193.163C171.247 193.15 175.589 194.179 175.551 193.732Z" fill="#FF66C4" stroke="#263238" stroke-width="0.421023" stroke-linecap="round" stroke-linejoin="round"/>
        <path d="M174.215 198.797C174.205 199.262 174.163 199.726 174.087 200.184C173.991 200.76 173.773 201.419 173.223 201.617C172.921 201.694 172.604 201.694 172.302 201.617L168.644 200.977C168.767 200.29 168.932 199.611 169.137 198.944C169.559 198.196 169.393 198.221 170.237 198.093C171.58 197.895 172.808 199.091 174.215 198.797Z" fill="#FF66C4" stroke="#263238" stroke-width="0.421023" stroke-linecap="round" stroke-linejoin="round"/>
        <path d="M200.703 205.007C200.703 205.007 202.225 188.034 202.225 186.326" stroke="#263238" stroke-width="0.421023" stroke-linecap="round" stroke-linejoin="round"/>
        <path d="M197.666 204.245C197.666 204.245 198.305 195.42 198.42 193.885" stroke="#263238" stroke-width="0.421023" stroke-linecap="round" stroke-linejoin="round"/>
        <path d="M185.803 197.87L183.75 207.916H185.803L187.293 197.87H185.803Z" fill="#FF66C4" stroke="#263238" stroke-width="0.421023" stroke-linecap="round" stroke-linejoin="round"/>
        <path opacity="0.2" d="M209.369 172.596C204.93 171.668 200.972 170.306 198.043 168.343C198.043 168.343 200.166 174.444 207.693 184.842L203.645 216.447C203.645 216.447 184.095 215.59 169.322 213.064C173.863 200.274 182.112 176.036 181.134 171.233C179.81 164.64 184.485 156.857 184.485 156.857C199.264 154.197 213.596 143.024 223.432 133.579C218.424 148.383 211.588 168.209 209.369 172.596Z" fill="black" fill-opacity="0.7"/>
    </g>
    <path d="M182.195 104.257L229.085 116.625C229.085 116.625 212.604 166.642 209.26 172.845L203.67 216.447C203.67 216.447 173.715 215.13 159.94 210.967C159.94 210.967 168.65 165.561 169.117 159.505C169.584 153.448 182.195 104.257 182.195 104.257Z" stroke="#263238" stroke-width="0.421023" stroke-linecap="round" stroke-linejoin="round"/>
    <path d="M208.191 203.823L201.585 251.634C200.114 248.506 196.105 243.173 194.033 240.506C193.265 239.508 192.753 238.888 192.753 238.888L191.583 237.085C185.514 228.483 185.514 218.366 184.504 209.764C183.493 201.163 183.743 201.918 183.998 194.294C184.184 188.573 183.932 182.845 183.244 177.162C182.739 172.097 181.728 163.188 183.244 159.038C183.986 157.004 185.322 155.738 186.998 155.469C188.673 155.201 190.835 155.968 193.067 158.079C197.409 162.229 199.181 179.279 199.181 181.383C199.181 183.487 199.181 190.061 200.703 192.593C200.703 192.561 204.783 200.28 208.191 203.823Z" fill="white"/>
    <path opacity="0.4" d="M191.084 233.676C192.466 235.441 193.406 237.986 194.033 240.506C193.265 239.508 192.753 238.888 192.753 238.888L191.583 237.085C185.514 228.483 185.514 218.366 184.504 209.765C183.493 201.163 183.743 201.918 183.998 194.295C184.184 188.573 183.932 182.845 183.244 177.162C182.739 172.097 181.728 163.188 183.244 159.038C183.986 157.004 185.322 155.738 186.998 155.469C190.195 156.377 193.393 159.633 194.506 165.203C196.424 174.553 187.772 167 185.77 174.924C183.768 182.847 186.678 184.983 187.874 186.978C189.07 188.974 187.541 193.374 185.77 199.283C183.998 205.192 187.292 228.822 191.084 233.676Z" fill="#FF66C4"/>
    <path d="M208.192 203.823C204.777 200.28 200.703 192.561 200.703 192.561C199.181 190.003 199.181 183.455 199.181 181.351C199.181 179.247 197.409 162.197 193.067 158.047C188.725 153.896 184.753 154.849 183.244 159.006C181.735 163.163 182.739 172.065 183.244 177.13C183.936 182.824 184.191 188.562 184.005 194.295C183.749 201.918 183.493 201.163 184.51 209.765C185.527 218.366 185.521 228.483 191.59 237.085L192.76 238.888C192.76 238.888 199.565 247.336 201.585 251.634" stroke="#263238" stroke-width="0.421023" stroke-linecap="round" stroke-linejoin="round"/>
    <path d="M185.802 183.589C185.802 183.589 191.602 180.59 194.506 180.845" stroke="#263238" stroke-width="0.421023" stroke-linecap="round" stroke-linejoin="round"/>
    <path opacity="0.2" d="M97.2218 101.577C97.2218 101.577 82.5512 85.4229 81.5408 84.4317C80.5304 83.4404 79.7693 66.2118 76.981 58.6271C74.1927 51.0424 72.8434 6.50632 72.8434 6.50632C72.8434 6.50632 70.1894 3.2192 62.707 4.99067C55.2246 6.76213 47.8893 3.46861 39.5436 8.27779C31.1979 13.087 47.3841 81.8736 47.3841 81.8736L63.8134 134.231L97.2218 101.577Z" fill="black" fill-opacity="0.7"/>
    <path d="M107.301 101.699C107.301 101.699 100.727 143.696 93.8709 149.26C89.9123 152.457 83.7409 153.928 78.2666 153.736C74.3016 153.596 70.6947 152.598 68.5715 150.788C63.5129 146.484 56.4207 144.207 52.8905 141.426C49.3604 138.644 49.3476 128.776 47.0709 120.424C44.7942 112.072 41.5007 111.822 40.7461 103.476C39.9915 95.1308 36.9473 69.582 31.4475 62.4897C25.9476 55.3975 25.8197 49.84 23.543 42.6263C21.2663 35.4125 4.61328 9.31374 4.61328 9.31374L45.2099 1C45.2099 1 49.2005 17.5188 53.4725 30.9934C55.4998 37.3886 57.591 43.1059 59.3433 46.0349C62.708 51.7004 65.6225 57.6213 68.0599 63.7432C72.6517 68.5524 75.165 79.2067 75.926 88.5373L86.7978 94.6C95.1563 96.883 107.301 101.699 107.301 101.699Z" fill="white"/>
    <path opacity="0.4" d="M107.301 101.699C107.301 101.699 100.726 143.696 93.8708 149.26C89.9122 152.457 83.7409 153.928 78.2666 153.736C65.2844 150.539 61.7926 143.299 60.0339 141.547C57.6933 139.213 54.6172 124.99 56.3055 116.715C57.9938 108.439 56.7788 105.376 55.3846 101.334C52.2957 92.3808 61.7158 87.5589 62.6879 84.1694C63.66 80.78 63.3274 61.8246 59.0874 55.6597C56.8363 52.3789 51.0359 35.4701 53.4788 31.0062C55.5061 37.4014 57.5973 43.1187 59.3496 46.0477C62.7143 51.7132 65.6288 57.6341 68.0663 63.756C72.658 68.5652 75.1713 79.2195 75.9323 88.5501L86.8042 94.6127C95.1563 96.883 107.301 101.699 107.301 101.699Z" fill="#13A9FF"/>
    <path d="M57.7254 98.744C57.7254 98.744 55.4359 101.436 53.415 101.436" stroke="#263238" stroke-width="0.421023" stroke-linecap="round" stroke-linejoin="round"/>
    <path d="M62.7072 107.844C62.7072 107.844 60.2451 113.076 56.312 114.24" stroke="#263238" stroke-width="0.421023" stroke-linecap="round" stroke-linejoin="round"/>
    <path d="M58.3328 138.503C58.3328 138.503 63.903 136.098 64.7855 132.05" stroke="#263238" stroke-width="0.421023" stroke-linecap="round" stroke-linejoin="round"/>
    <path d="M86.8106 94.6063C86.8106 94.6063 85.4165 96.3778 85.4165 97.8039" stroke="#263238" stroke-width="0.421023" stroke-linecap="round" stroke-linejoin="round"/>
    <path d="M45.2355 1C45.2355 1 53.9202 36.9218 59.3689 46.0605C62.7335 51.7259 65.648 57.6469 68.0855 63.7688C72.6772 68.5779 75.1906 79.2387 75.9516 88.5693L86.8234 94.6319C95.1691 96.9086 107.288 101.718 107.288 101.718C107.288 101.718 100.714 143.715 93.8581 149.279C87.0025 154.843 73.6813 155.073 68.5651 150.775C63.449 146.478 56.4143 144.195 52.8841 141.413C49.354 138.631 49.3412 128.763 47.0645 120.411C44.7878 112.059 41.4943 111.809 40.7397 103.464C39.9851 95.118 36.9409 69.5692 31.4411 62.4769C25.9412 55.3847 25.8133 49.8273 23.5366 42.6135C21.2599 35.3997 4.61328 9.31374 4.61328 9.31374" stroke="#263238" stroke-width="0.421023" stroke-linecap="round" stroke-linejoin="round"/>
    <path d="M122.681 98.9742L55.5381 202.327L71.3854 204.092L119.535 206.094L124.465 114.163L122.681 98.9742Z" fill="#263238" stroke="#263238" stroke-width="0.421023" stroke-linecap="round" stroke-linejoin="round"/>
    <path d="M122.681 98.9679L116.478 204.329L55.5381 202.327L60.3473 121.594L61.8437 96.5249L88.3965 97.5929L122.681 98.9679Z" fill="#757575"/>
    <mask id="mask2_391_3000" style="mask-type:luminance" maskUnits="userSpaceOnUse" x="55" y="96" width="68" height="109">
        <path d="M122.681 98.9679L116.478 204.329L55.5381 202.327L60.3473 121.594L61.8437 96.5249L88.3965 97.5929L122.681 98.9679Z" fill="white"/>
    </mask>
    <g mask="url(#mask2_391_3000)">
        <path d="M107.359 192.197C111.456 192.197 114.777 188.876 114.777 184.779C114.777 180.681 111.456 177.36 107.359 177.36C103.262 177.36 99.9402 180.681 99.9402 184.779C99.9402 188.876 103.262 192.197 107.359 192.197Z" fill="#BFBFBF" stroke="#263238" stroke-width="0.421023" stroke-miterlimit="10"/>
        <path d="M105.267 179.854L110.294 180.513" stroke="#263238" stroke-width="0.421023" stroke-linecap="round" stroke-linejoin="round"/>
        <path d="M103.918 181.076L111.471 181.811" stroke="#263238" stroke-width="0.421023" stroke-linecap="round" stroke-linejoin="round"/>
        <path d="M103.08 188.52L110.639 189.255" stroke="#263238" stroke-width="0.421023" stroke-linecap="round" stroke-linejoin="round"/>
        <path d="M106.387 182.758C106.594 182.809 106.814 182.779 107 182.673C107.185 182.567 107.323 182.393 107.384 182.188L107.947 182.246L107.378 187.586L106.54 187.496L106.975 183.423L106.335 183.352L106.387 182.758Z" fill="#263238"/>
        <path d="M109.181 182.981C109.514 182.981 109.667 183.231 109.629 183.583V183.647L109.303 183.615V183.557C109.303 183.404 109.264 183.333 109.156 183.32C109.047 183.308 108.976 183.365 108.964 183.519C108.951 183.672 109.002 183.806 109.207 184.024C109.311 184.112 109.392 184.223 109.444 184.349C109.497 184.475 109.518 184.611 109.507 184.746C109.469 185.098 109.277 185.277 108.938 185.239C108.599 185.201 108.452 184.983 108.484 184.638V184.503L108.804 184.535V184.695C108.804 184.849 108.849 184.913 108.957 184.926C109.066 184.938 109.143 184.887 109.156 184.734C109.168 184.58 109.117 184.446 108.912 184.228C108.809 184.141 108.727 184.029 108.675 183.903C108.623 183.778 108.601 183.642 108.612 183.506C108.657 183.122 108.855 182.917 109.181 182.981Z" fill="#263238"/>
        <path d="M109.782 183.071L110.844 183.18L110.806 183.493L110.448 183.455L110.249 185.322L109.91 185.29L110.109 183.416L109.75 183.378L109.782 183.071Z" fill="#263238"/>
        <path d="M91.8044 103.645L79.9079 101.049C79.6008 100.982 79.2975 101.177 79.2305 101.484L77.612 108.9C77.545 109.207 77.7397 109.511 78.0468 109.578L89.9432 112.174C90.2504 112.241 90.5537 112.046 90.6207 111.739L92.2391 104.322C92.3061 104.015 92.1115 103.712 91.8044 103.645Z" fill="white" stroke="#263238" stroke-width="0.421023" stroke-linecap="round" stroke-linejoin="round"/>
        <path d="M81.9951 108.362L81.9504 108.318C81.9504 108.318 81.9504 108.241 81.9184 108.209C81.8879 108.18 81.864 108.145 81.8481 108.107C81.8453 108.094 81.8453 108.081 81.8481 108.068C81.8481 108.068 81.88 108.068 81.8992 108.024C81.915 108.014 81.9283 108.001 81.9383 107.985C81.9483 107.97 81.9546 107.952 81.9568 107.934C81.9543 107.923 81.9543 107.913 81.9568 107.902H81.9951C81.9951 107.78 81.9184 107.691 81.8417 107.595C81.6562 107.365 81.6178 107.25 81.6562 107.096C81.6946 106.943 81.7585 106.898 81.8672 106.917C81.976 106.936 82.0207 107.013 81.9887 107.167V107.256L82.3085 107.326V107.256C82.3517 107.143 82.3499 107.018 82.3035 106.906C82.2571 106.794 82.1697 106.704 82.0591 106.655L82.0975 106.501L81.8225 106.438L81.7905 106.597C81.5411 106.597 81.3812 106.757 81.3173 107.045C81.2928 107.174 81.3018 107.307 81.3432 107.431C81.3846 107.555 81.4571 107.667 81.5539 107.755C81.7393 107.979 81.7777 108.107 81.7393 108.254C81.701 108.401 81.6306 108.452 81.5219 108.426C81.4132 108.401 81.362 108.33 81.394 108.183L81.4324 108.011L81.1126 107.94V108.087C81.0862 108.146 81.0717 108.209 81.07 108.273C81.0683 108.337 81.0794 108.4 81.1026 108.46C81.1258 108.519 81.1608 108.574 81.2053 108.62C81.2499 108.665 81.3031 108.702 81.362 108.727V108.88L81.637 108.944L81.669 108.785H81.8353C81.8856 108.767 81.9314 108.739 81.9696 108.701C82.0086 108.662 82.041 108.617 82.0655 108.567C81.9951 108.401 81.9951 108.382 81.9951 108.362Z" fill="#263238"/>
        <path d="M83.754 108.26C83.7512 108.209 83.7381 108.159 83.7157 108.113C83.7094 108.088 83.7094 108.061 83.7157 108.036C83.7255 108.017 83.7411 108.001 83.7604 107.991C83.9331 107.838 83.7221 107.633 83.5558 107.595C83.4983 107.581 83.4381 107.581 83.381 107.597C83.3239 107.613 83.2717 107.643 83.2296 107.684L83.3639 107.186L83.9523 107.314L84.0162 107.007L83.1337 106.815C83.1151 106.858 83.1022 106.903 83.0953 106.949C83.0953 106.994 83.1529 107.007 83.1529 107.058C83.1529 107.109 83.1529 107.102 83.1529 107.128C83.1646 107.166 83.1896 107.197 83.2232 107.218C83.2552 107.218 83.2872 107.275 83.2808 107.314C83.2852 107.326 83.2852 107.339 83.2808 107.352C83.2566 107.411 83.2139 107.46 83.1593 107.493C83.1341 107.497 83.1115 107.511 83.0953 107.531V107.569C83.0953 107.614 83.0442 107.64 83.0058 107.665C82.9674 107.691 82.8715 107.895 82.8331 108.036L83.1529 108.107V108.043C83.1849 107.889 83.268 107.851 83.3703 107.87C83.4726 107.889 83.5366 107.966 83.4982 108.119L83.3959 108.593C83.3959 108.74 83.2872 108.784 83.1785 108.759C83.0698 108.733 83.0186 108.669 83.0506 108.516L83.0953 108.318L82.7756 108.247L82.7372 108.426C82.7124 108.496 82.7027 108.57 82.7088 108.643C82.7148 108.716 82.7365 108.788 82.7723 108.852C82.8081 108.917 82.8572 108.973 82.9164 109.016C82.9755 109.06 83.0434 109.091 83.1154 109.107C83.1874 109.122 83.2619 109.122 83.334 109.107C83.406 109.091 83.4739 109.061 83.5331 109.017C83.5924 108.973 83.6416 108.917 83.6775 108.853C83.7133 108.788 83.7351 108.717 83.7412 108.644C83.7639 108.517 83.7683 108.388 83.754 108.26Z" fill="#263238"/>
        <path d="M87.93 109.155C87.924 109.105 87.9111 109.055 87.8916 109.008C87.8854 108.983 87.8854 108.957 87.8916 108.932C87.9014 108.912 87.9171 108.897 87.9364 108.887C88.1026 108.733 87.8916 108.529 87.7317 108.49C87.6742 108.476 87.614 108.477 87.5569 108.492C87.4998 108.508 87.4477 108.538 87.4056 108.58L87.5399 108.081L88.1282 108.209L88.1922 107.902L87.3096 107.71C87.2882 107.752 87.2751 107.798 87.2713 107.844C87.2713 107.889 87.3224 107.902 87.3288 107.953C87.3352 108.004 87.3288 107.998 87.3288 108.023C87.3405 108.061 87.3655 108.093 87.3992 108.113C87.4311 108.113 87.4631 108.171 87.4567 108.209C87.4503 108.247 87.4567 108.209 87.4567 108.247C87.4322 108.308 87.3868 108.358 87.3288 108.388C87.3062 108.395 87.2861 108.408 87.2713 108.426C87.2713 108.426 87.2713 108.426 87.2713 108.465C87.2713 108.503 87.2265 108.535 87.1881 108.561C87.1498 108.586 87.0538 108.791 87.0155 108.932L87.3352 109.002V108.938C87.3672 108.784 87.4503 108.746 87.5527 108.765C87.655 108.784 87.7125 108.861 87.6806 109.015L87.5782 109.488C87.5782 109.635 87.4695 109.68 87.3608 109.654C87.2521 109.629 87.2009 109.565 87.2329 109.411L87.2777 109.213L86.9579 109.143L86.9195 109.322C86.9002 109.389 86.8949 109.459 86.9039 109.529C86.913 109.598 86.9361 109.665 86.972 109.725C87.0079 109.785 87.0557 109.837 87.1125 109.878C87.1694 109.919 87.2339 109.948 87.3023 109.963C87.3707 109.978 87.4414 109.978 87.5101 109.965C87.5788 109.951 87.6439 109.924 87.7015 109.884C87.7592 109.844 87.808 109.793 87.8451 109.734C87.8822 109.675 87.9067 109.608 87.9172 109.539C87.9428 109.413 87.9471 109.283 87.93 109.155Z" fill="#263238"/>
        <path d="M84.483 107.627C84.515 107.474 84.5981 107.429 84.7004 107.454C84.7333 107.459 84.7635 107.475 84.7857 107.499C84.8079 107.524 84.8208 107.556 84.822 107.589H84.9307C84.9344 107.607 84.942 107.625 84.9531 107.64C84.9641 107.656 84.9783 107.669 84.9946 107.678C85.033 107.71 85.0842 107.729 85.1289 107.761C85.15 107.694 85.1566 107.623 85.1483 107.553C85.14 107.483 85.117 107.416 85.0807 107.355C85.0445 107.295 84.9958 107.243 84.938 107.203C84.8802 107.162 84.8145 107.135 84.7452 107.122C84.6747 107.098 84.5997 107.091 84.526 107.101C84.4523 107.111 84.3819 107.137 84.3201 107.179C84.2583 107.22 84.2069 107.275 84.1697 107.34C84.1326 107.404 84.1106 107.476 84.1057 107.55C84.1027 107.591 84.1027 107.631 84.1057 107.672C84.1057 107.774 84.1057 107.742 84.208 107.78C84.3103 107.819 84.3423 107.87 84.2528 107.902H84.3103C84.3103 107.902 84.3103 107.947 84.3103 107.966C84.3103 107.985 84.3103 107.998 84.2784 108.024C84.2842 108.04 84.2842 108.058 84.2784 108.075C84.2784 108.075 84.2272 108.158 84.2144 108.171C84.1957 108.202 84.1693 108.229 84.1377 108.247C84.0545 108.299 84.0162 108.247 83.9906 108.375C83.965 108.503 83.9586 108.516 83.9458 108.58C83.9213 108.65 83.9118 108.724 83.9182 108.798C83.9245 108.872 83.9465 108.944 83.9826 109.009C84.0187 109.074 84.0681 109.13 84.1277 109.174C84.1872 109.219 84.2555 109.25 84.3279 109.266C84.4004 109.282 84.4754 109.282 84.548 109.267C84.6207 109.252 84.6892 109.221 84.7492 109.177C84.8092 109.134 84.8593 109.078 84.8961 109.014C84.9328 108.949 84.9555 108.878 84.9627 108.804L85.065 108.356H85.0266C84.9508 108.322 84.878 108.281 84.8092 108.235L84.7516 108.183L84.6237 108.759C84.6237 108.912 84.5086 108.957 84.4063 108.932C84.304 108.906 84.2464 108.836 84.2784 108.682L84.4638 107.812C84.4596 107.758 84.4731 107.705 84.5022 107.659L84.483 107.627Z" fill="#263238"/>
        <path d="M86.0562 108.682H86.0881C86.0881 108.65 86.0881 108.618 86.0881 108.573H86.2288L86.3375 108.081C86.3621 108.011 86.3715 107.937 86.3652 107.863C86.3589 107.789 86.3369 107.717 86.3008 107.652C86.2647 107.587 86.2152 107.531 86.1557 107.487C86.0962 107.442 86.0279 107.411 85.9554 107.395C85.883 107.379 85.808 107.379 85.7353 107.394C85.6627 107.409 85.5941 107.44 85.5341 107.483C85.4741 107.527 85.4241 107.583 85.3873 107.647C85.3505 107.712 85.3278 107.783 85.3207 107.857V107.947C85.3655 107.985 85.3911 108.049 85.4358 108.081C85.4806 108.113 85.5509 108.081 85.5317 108.19C85.5126 108.298 85.4934 108.279 85.5317 108.311C85.5701 108.343 85.5765 108.311 85.5829 108.356C85.5907 108.366 85.5949 108.378 85.5949 108.391C85.5949 108.404 85.5907 108.416 85.5829 108.426C85.5829 108.426 85.5381 108.426 85.5317 108.484C85.5254 108.541 85.5318 108.58 85.4934 108.593C85.455 108.605 85.3719 108.516 85.3015 108.522C85.2763 108.53 85.2535 108.544 85.2355 108.563C85.2176 108.582 85.205 108.605 85.1992 108.631C85.1666 108.74 85.1431 108.851 85.1288 108.964C85.1055 109.031 85.0974 109.103 85.1051 109.174C85.1128 109.245 85.1361 109.314 85.1734 109.375C85.2107 109.436 85.261 109.488 85.3207 109.528C85.3804 109.567 85.4481 109.593 85.519 109.603C85.5916 109.623 85.6677 109.626 85.7418 109.613C85.8158 109.599 85.886 109.57 85.9474 109.526C86.0041 109.477 86.0517 109.419 86.0881 109.354C86.1169 109.321 86.1328 109.279 86.1328 109.235C86.1328 109.192 86.1169 109.15 86.0881 109.117H86.0562L86.0114 108.964C86.0114 108.964 86.0114 108.964 86.0562 108.925C86.1009 108.887 86.0562 108.804 86.1201 108.759C86.1841 108.714 86.0434 108.695 86.0562 108.682ZM85.7876 109.117C85.7556 109.271 85.6724 109.315 85.5637 109.29C85.455 109.264 85.4038 109.194 85.4358 109.04L85.6916 107.889C85.7236 107.736 85.8003 107.691 85.9091 107.717C86.0178 107.742 86.069 107.812 86.037 107.966L85.7876 109.117Z" fill="#263238"/>
        <path d="M86.6255 109.475L86.5552 109.801L86.229 109.731L86.2994 109.405L86.6255 109.475Z" fill="#263238"/>
        <path d="M89.2985 108.906C89.3369 108.906 89.3369 108.759 89.3497 108.708C89.3742 108.638 89.3836 108.563 89.3773 108.489C89.371 108.415 89.349 108.344 89.3129 108.279C89.2768 108.214 89.2273 108.158 89.1678 108.113C89.1083 108.069 89.04 108.038 88.9676 108.022C88.8951 108.006 88.8201 108.006 88.7475 108.021C88.6748 108.036 88.6063 108.066 88.5463 108.11C88.4863 108.154 88.4362 108.21 88.3994 108.274C88.3626 108.339 88.3399 108.41 88.3328 108.484L88.2369 108.912C88.32 108.989 88.2369 109.111 88.2753 109.2C88.3137 109.29 88.2753 109.2 88.2753 109.239C88.2753 109.277 88.1793 109.296 88.1793 109.347C88.1793 109.347 88.1282 109.424 88.0962 109.462C88.076 109.493 88.065 109.528 88.0642 109.565C88.0397 109.635 88.0302 109.709 88.0366 109.783C88.0429 109.857 88.0649 109.929 88.101 109.994C88.1371 110.058 88.1866 110.115 88.2461 110.159C88.3056 110.203 88.3739 110.234 88.4463 110.25C88.5188 110.266 88.5938 110.267 88.6665 110.252C88.7391 110.236 88.8076 110.206 88.8676 110.162C88.9276 110.119 88.9777 110.063 89.0145 109.998C89.0513 109.934 89.074 109.862 89.0811 109.789L89.1578 109.437C89.1578 109.347 89.2729 109.111 89.1578 109.04C89.0427 108.97 89.1067 109.04 89.0939 108.996C89.086 108.981 89.0819 108.964 89.0819 108.948C89.0819 108.931 89.086 108.914 89.0939 108.9C89.1706 108.836 89.2282 108.944 89.2985 108.906ZM88.9084 109.469C88.9084 109.507 88.8444 109.52 88.8125 109.571C88.7879 109.635 88.7728 109.701 88.7677 109.769C88.7357 109.923 88.6526 109.961 88.5503 109.942C88.4479 109.923 88.384 109.846 88.4224 109.693C88.4224 109.648 88.4799 109.52 88.4671 109.482C88.4543 109.443 88.4032 109.482 88.3776 109.405C88.3584 109.338 88.3584 109.267 88.3776 109.2C88.3807 109.185 88.3807 109.17 88.3776 109.155C88.3776 109.155 88.3456 109.098 88.3776 109.072C88.3776 109.072 88.3776 108.989 88.3776 108.932C88.5822 109.008 88.5758 108.695 88.6078 108.567C88.6398 108.439 88.7229 108.369 88.8253 108.394C88.9276 108.42 88.9851 108.49 88.9532 108.637C88.9098 108.768 88.8839 108.903 88.8764 109.04C88.9031 109.044 88.9277 109.057 88.9462 109.077C88.9648 109.097 88.9762 109.122 88.9787 109.149C88.9723 109.183 88.9723 109.218 88.9787 109.251C88.9787 109.251 88.9787 109.309 88.9787 109.334C88.9787 109.36 88.9404 109.334 88.9148 109.334C88.8971 109.341 88.8814 109.353 88.8692 109.367C88.8569 109.382 88.8484 109.399 88.8445 109.418L88.9084 109.469Z" fill="#263238"/>
        <path d="M85.7236 104.257L87.8852 104.73" stroke="#263238" stroke-width="0.421023" stroke-linecap="round" stroke-linejoin="round"/>
        <path d="M80.8123 103.182L84.6494 104.026" stroke="#263238" stroke-width="0.421023" stroke-linecap="round" stroke-linejoin="round"/>
        <path d="M80.4924 104.666L83.0249 105.216" stroke="#263238" stroke-width="0.421023" stroke-linecap="round" stroke-linejoin="round"/>
        <path opacity="0.4" d="M58.333 201.393C61.6936 200.514 65.1494 200.05 68.6229 200.012C74.8646 199.858 78.8552 201.042 83.9713 198.509C89.0875 195.977 92.4066 200.536 97.2989 198.004C102.191 195.471 104.461 191.417 107.288 191.506C110.115 191.596 114.323 146.299 115.679 138.503C117.034 130.707 119.919 108.976 120.91 104.564L115.34 202.775L58.333 201.393Z" fill="white"/>
        <path d="M58.6017 182.067L74.1996 201.041L57.7256 200.018L58.6017 182.067Z" fill="#13A9FF" stroke="#263238" stroke-width="0.421023" stroke-linecap="round" stroke-linejoin="round"/>
        <path d="M99.9976 144.546L99.7482 151.767C99.7135 152.774 99.4807 153.765 99.0631 154.682C98.6455 155.6 98.0512 156.426 97.3142 157.113C96.5772 157.801 95.7119 158.337 94.7678 158.69C93.8237 159.043 92.8192 159.207 91.8118 159.172L84.3934 158.91C83.3832 158.875 82.3897 158.641 81.4701 158.222C80.5505 157.802 79.7229 157.205 79.0348 156.465C78.3467 155.724 77.8116 154.855 77.4603 153.907C77.109 152.959 76.9484 151.952 76.9877 150.942L77.3203 141.541C77.392 139.507 78.2683 137.585 79.7566 136.198C81.2448 134.81 83.2232 134.071 85.2567 134.141L92.6751 134.397C92.8798 134.397 93.0844 134.397 93.3147 134.442C92.2766 135.44 91.6213 136.771 91.4629 138.203C91.3044 139.635 91.6528 141.076 92.4474 142.278C93.2419 143.479 94.4325 144.364 95.8119 144.779C97.1914 145.193 98.6725 145.111 99.9976 144.546Z" fill="#13A9FF" stroke="#263238" stroke-width="0.421023" stroke-linecap="round" stroke-linejoin="round"/>
        <path d="M101.334 138.311C101.311 139.005 101.083 139.677 100.678 140.241C100.273 140.805 99.7096 141.237 99.0595 141.481C98.4093 141.725 97.7013 141.771 97.0251 141.612C96.3488 141.454 95.7348 141.099 95.2605 140.591C94.7863 140.084 94.4731 139.447 94.3607 138.762C94.2483 138.077 94.3417 137.373 94.6291 136.741C94.9165 136.109 95.3849 135.576 95.9751 135.21C96.5653 134.844 97.2509 134.661 97.945 134.685C98.8746 134.718 99.7532 135.119 100.388 135.798C101.024 136.478 101.364 137.381 101.334 138.311Z" fill="#13A9FF" stroke="#263238" stroke-width="0.421023" stroke-linecap="round" stroke-linejoin="round"/>
        <path opacity="0.4" d="M79.0981 151.837L90.0019 142.513C90.0019 142.513 88.6206 137.518 90.0019 135.938H84.7643C83.5029 135.934 82.2876 136.412 81.3664 137.273C80.4453 138.135 79.8879 139.316 79.808 140.575L79.0981 151.837Z" fill="white"/>
        <path opacity="0.4" d="M96.3397 138.503L98.674 135.945C98.674 135.945 97.2223 134.966 96.3397 135.945C95.4572 136.923 96.3397 138.503 96.3397 138.503Z" fill="white"/>
        <path d="M95.2014 194.211L112.782 194.972" stroke="#263238" stroke-width="0.421023" stroke-linecap="round" stroke-linejoin="round"/>
        <path d="M89.1133 195.983L112.782 197.249" stroke="#263238" stroke-width="0.421023" stroke-linecap="round" stroke-linejoin="round"/>
        <path d="M106.585 201.041H112.782" stroke="#263238" stroke-width="0.421023" stroke-linecap="round" stroke-linejoin="round"/>
        <path opacity="0.2" d="M85.0392 136.469C75.9709 140.831 66.1478 125.553 62.7072 123.449C61.859 122.913 61.0682 122.292 60.3474 121.594L61.8439 96.5249L88.3903 97.5929C88.2176 101.328 88.2752 105.453 89.1066 107.825C90.8972 112.999 94.1012 132.114 85.0392 136.469Z" fill="black" fill-opacity="0.7"/>
        <path opacity="0.4" d="M74.8774 137.249C74.8774 137.249 82.1296 140.396 85.4167 138.528C88.7038 136.661 92.2468 133.093 92.752 125.169C92.752 125.169 97.0687 136.329 88.3649 139.673C79.661 143.018 74.8774 137.249 74.8774 137.249Z" fill="white"/>
        <path opacity="0.4" d="M72.0508 141.713C72.0508 141.713 86.7597 145.666 93.0526 138.516C93.0526 138.516 92.2084 142.487 85.4167 143.632C78.625 144.777 72.0508 141.713 72.0508 141.713Z" fill="white"/>
        <path opacity="0.4" d="M95.7066 116.164C94.5874 114.176 95.9624 132.05 95.9624 132.05C95.9624 132.05 97.9833 120.245 95.7066 116.164Z" fill="white"/>
    </g>
    <path d="M122.681 98.9679L116.478 204.329L55.5381 202.327L60.3473 121.594L61.8437 96.5249L88.3965 97.5929L122.681 98.9679Z" stroke="#263238" stroke-width="0.421023" stroke-linecap="round" stroke-linejoin="round"/>
    <path opacity="0.4" d="M119.599 204.891L117.38 204.329L122.681 107.844L123.621 114.214L119.599 204.891Z" fill="white"/>
    <path d="M85.0392 136.469C84.2006 136.915 83.2681 137.155 82.3185 137.169C81.369 137.184 80.4295 136.972 79.5778 136.552C78.1035 135.779 76.9141 134.556 76.1819 133.061C73.6558 128.507 66.8194 118.134 65.5595 115.154C64.2997 112.174 61.5113 103.745 58.7294 100.209C55.9475 96.672 54.4255 91.3512 54.4255 91.3512L53.415 39.7421C54.9307 47.2052 59.1068 55.6789 59.1068 55.6789C62.735 57.5668 65.8178 60.3546 68.06 63.7752C68.7127 64.4702 69.2973 65.2262 69.8059 66.0327C73.9372 72.4279 75.9389 83.9392 76.1563 92.8925C76.4121 103.016 79.6993 107.601 85.0137 116.42C90.3281 125.239 88.4926 134.506 85.0392 136.469Z" fill="white"/>
    <path opacity="0.4" d="M85.0391 136.469C84.197 136.904 83.2657 137.138 82.3181 137.152C81.3705 137.167 80.4324 136.962 79.5776 136.552C82.481 135.759 86.2925 134.269 85.4164 132.076C84.0414 128.571 80.0188 133.771 77.998 132.076C75.9771 130.381 68.6354 120.66 73.2975 116.382C77.9596 112.104 76.4951 104.928 73.2975 102.907C70.0999 100.887 72.1783 96.071 73.1888 88.4927C73.8283 83.9073 71.6347 73.5215 69.8313 66.0264C73.9626 72.4216 75.9643 83.9329 76.1817 92.8861C76.4375 103.01 79.7247 107.595 85.0391 116.414C90.3535 125.233 88.4925 134.628 85.0391 136.469Z" fill="#13A9FF"/>
    <path d="M53.415 39.7101C54.9307 47.1733 59.1068 55.6469 59.1068 55.6469C62.735 57.5348 65.8178 60.3226 68.06 63.7432C73.3744 69.307 75.9069 82.7177 76.1563 92.8349C76.4057 102.952 79.6993 107.544 85.0137 116.363C90.3281 125.182 88.8508 134.378 85.0137 136.469C82.3405 137.934 78.6888 137.614 76.1563 133.061C73.6238 128.507 66.7938 118.134 65.5339 115.154C64.2741 112.174 61.4858 103.745 58.7039 100.209C55.922 96.672 54.3999 91.3512 54.3999 91.3512" stroke="#263238" stroke-width="0.421023" stroke-linecap="round" stroke-linejoin="round"/>
    <path d="M69.8442 114.214C69.8442 114.214 73.9755 113.843 75.8685 112.295" stroke="#263238" stroke-width="0.421023" stroke-linecap="round" stroke-linejoin="round"/>
    <path d="M52.9097 92.368C52.9097 92.368 52.1039 94.2866 56.3247 96.2052" stroke="#263238" stroke-width="0.421023" stroke-linecap="round" stroke-linejoin="round"/>
</svg>