<svg width="191" height="178" viewBox="0 0 191 178" fill="none" xmlns="http://www.w3.org/2000/svg">
    <path d="M34.5249 87.5011C32.2639 90.6468 29.1523 93.0281 25.5835 94.3438C22.0148 95.6595 18.1492 95.8505 14.4756 94.8927C10.8019 93.9349 7.48522 91.8713 4.94485 88.9627C2.40448 86.0542 0.754526 82.4315 0.203625 78.5526C-0.347276 74.6737 0.225616 70.7128 1.84986 67.1708C3.47411 63.6289 6.07676 60.6649 9.32871 58.6536C12.5807 56.6424 16.3359 55.6742 20.1195 55.8716C23.9031 56.0689 27.5453 57.4229 30.5853 59.7624L30.6238 59.7933C34.6911 62.9326 37.3869 67.6151 38.1185 72.8112C38.8501 78.0072 37.5575 83.2912 34.5249 87.5011Z" fill="#EBEBEB"/>
    <path d="M30.8759 84.6754C29.1548 87.074 26.7851 88.8906 24.0665 89.8955C21.3478 90.9003 18.4023 91.0483 15.6023 90.3207C12.8024 89.5931 10.2738 88.0225 8.33638 85.8077C6.39895 83.5929 5.13965 80.8333 4.71776 77.8778C4.29586 74.9223 4.73031 71.9037 5.96616 69.2037C7.20201 66.5038 9.18376 64.2437 11.6608 62.7093C14.1378 61.175 16.9989 60.4352 19.8822 60.5836C22.7655 60.732 25.5415 61.7619 27.8592 63.5431H27.8849C30.9864 65.9321 33.0438 69.4983 33.6048 73.4572C34.1657 77.416 33.1841 81.4434 30.8759 84.6533V84.6754Z" fill="#F5F5F5"/>
    <path d="M31.1451 84.2952C31.0724 84.2421 31.4057 83.6761 31.8885 82.6016C32.5678 81.0998 33.0162 79.4974 33.2174 77.8524C33.5155 75.4271 33.2353 72.9631 32.4013 70.6756C31.9073 69.3415 31.2357 68.0854 30.4059 66.9435C29.9653 66.3418 29.4795 65.777 28.9531 65.2544C27.8704 64.1738 26.6286 63.2782 25.2741 62.6012C23.9816 61.9493 22.6017 61.5021 21.1807 61.2746C20.5119 61.168 19.8364 61.1118 19.1597 61.1066C17.9046 61.0897 16.6525 61.2383 15.4337 61.5488C14.372 61.8334 13.3433 62.2367 12.3658 62.7516C10.9449 63.5129 9.64739 64.4991 8.52023 65.6745C7.71266 66.5102 7.31101 67.032 7.23837 67.001C7.16573 66.9701 7.46483 66.351 8.19549 65.3959C9.25143 64.0556 10.5396 62.9309 11.9941 62.0794C13.7328 61.0526 15.6548 60.4016 17.6437 60.166C19.6326 59.9304 21.647 60.115 23.565 60.7086C24.3199 60.943 25.0557 61.2387 25.7655 61.593C26.4953 61.9597 27.1967 62.384 27.8635 62.8621C28.5252 63.348 29.1508 63.8846 29.735 64.4673C30.2994 65.0372 30.8195 65.6522 31.2903 66.3068C32.4813 67.9654 33.336 69.8562 33.803 71.8653C34.27 73.8745 34.3397 75.9606 34.0079 77.9983C33.7339 79.7082 33.1542 81.3503 32.2987 82.8403C31.6578 83.853 31.2006 84.335 31.1451 84.2952Z" fill="#E0E0E0"/>
    <path d="M15.2927 83.8751L13.8015 86.002L11.9642 84.6312L13.417 82.5618C11.6779 81.0804 10.3448 79.1834 9.90894 77.6048L12.5453 76.0438C13.0655 77.598 13.9682 78.985 15.1646 80.0678L17.3907 76.8929C15.7072 74.8499 13.9212 72.4356 15.8269 69.7161C17.2412 67.6997 19.869 67.032 23.0138 68.8671L24.4922 66.7578L26.3296 68.1374L24.8768 70.2069C26.1408 71.2752 27.1411 72.6393 27.7952 74.1866L25.2314 75.836C24.7261 74.667 23.9997 73.6145 23.095 72.7407L20.8304 75.9731C22.5395 77.9983 24.2743 80.395 22.3943 83.0482C21.0312 85.0159 18.4333 85.6792 15.2927 83.8751ZM19.3477 74.0894L21.2406 71.3876C20.1083 70.8835 19.3349 71.1488 18.8948 71.7767C18.4547 72.4046 18.7239 73.2138 19.3477 74.0894ZM19.2964 81.045C19.7622 80.3773 19.4844 79.6168 18.8948 78.7368L17.0532 81.3634C18.1214 81.8454 18.8691 81.6508 19.2964 81.045Z" fill="#E0E0E0"/>
    <path d="M149.546 143.805C147.584 146.535 144.884 148.602 141.788 149.743C138.691 150.885 135.337 151.051 132.149 150.22C128.961 149.389 126.083 147.598 123.879 145.074C121.674 142.551 120.243 139.407 119.765 136.041C119.287 132.675 119.784 129.238 121.193 126.165C122.603 123.091 124.861 120.519 127.683 118.774C130.505 117.029 133.763 116.189 137.047 116.36C140.33 116.532 143.49 117.707 146.128 119.737L146.162 119.763C149.691 122.488 152.03 126.551 152.664 131.059C153.299 135.568 152.177 140.152 149.546 143.805Z" fill="#EBEBEB"/>
    <path d="M146.38 141.356C144.884 143.434 142.826 145.007 140.465 145.876C138.105 146.744 135.55 146.868 133.121 146.234C130.693 145.599 128.501 144.233 126.822 142.309C125.144 140.385 124.054 137.989 123.692 135.424C123.329 132.859 123.71 130.241 124.785 127.9C125.86 125.558 127.582 123.6 129.733 122.272C131.884 120.943 134.367 120.305 136.868 120.437C139.37 120.569 141.777 121.465 143.786 123.013H143.808C145.142 124.042 146.267 125.333 147.118 126.812C147.969 128.291 148.531 129.929 148.77 131.632C149.008 133.336 148.92 135.072 148.51 136.74C148.1 138.409 147.376 139.977 146.38 141.356Z" fill="#F5F5F5"/>
    <path d="M146.615 141.024C146.551 140.975 146.841 140.484 147.256 139.551C147.845 138.248 148.235 136.858 148.41 135.43C148.526 134.453 148.537 133.465 148.444 132.485C148.334 131.363 148.084 130.26 147.7 129.204C147.497 128.634 147.251 128.081 146.965 127.55C146.674 126.994 146.341 126.461 145.97 125.958C145.587 125.436 145.165 124.946 144.709 124.49C144.235 124.027 143.731 123.597 143.201 123.204C142.664 122.82 142.102 122.477 141.518 122.178C140.397 121.613 139.199 121.226 137.967 121.032C137.386 120.94 136.799 120.891 136.211 120.887C134.162 120.861 132.138 121.357 130.318 122.332C129.083 122.993 127.955 123.848 126.973 124.866C126.272 125.591 125.922 126.042 125.862 125.994C125.802 125.945 126.058 125.432 126.691 124.605C127.606 123.435 128.725 122.453 129.989 121.709C130.864 121.187 131.797 120.776 132.767 120.484C133.886 120.149 135.045 119.974 136.211 119.962C136.841 119.953 137.471 119.994 138.095 120.086C138.749 120.18 139.395 120.328 140.026 120.528C142.039 121.151 143.876 122.269 145.38 123.787C145.868 124.284 146.32 124.817 146.73 125.384C147.125 125.93 147.476 126.508 147.782 127.113C148.078 127.682 148.332 128.273 148.542 128.881C148.93 130.022 149.167 131.212 149.247 132.419C149.314 133.462 149.261 134.51 149.089 135.541C148.846 137.025 148.337 138.45 147.589 139.742C147.055 140.639 146.658 141.055 146.615 141.024Z" fill="#E0E0E0"/>
    <path d="M132.861 140.657L131.579 142.505L129.981 141.307L131.241 139.507C129.733 138.225 128.579 136.576 128.199 135.209L130.485 133.856C130.937 135.205 131.721 136.408 132.758 137.349L134.689 134.59C133.232 132.821 131.698 130.725 133.335 128.364C134.561 126.595 136.843 126.034 139.569 127.63L140.851 125.795L142.445 126.993L141.184 128.793C142.281 129.713 143.15 130.891 143.718 132.229L141.496 133.657C141.064 132.643 140.439 131.728 139.659 130.969L137.693 133.776C139.163 135.545 140.684 137.601 139.052 139.927C137.834 141.648 135.582 142.222 132.861 140.657ZM136.377 132.167L138.018 129.823C137.035 129.381 136.364 129.615 135.98 130.159C135.595 130.703 135.835 131.411 136.377 132.167ZM136.33 138.203C136.736 137.624 136.493 136.965 135.98 136.2L134.386 138.477C135.309 138.919 135.963 138.729 136.33 138.203Z" fill="#E0E0E0"/>
    <path d="M49.057 25.6163C48.6684 27.8144 47.6587 29.8439 46.1555 31.4482C44.6523 33.0524 42.7231 34.1593 40.612 34.6288C38.5009 35.0984 36.3027 34.9095 34.2953 34.0861C32.288 33.2627 30.5616 31.8417 29.3346 30.0029C28.1077 28.1641 27.4352 25.9901 27.4022 23.7557C27.3692 21.5213 27.9772 19.327 29.1493 17.4503C30.3214 15.5735 32.005 14.0986 33.9871 13.2121C35.9692 12.3256 38.1608 12.0673 40.2848 12.4699H40.3104C41.7189 12.7386 43.0625 13.2918 44.2644 14.0979C45.4663 14.904 46.5029 15.9473 47.3151 17.1681C48.1274 18.3889 48.6992 19.7633 48.9981 21.2128C49.297 22.6624 49.317 24.1587 49.057 25.6163Z" fill="#EBEBEB"/>
    <path d="M46.5018 25.1255C46.2052 26.8004 45.4354 28.3467 44.2896 29.5689C43.1438 30.791 41.6736 31.6341 40.0648 31.9915C38.456 32.3488 36.7809 32.2045 35.2514 31.5766C33.7219 30.9488 32.4067 29.8657 31.472 28.4642C30.5373 27.0628 30.0252 25.406 30.0005 23.7034C29.9757 22.0007 30.4393 20.3287 31.3328 18.8988C32.2263 17.4689 33.5094 16.3452 35.0199 15.67C36.5305 14.9948 38.2006 14.7983 39.819 15.1054C41.9851 15.5191 43.9037 16.8061 45.1529 18.6835C46.4021 20.5609 46.8796 22.8749 46.4805 25.1166L46.5018 25.1255Z" fill="#F5F5F5"/>
    <path d="M46.5487 24.8602C46.4988 24.5089 46.4874 24.1529 46.5145 23.7989C46.495 22.8546 46.3335 21.9192 46.0359 21.0264C45.8315 20.4074 45.5606 19.814 45.2283 19.2576C44.8487 18.6302 44.3919 18.0565 43.8696 17.5507C43.2952 16.991 42.6445 16.5217 41.9382 16.1578C41.5657 15.9666 41.1801 15.804 40.7846 15.6714C40.3762 15.539 39.9593 15.4371 39.5369 15.3663C39.1123 15.303 38.684 15.2705 38.255 15.269C37.8386 15.2734 37.4231 15.3089 37.0116 15.3751C36.6149 15.44 36.2235 15.5361 35.8409 15.6626C35.4729 15.7811 35.1143 15.929 34.7684 16.1048C33.5503 16.7144 32.4965 17.6257 31.7004 18.7579C31.15 19.5165 30.7175 20.3595 30.4186 21.2563C30.3408 21.6009 30.2277 21.9359 30.081 22.2556C30.0386 21.8958 30.0722 21.5307 30.1793 21.1855C30.393 20.2219 30.7769 19.3074 31.3116 18.4882C32.107 17.2538 33.1998 16.2555 34.4821 15.5918C34.8525 15.3967 35.2367 15.2311 35.6315 15.0966C36.0415 14.9544 36.4615 14.845 36.8877 14.7693C37.3368 14.6897 37.791 14.6439 38.2465 14.6323C38.7083 14.6307 39.1696 14.6647 39.6266 14.734C40.0828 14.8089 40.5327 14.9197 40.9726 15.0656C41.3997 15.2107 41.8154 15.3896 42.216 15.6007C42.6028 15.8033 42.973 16.0384 43.3226 16.3037C43.6598 16.5525 43.9771 16.829 44.2712 17.1306C44.8182 17.6833 45.291 18.3094 45.677 18.9923C46.0068 19.5891 46.2705 20.2225 46.4632 20.8804C46.7359 21.8273 46.8359 22.8185 46.758 23.8033C46.7575 24.1666 46.6863 24.526 46.5487 24.8602Z" fill="#E0E0E0"/>
    <path d="M38.3405 28.778L38.0969 30.2593L36.8151 30.0338L37.0501 28.5923C35.9269 28.3542 34.8907 27.7951 34.0591 26.9783L35.0248 25.4925C35.6691 26.1514 36.4691 26.624 37.3449 26.8633L37.7081 24.6523C36.3536 24.0465 34.8538 23.2771 35.1658 21.389C35.3965 19.9916 36.5758 18.9658 38.6311 19.0851L38.8703 17.6171L40.1522 17.8426L39.9129 19.2841C40.8164 19.4981 41.6582 19.9299 42.3698 20.5444L41.464 22.0567C40.9233 21.59 40.2989 21.2384 39.6266 21.0219L39.2549 23.2683C40.6137 23.8608 42.0878 24.6258 41.7802 26.483C41.5494 27.8671 40.3829 28.8841 38.3405 28.778ZM38.0286 22.7244L38.3405 20.8495C37.6355 20.8893 37.3065 21.2254 37.2338 21.6631C37.1612 22.1009 37.4987 22.437 38.0286 22.7244ZM39.6993 26.2929C39.7762 25.8507 39.4472 25.5146 38.9302 25.2228L38.6311 27.0402C39.2933 27.0048 39.6309 26.7041 39.6993 26.2885V26.2929Z" fill="#E0E0E0"/>
    <path d="M190.198 177.881C190.198 177.947 150.679 178 101.942 178C53.2059 178 13.6819 177.934 13.6819 177.881C13.6819 177.828 53.1888 177.766 101.942 177.766C150.696 177.766 190.198 177.819 190.198 177.881Z" fill="#263238"/>
    <path d="M65.8535 38.6696C65.8535 38.6696 66.2253 18.8549 50.3857 8.79065H100.588C100.588 8.79065 114.94 20.8271 115.06 38.6696H65.8535Z" fill="#EBEBEB"/>
    <path d="M96.7593 16.0161C96.7593 16.0824 91.0251 16.1355 83.9407 16.1355C76.8563 16.1355 71.1221 16.0824 71.1221 16.0161C71.1221 15.9498 76.8563 15.9011 83.9407 15.9011C91.0251 15.9011 96.7593 15.9542 96.7593 16.0161Z" fill="#455A64"/>
    <path d="M102.237 19.6023C102.237 19.6642 94.64 19.7173 85.2696 19.7173C75.8992 19.7173 68.302 19.6642 68.302 19.6023C68.302 19.5404 75.8992 19.4829 85.2696 19.4829C94.64 19.4829 102.237 19.536 102.237 19.6023Z" fill="#263238"/>
    <path d="M105.091 28.6673C105.091 28.7292 97.4943 28.7823 88.1239 28.7823C78.7535 28.7823 71.1521 28.7292 71.1521 28.6673C71.1521 28.6054 78.7493 28.5524 88.1239 28.5524C97.4986 28.5524 105.091 28.6054 105.091 28.6673Z" fill="#263238"/>
    <path d="M87.3591 23.728C87.1301 23.764 86.8985 23.7803 86.6669 23.7766L84.7698 23.812C83.1674 23.8341 80.9584 23.8474 78.5143 23.8474C76.0702 23.8474 73.8611 23.8474 72.2588 23.812L70.3616 23.7766C70.13 23.7803 69.8985 23.764 69.6694 23.728C69.8986 23.6935 70.1301 23.6787 70.3616 23.6838L72.2588 23.6484C73.8611 23.6484 76.0702 23.613 78.5143 23.613C80.9584 23.613 83.1674 23.613 84.7698 23.6484L86.6669 23.6838C86.8984 23.6787 87.13 23.6935 87.3591 23.728Z" fill="#263238"/>
    <path d="M102.237 23.728C102.068 23.7641 101.896 23.7804 101.724 23.7766L100.323 23.812C99.1435 23.8341 97.507 23.8474 95.7039 23.8474C93.9007 23.8474 92.2642 23.8474 91.0849 23.812L89.6834 23.7766C89.5113 23.7804 89.3393 23.7641 89.1707 23.728C89.3397 23.6957 89.5115 23.6809 89.6834 23.6838L91.0849 23.6484C92.2642 23.6484 93.9007 23.613 95.7039 23.613C97.507 23.613 99.1222 23.613 100.323 23.6484L101.724 23.6838C101.896 23.6787 102.068 23.6936 102.237 23.728Z" fill="#263238"/>
    <path d="M90.5082 33.527C90.2777 33.5631 90.0447 33.5794 89.8117 33.5756L87.9188 33.611C86.3165 33.611 84.1031 33.6463 81.6633 33.6463C79.2235 33.6463 77.0059 33.6464 75.4036 33.611L73.5107 33.5756C73.2776 33.5794 73.0447 33.5631 72.8142 33.527C73.0448 33.4923 73.2777 33.4775 73.5107 33.4827L75.4036 33.4474C77.0059 33.4474 79.2192 33.412 81.6633 33.412C84.1074 33.412 86.3165 33.412 87.9188 33.4474L89.8117 33.4827C90.0446 33.4775 90.2776 33.4923 90.5082 33.527Z" fill="#263238"/>
    <path d="M105.386 33.527C105.218 33.5631 105.046 33.5794 104.873 33.5756L103.472 33.611C102.288 33.611 100.656 33.6463 98.8529 33.6463C97.0498 33.6463 95.4346 33.6464 94.2297 33.611L92.8282 33.5756C92.656 33.5794 92.484 33.5631 92.3154 33.527C92.4845 33.4947 92.6563 33.4799 92.8282 33.4827L94.2297 33.4474C95.4133 33.4474 97.0455 33.412 98.8529 33.412C100.66 33.412 102.271 33.412 103.472 33.4474L104.873 33.4827C105.045 33.4799 105.217 33.4947 105.386 33.527Z" fill="#263238"/>
    <path d="M55.5901 38.108H129.656L133.69 170.898C133.717 171.789 133.574 172.677 133.27 173.511C132.966 174.345 132.505 175.108 131.916 175.758C131.326 176.408 130.618 176.931 129.833 177.297C129.048 177.664 128.201 177.866 127.34 177.894H50.1166C49.0285 177.894 47.982 177.461 47.1938 176.685C46.4055 175.909 45.9359 174.849 45.8822 173.724L42.3229 98.7414C42.3229 98.7414 20.3561 90.4901 20.7278 65.3161C20.7278 65.3161 21.7277 38.108 55.5901 38.108Z" fill="#263238"/>
    <path d="M59.6109 177.695L56.3806 38.108H132.344L133.715 171.822C133.762 173.379 133.211 174.891 132.181 176.026C131.151 177.161 129.728 177.826 128.225 177.876H128.028L59.6109 177.695Z" fill="#455A64"/>
    <path d="M62.6575 46.1958L64.1957 111.189H126.063L125.229 46.1958H62.6575Z" fill="#263238"/>
    <path d="M69.5027 54.6062C72.5237 55.4508 76.3393 55.0926 79.4414 54.9379C79.6681 54.9379 79.8854 54.8447 80.0457 54.6788C80.206 54.513 80.296 54.288 80.296 54.0535C80.296 53.8189 80.206 53.594 80.0457 53.4281C79.8854 53.2623 79.6681 53.1691 79.4414 53.1691C76.3393 53.0099 72.5194 52.6517 69.5027 53.5007C69.3583 53.5448 69.2367 53.6464 69.1646 53.7832C69.0925 53.92 69.0758 54.0808 69.1182 54.2304C69.1457 54.3243 69.1952 54.4098 69.2623 54.4792C69.3294 54.5486 69.412 54.5998 69.5027 54.6283V54.6062Z" fill="#E0E0E0"/>
    <path d="M84.7226 54.478C87.688 55.2606 91.5208 55.1191 94.5502 54.8184C94.7769 54.8184 94.9942 54.7253 95.1545 54.5594C95.3148 54.3936 95.4048 54.1686 95.4048 53.9341C95.4048 53.6995 95.3148 53.4746 95.1545 53.3087C94.9942 53.1428 94.7769 53.0497 94.5502 53.0497C91.5208 52.7446 87.688 52.6075 84.7226 53.3902C84.6533 53.4119 84.5888 53.4476 84.5328 53.4951C84.4768 53.5427 84.4304 53.6012 84.3963 53.6673C84.3622 53.7334 84.341 53.8059 84.3339 53.8805C84.3269 53.9551 84.3341 54.0304 84.3552 54.1021C84.3811 54.192 84.4283 54.2739 84.4925 54.3403C84.5566 54.4067 84.6357 54.4555 84.7226 54.4824V54.478Z" fill="#E0E0E0"/>
    <path d="M99.7376 54.1994C101.229 54.6681 102.84 54.5885 104.386 54.6151C105.966 54.7124 107.55 54.6813 109.125 54.5222C109.898 54.4072 109.898 53.0143 109.125 52.9038C107.551 52.7409 105.966 52.7084 104.386 52.8065C102.84 52.833 101.229 52.7534 99.7376 53.2222C99.6352 53.2527 99.5451 53.3169 99.4811 53.405C99.417 53.4932 99.3823 53.6005 99.3823 53.7108C99.3823 53.8211 99.417 53.9284 99.4811 54.0165C99.5451 54.1047 99.6352 54.1688 99.7376 54.1994Z" fill="#E0E0E0"/>
    <path d="M113.65 54.2879C114.775 54.4573 115.91 54.5474 117.047 54.5576C118.175 54.5841 119.393 54.7743 120.487 54.4515C120.64 54.4034 120.775 54.3054 120.87 54.172C120.966 54.0386 121.018 53.8769 121.018 53.7108C121.018 53.5447 120.966 53.383 120.87 53.2496C120.775 53.1162 120.64 53.0182 120.487 52.9701C119.393 52.6473 118.175 52.8375 117.047 52.864C115.91 52.8735 114.775 52.9651 113.65 53.1382C113.531 53.176 113.427 53.2522 113.353 53.3557C113.279 53.4591 113.24 53.5844 113.24 53.713C113.24 53.8417 113.279 53.9669 113.353 54.0704C113.427 54.1738 113.531 54.2501 113.65 54.2879Z" fill="#E0E0E0"/>
    <path d="M82.146 118.919H64.217V132.18H82.146V118.919Z" fill="#13A9FF"/>
    <path d="M67.4601 118.919H64.217V132.18H67.4601V118.919Z" fill="#263238"/>
    <path d="M104.1 118.919H86.1711V132.18H104.1V118.919Z" fill="#13A9FF"/>
    <path d="M89.2304 118.919H85.9873V132.18H89.2304V118.919Z" fill="#263238"/>
    <path d="M126.058 118.919H108.129V132.18H126.058V118.919Z" fill="#13A9FF"/>
    <path d="M110.86 118.919H107.617V132.18H110.86V118.919Z" fill="#263238"/>
    <path d="M126.058 136.562H108.129V149.823H126.058V136.562Z" fill="#13A9FF"/>
    <path d="M111.471 136.562H108.129V149.823H111.471V136.562Z" fill="#263238"/>
    <path d="M82.146 136.562H64.217V149.823H82.146V136.562Z" fill="#13A9FF"/>
    <path d="M67.4601 136.536H64.217V149.797H67.4601V136.536Z" fill="#263238"/>
    <path d="M82.146 154.029H64.217V167.29H82.146V154.029Z" fill="#13A9FF"/>
    <path opacity="0.3" d="M82.146 154.029H64.217V167.29H82.146V154.029Z" fill="black"/>
    <path d="M67.4601 154.029H64.217V167.29H67.4601V154.029Z" fill="#263238"/>
    <path d="M104.002 136.562H86.0728V149.823H104.002V136.562Z" fill="#13A9FF"/>
    <path d="M89.3159 136.536H86.0728V149.797H89.3159V136.536Z" fill="#263238"/>
    <path d="M104.1 154.029H86.1711V167.29H104.1V154.029Z" fill="#13A9FF"/>
    <path opacity="0.3" d="M104.1 154.029H86.1711V167.29H104.1V154.029Z" fill="black"/>
    <path d="M89.4142 154.029H86.1711V167.29H89.4142V154.029Z" fill="#263238"/>
    <path d="M126.058 154.029H108.129V167.29H126.058V154.029Z" fill="#E0E0E0"/>
    <path d="M111.373 154.029H108.129V167.29H111.373V154.029Z" fill="#263238"/>
    <path d="M53.693 177.898C53.3854 177.898 52.2616 146.618 51.1806 108.032C50.0995 69.4463 49.4714 38.1258 49.7791 38.1169C50.0867 38.1081 51.2105 69.3888 52.2915 107.983C53.3726 146.578 54.0007 177.889 53.693 177.898Z" fill="#455A64"/>
    <path d="M125.969 103.787V106.17L133.061 107.997L133.023 104.322L125.969 103.787Z" fill="#455A64"/>
    <path d="M39.8661 99.0066C39.4779 98.8474 39.0611 98.7765 38.6441 98.7988C38.2243 98.8395 37.8125 98.9437 37.4221 99.1083L32.5681 100.789L23.0823 104.087L5.13626 110.278C4.42817 110.487 3.8196 110.96 3.42711 111.605C3.0382 112.236 2.89326 112.995 3.02119 113.732C3.09969 114.097 3.20248 114.456 3.32884 114.806L3.67494 115.876C3.90568 116.588 4.13214 117.291 4.36287 117.994C5.26302 120.792 6.14039 123.508 6.99496 126.144C8.70411 131.406 10.2765 136.314 11.725 140.776C14.6049 149.722 16.9422 156.965 18.5616 161.97C19.3649 164.473 19.9845 166.414 20.4118 167.719C20.6169 168.378 20.7792 168.877 20.8861 169.218C20.9929 169.558 21.0399 169.731 21.0399 169.731C21.0971 169.9 21.1701 170.063 21.2578 170.217C21.5042 170.678 21.8601 171.066 22.2918 171.345C22.6417 171.569 23.0324 171.716 23.4398 171.777C23.8471 171.838 24.2621 171.811 24.659 171.699C25.5905 171.389 26.6587 171 27.8679 170.584L45.7114 164.358L26.6801 102.849L36.2 99.5461L53.3898 154.055L52.6377 135.094C49.1767 124.424 45.438 112.887 41.5283 100.846C41.3957 100.434 41.1785 100.056 40.8916 99.7382C40.6047 99.4207 40.2549 99.1712 39.8661 99.0066ZM17.9292 127.028L13.682 113.117L15.122 112.644L19.3692 126.555L17.9292 127.028ZM20.8775 119.365L18.3992 111.255L19.8392 110.787L22.3175 118.892L20.8775 119.365ZM24.2018 129.651L21.7278 121.541L23.1678 121.072L25.6418 129.177L24.2018 129.651ZM25.0564 131.826L26.4963 131.353L33.3329 153.807L31.893 154.276L25.0564 131.826ZM34.0294 161.205L32.5638 156.408L34.0038 155.934L35.4693 160.737L34.0294 161.205ZM39.9559 158.658L38.5159 159.127L29.4702 129.5L30.9102 129.031L39.9559 158.658ZM30.171 126.197L28.731 126.666L23.484 109.495L24.9239 109.022L30.171 126.197Z" fill="#13A9FF"/>
    <path opacity="0.3" d="M39.8661 99.0066C39.4779 98.8474 39.0611 98.7765 38.6441 98.7988C38.2243 98.8395 37.8125 98.9437 37.4221 99.1083L32.5681 100.789L23.0823 104.087L5.13626 110.278C4.42817 110.487 3.8196 110.96 3.42711 111.605C3.0382 112.236 2.89326 112.995 3.02119 113.732C3.09969 114.097 3.20248 114.456 3.32884 114.806L3.67494 115.876C3.90568 116.588 4.13214 117.291 4.36287 117.994C5.26302 120.792 6.14039 123.508 6.99496 126.144C8.70411 131.406 10.2765 136.314 11.725 140.776C14.6049 149.722 16.9422 156.965 18.5616 161.97C19.3649 164.473 19.9845 166.414 20.4118 167.719C20.6169 168.378 20.7792 168.877 20.8861 169.218C20.9929 169.558 21.0399 169.731 21.0399 169.731C21.0971 169.9 21.1701 170.063 21.2578 170.217C21.5042 170.678 21.8601 171.066 22.2918 171.345C22.6417 171.569 23.0324 171.716 23.4398 171.777C23.8471 171.838 24.2621 171.811 24.659 171.699C25.5905 171.389 26.6587 171 27.8679 170.584L45.7114 164.358L26.6801 102.849L36.2 99.5461L53.3898 154.055L52.6377 135.094C49.1767 124.424 45.438 112.887 41.5283 100.846C41.3957 100.434 41.1785 100.056 40.8916 99.7382C40.6047 99.4207 40.2549 99.1712 39.8661 99.0066ZM17.9292 127.028L13.682 113.117L15.122 112.644L19.3692 126.555L17.9292 127.028ZM20.8775 119.365L18.3992 111.255L19.8392 110.787L22.3175 118.892L20.8775 119.365ZM24.2018 129.651L21.7278 121.541L23.1678 121.072L25.6418 129.177L24.2018 129.651ZM25.0564 131.826L26.4963 131.353L33.3329 153.807L31.893 154.276L25.0564 131.826ZM34.0294 161.205L32.5638 156.408L34.0038 155.934L35.4693 160.737L34.0294 161.205ZM39.9559 158.658L38.5159 159.127L29.4702 129.5L30.9102 129.031L39.9559 158.658ZM30.171 126.197L28.731 126.666L23.484 109.495L24.9239 109.022L30.171 126.197Z" fill="black"/>
    <path d="M45.7242 164.442L45.7028 164.371L27.8593 170.598C26.6501 171.013 25.5819 171.402 24.6504 171.712C24.2535 171.825 23.8384 171.851 23.4311 171.791C23.0238 171.73 22.633 171.582 22.2832 171.358C21.8514 171.079 21.4955 170.691 21.2492 170.231C21.0825 169.921 21.0441 169.74 21.0312 169.744L21.074 169.872C21.2979 170.501 21.7153 171.035 22.2618 171.393C22.6141 171.627 23.0099 171.782 23.4235 171.847C23.8372 171.913 24.2595 171.888 24.6632 171.774C25.6032 171.469 26.6714 171.088 27.8849 170.673L48.3648 163.598L53.223 161.917L53.693 161.67L45.7242 164.442Z" fill="#263238"/>
    <path d="M20.8774 169.227C20.7706 168.886 20.6082 168.387 20.4031 167.728C19.9759 166.401 19.3563 164.464 18.553 161.979C16.9421 156.974 14.6049 149.731 11.7164 140.785C10.2679 136.315 8.68694 131.415 6.98634 126.153C6.13176 123.523 5.2544 120.807 4.35425 118.003C4.12351 117.3 3.89705 116.597 3.66632 115.885L3.32021 114.815C3.19386 114.465 3.09107 114.106 3.01257 113.741C2.89092 113.001 3.04353 112.242 3.43986 111.614C3.83234 110.969 4.44091 110.496 5.149 110.287L23.095 104.096L32.5808 100.807L37.4348 99.1262C37.8253 98.9616 38.237 98.8573 38.6568 98.8166C39.2881 98.782 39.913 98.9627 40.4355 99.3309C40.958 99.6991 41.3494 100.235 41.5496 100.855C45.4507 112.896 49.1894 124.433 52.659 135.103L52.6291 134.387C49.2365 123.898 45.5703 112.587 41.7547 100.78C41.6109 100.338 41.3764 99.9342 41.0673 99.5953C40.7583 99.2564 40.382 98.9908 39.9643 98.8166C39.5481 98.6441 39.1002 98.5686 38.6526 98.5955C38.2126 98.637 37.7809 98.7442 37.3707 98.9139L32.521 100.599L23.0352 103.889L5.08918 110.115C4.33847 110.328 3.69033 110.821 3.26894 111.499C2.85816 112.173 2.70576 112.982 2.84165 113.767C2.923 114.141 3.02864 114.509 3.15785 114.868C3.27321 115.226 3.39285 115.58 3.50822 115.938C3.73468 116.646 3.96542 117.353 4.19188 118.052C5.10342 120.853 5.98506 123.569 6.83679 126.202L11.5839 140.816L18.4761 161.988C19.2965 164.482 19.9289 166.41 20.3604 167.737C20.5783 168.391 20.745 168.891 20.8561 169.231L21.0313 169.74C21.0313 169.74 20.9842 169.567 20.8774 169.227Z" fill="#263238"/>
    <path d="M30.895 129.039L29.4568 129.509L38.5043 159.133L39.9425 158.663L30.895 129.039Z" fill="#FAFAFA"/>
    <path d="M24.9221 109.022L23.4839 109.493L28.7313 126.674L30.1695 126.204L24.9221 109.022Z" fill="#FAFAFA"/>
    <path d="M19.8405 110.784L18.4023 111.255L20.8786 119.363L22.3168 118.892L19.8405 110.784Z" fill="#FAFAFA"/>
    <path d="M14.8546 112.226L13.4204 112.695L17.6521 126.559L19.0863 126.091L14.8546 112.226Z" fill="#FAFAFA"/>
    <path d="M34.0205 155.931L32.5823 156.401L34.0477 161.2L35.4859 160.729L34.0205 155.931Z" fill="#FAFAFA"/>
    <path d="M23.164 121.071L21.7258 121.542L24.2021 129.65L25.6403 129.179L23.164 121.071Z" fill="#FAFAFA"/>
    <path d="M26.4792 131.365L25.041 131.836L31.8981 154.288L33.3363 153.817L26.4792 131.365Z" fill="#FAFAFA"/>
    <path d="M26.6799 102.849L45.7027 164.372L45.7241 164.442L53.693 161.679L53.3896 154.046L36.1999 99.5463L26.6799 102.849Z" fill="#FAFAFA"/>
    <path d="M45.6174 168.117L53.3428 165.305L53.1761 161.798L45.7243 164.442L45.6174 168.117Z" fill="#263238"/>
    <path d="M143.022 66.3288C143.022 66.3907 142.782 66.4305 142.483 66.4173C142.184 66.404 141.954 66.3421 141.958 66.2758C141.962 66.2094 142.201 66.1741 142.496 66.1873C142.791 66.2006 143.026 66.2625 143.022 66.3288Z" fill="#263238"/>
    <path d="M147.205 66.1431C146.877 66.2858 146.522 66.3537 146.166 66.3421C145.817 66.4092 145.457 66.3987 145.111 66.3111C145.79 66.1033 146.503 66.046 147.205 66.1431Z" fill="#263238"/>
    <path d="M151.349 65.3781C151.042 65.5633 150.699 65.6793 150.345 65.7185C150.006 65.8295 149.648 65.8686 149.294 65.8335C149.941 65.5371 150.642 65.3864 151.349 65.3913V65.3781Z" fill="#263238"/>
    <path d="M155.345 64.056C155.064 64.2806 154.741 64.4418 154.396 64.5292C154.076 64.6888 153.726 64.7762 153.371 64.7856C153.65 64.5593 153.974 64.3979 154.319 64.3125C154.641 64.157 154.99 64.0697 155.345 64.056Z" fill="#263238"/>
    <path d="M159.135 62.1855C158.587 62.6496 157.953 62.9913 157.272 63.1893C157.523 62.9281 157.822 62.7221 158.152 62.5835C158.449 62.3818 158.784 62.2462 159.135 62.1855Z" fill="#263238"/>
    <path d="M162.626 59.7754C162.664 59.8241 162.314 60.1513 161.839 60.5051C161.574 60.75 161.263 60.9352 160.925 61.049C160.891 60.9959 161.241 60.6687 161.711 60.3149C162.181 59.9612 162.587 59.7224 162.626 59.7754Z" fill="#263238"/>
    <path d="M165.71 56.8305C165.757 56.8747 165.458 57.2727 165.048 57.6795C164.638 58.0864 164.266 58.4136 164.228 58.3649C164.189 58.3163 164.48 57.9227 164.89 57.5159C165.3 57.1091 165.663 56.773 165.71 56.8305Z" fill="#263238"/>
    <path d="M168.261 53.3858C168.317 53.4167 168.086 53.8279 167.753 54.3409C167.42 54.8538 167.108 55.2253 167.061 55.1678C167.167 54.816 167.339 54.4897 167.569 54.2082C167.903 53.7218 168.21 53.3504 168.261 53.3858Z" fill="#263238"/>
    <path d="M170.141 49.5034C169.996 50.2219 169.705 50.9002 169.287 51.4933C169.423 50.7717 169.715 50.0913 170.141 49.5034Z" fill="#263238"/>
    <path d="M171.252 45.3203C171.284 45.6864 171.242 46.0553 171.128 46.4037C171.087 46.7698 170.97 47.1225 170.787 47.4384C170.795 46.7061 170.953 45.9841 171.252 45.3203Z" fill="#263238"/>
    <path d="M171.68 41.0001C171.788 41.7238 171.743 42.4631 171.547 43.1669C171.46 42.8112 171.446 42.4408 171.504 42.0791C171.492 41.7109 171.552 41.3439 171.68 41.0001Z" fill="#263238"/>
    <path d="M171.471 36.6665C171.683 37.3649 171.745 38.1028 171.654 38.8288C171.518 38.49 171.449 38.1258 171.453 37.7587C171.388 37.3971 171.394 37.0257 171.471 36.6665Z" fill="#263238"/>
    <path d="M170.62 32.4126C170.808 32.7252 170.931 33.0744 170.983 33.4385C171.104 33.7852 171.153 34.1542 171.128 34.5219C170.941 34.2092 170.817 33.8601 170.765 33.496C170.647 33.1486 170.598 32.7802 170.62 32.4126Z" fill="#263238"/>
    <path d="M169.099 28.3667C169.336 28.641 169.515 28.9633 169.624 29.313C169.803 29.6329 169.912 29.9889 169.945 30.3566C169.71 30.0792 169.531 29.7559 169.419 29.4059C169.245 29.0859 169.136 28.7322 169.099 28.3667Z" fill="#263238"/>
    <path d="M166.86 24.692C166.907 24.6522 167.215 25.0193 167.552 25.5145C167.784 25.793 167.957 26.1183 168.061 26.4697C168.009 26.505 167.697 26.1336 167.368 25.6472C167.137 25.3687 166.964 25.0434 166.86 24.692Z" fill="#263238"/>
    <path d="M163.95 21.579C163.989 21.5303 164.377 21.7956 164.805 22.2069C165.232 22.6181 165.523 23.0073 165.48 23.0515C165.437 23.0957 165.078 22.7817 164.655 22.3749C164.232 21.9681 163.912 21.6276 163.95 21.579Z" fill="#263238"/>
    <path d="M161.339 19.713C161.369 19.66 161.6 19.744 161.852 19.9032C162.104 20.0624 162.279 20.2348 162.249 20.2879C162.22 20.3409 161.985 20.2569 161.737 20.1022C161.489 19.9474 161.305 19.7705 161.339 19.713Z" fill="#263238"/>
    <path d="M149.751 30.6351C157.926 30.6351 164.553 23.7772 164.553 15.3175C164.553 6.85789 157.926 0 149.751 0C141.577 0 134.95 6.85789 134.95 15.3175C134.95 23.7772 141.577 30.6351 149.751 30.6351Z" fill="#13A9FF"/>
    <path d="M140.996 16.4363L143.287 14.0662L147.705 18.1299L156.379 9.4939L158.507 11.864L147.38 22.7022L140.996 16.4363Z" fill="#FAFAFA"/>
    <path d="M158.387 82.1018L156.208 73.8373C156.208 73.8373 145.953 76.601 145.299 75.7431C141.577 70.9807 139.697 64.4363 139.112 62.0882C139.193 61.7522 139.304 61.3586 139.454 60.8987C139.584 60.5051 139.777 60.1373 140.026 59.8109C140.32 59.3952 140.668 59.0233 141.06 58.7055C141.167 58.6432 141.245 58.5398 141.278 58.418C141.311 58.2961 141.295 58.1657 141.235 58.0554C141.205 57.9938 141.161 57.9405 141.107 57.8998C141.052 57.8591 140.99 57.8321 140.924 57.8211C140.496 57.7901 139.42 58.4623 138.612 59.7402C137.804 61.0181 137.561 58.6303 137.458 57.7636C137.356 56.8969 136.907 54.226 136.625 54.0359C136.198 53.775 135.86 54.1863 135.984 55.0529C136.108 55.9196 136.3 58.5463 135.856 58.5905C135.412 58.6347 134.942 54.1686 134.942 54.1686C134.942 54.1686 134.989 53.2046 134.472 53.2267C133.536 53.2665 134.378 57.9449 134.472 58.3915C134.536 58.6966 134.044 58.7541 134.002 58.418C133.959 58.082 133.626 53.9961 132.677 53.9961C131.946 54.0226 133.331 57.852 132.942 58.7408C132.553 59.6296 132.177 55.7251 131.481 55.7781C131.224 55.7781 131.032 55.8489 131.562 58.0599C132.007 59.6359 132.535 61.1858 133.143 62.7029H133.104C133.104 62.7029 136.907 85.7941 146.777 84.5029C157.284 83.1587 158.387 82.1018 158.387 82.1018Z" fill="#FFBE9D"/>
    <path d="M143.496 105.012L80.8684 100.294C80.0194 100.232 79.2284 99.8259 78.668 99.1631C78.1076 98.5003 77.8234 97.635 77.8773 96.7561L80.6803 56.9367C80.7396 56.0581 81.1323 55.2395 81.7727 54.6595C82.4132 54.0796 83.2493 53.7854 84.0986 53.8413L146.777 58.5418C147.631 58.6041 148.425 59.0146 148.986 59.683C149.547 60.3513 149.828 61.2228 149.768 62.1059L146.965 101.925C146.936 102.362 146.824 102.789 146.635 103.181C146.446 103.573 146.185 103.923 145.865 104.211C145.546 104.498 145.175 104.718 144.773 104.857C144.372 104.996 143.948 105.051 143.526 105.021L143.496 105.012Z" fill="#13A9FF"/>
    <path d="M143.496 105.012C143.688 105.012 143.876 105.012 144.068 105.012C144.629 104.95 145.163 104.733 145.615 104.384C145.98 104.104 146.283 103.746 146.504 103.335C146.725 102.924 146.859 102.469 146.897 102C146.974 100.877 147.064 99.5817 147.162 98.1268L148.871 73.4658C149.051 70.8628 149.24 68.1374 149.439 65.2897C149.491 64.5822 149.538 63.8614 149.589 63.1406C149.709 62.4263 149.692 61.6945 149.538 60.9871C149.344 60.2825 148.922 59.6687 148.341 59.2493C148.05 59.036 147.727 58.8746 147.384 58.7718C147.031 58.6879 146.67 58.639 146.307 58.6258L127.417 57.2152L84.1372 53.9386C83.6739 53.9035 83.2089 53.9763 82.7764 54.1515C82.3438 54.3267 81.9547 54.6 81.6375 54.9512C81.3206 55.3003 81.0839 55.719 80.9453 56.1761C80.8254 56.6437 80.7622 57.125 80.7573 57.6088C80.6149 59.5721 80.4725 61.5207 80.33 63.4546C80.0452 67.3252 79.7774 71.134 79.5267 74.8808C78.9969 82.3715 78.4842 89.6014 77.997 96.4819C77.8853 97.3175 78.0871 98.1657 78.5611 98.852C79.0277 99.5279 79.729 99.9907 80.518 100.143C82.1118 100.307 83.727 100.395 85.2994 100.528L94.4647 101.222L110.924 102.478L134.749 104.309L141.223 104.822L142.932 104.972L143.504 105.025C143.504 105.025 143.312 105.025 142.932 104.994L141.223 104.879L134.745 104.415L110.911 102.646L94.4647 101.434L85.2951 100.749C83.7184 100.621 82.1332 100.537 80.4924 100.369C79.6523 100.208 78.9051 99.7165 78.4072 98.998C77.9082 98.2707 77.693 97.3752 77.8048 96.4907C78.2876 89.6058 78.7961 82.3804 79.3216 74.8852C79.5837 71.1384 79.85 67.3296 80.1207 63.459C80.2574 61.5222 80.3998 59.5736 80.5479 57.6132C80.5558 57.1116 80.6217 56.6128 80.7445 56.1274C80.9711 55.3885 81.4316 54.7501 82.0518 54.3153C82.672 53.8805 83.4157 53.6746 84.1628 53.7308L127.443 57.003L146.329 58.4357C146.703 58.4493 147.075 58.5012 147.44 58.5905C147.981 58.752 148.474 59.0511 148.875 59.4605C149.276 59.8698 149.571 60.3764 149.734 60.9341C149.837 61.2984 149.879 61.6783 149.858 62.0572C149.858 62.4287 149.811 62.7869 149.785 63.1539C149.734 63.8746 149.683 64.5954 149.632 65.3029C149.429 68.1477 149.236 70.8716 149.051 73.4746C148.303 83.8838 147.696 92.3076 147.277 98.1357C147.171 99.5905 147.076 100.877 146.995 102.005C146.953 102.483 146.812 102.946 146.582 103.362C146.352 103.779 146.039 104.139 145.662 104.419C145.204 104.769 144.661 104.981 144.094 105.034C143.952 105.047 143.809 105.047 143.667 105.034L143.496 105.012Z" fill="#263238"/>
    <path d="M84.9619 83.7467L84.6842 87.7265L84.2911 87.6955L84.5432 84.0916L83.6416 84.0253L83.6672 83.6627L84.9619 83.7467Z" fill="#FAFAFA"/>
    <path d="M88.6665 87.6602L88.6366 88.0228L85.949 87.8194V87.5319L87.6581 86.0373C88.1196 85.6261 88.2221 85.3696 88.2392 85.0954C88.2734 84.6533 87.9786 84.3305 87.3847 84.2862C87.1903 84.2573 86.9922 84.275 86.8055 84.3378C86.6188 84.4007 86.4486 84.5071 86.3079 84.6488L86.0472 84.3791C86.2322 84.1992 86.4536 84.0642 86.6953 83.9839C86.9369 83.9035 87.1929 83.88 87.4445 83.9148C88.2221 83.9723 88.6879 84.4189 88.6409 85.0822C88.6131 85.3235 88.5344 85.5555 88.4103 85.7618C88.2863 85.9681 88.1199 86.1437 87.923 86.2761L86.5301 87.501L88.6665 87.6602Z" fill="#FAFAFA"/>
    <path d="M92.7342 87.2842L91.9694 87.2267L91.8924 88.2703L91.4993 88.2393L91.572 87.1958L89.4099 87.0366V86.7403L91.6275 84.264L92.0548 84.295L89.9184 86.7094L91.5848 86.8376L91.6489 85.9178L92.0335 85.9444L91.9694 86.8641L92.7342 86.9216V87.2842Z" fill="#FAFAFA"/>
    <path d="M98.6094 87.7266L97.8446 87.6691L97.7677 88.7127L97.3746 88.6817L97.4472 87.6426L95.2852 87.479V87.1827L97.5028 84.7064L97.9301 84.7418L95.7936 87.1517L97.46 87.28L97.5241 86.3602L97.9087 86.3912L97.8403 87.3065L98.6094 87.364V87.7266Z" fill="#FAFAFA"/>
    <path d="M101.968 87.8547C101.921 88.5313 101.429 89.0221 100.494 88.9513C99.9878 88.9332 99.5085 88.7129 99.1562 88.3367L99.3699 88.0316C99.6679 88.3618 100.079 88.5586 100.515 88.5799C101.165 88.6285 101.532 88.3234 101.566 87.8414C101.6 87.3594 101.318 86.9924 100.344 86.9173L99.528 86.8554L99.8655 84.8832L101.964 85.0424L101.938 85.405L100.186 85.2723L99.9638 86.5237L100.459 86.5635C101.613 86.6475 102.019 87.1516 101.968 87.8547Z" fill="#FAFAFA"/>
    <path d="M105.758 88.1244C105.732 88.4499 105.582 88.7515 105.342 88.9636C105.102 89.1756 104.791 89.2809 104.476 89.2564H104.374C103.352 89.1812 102.852 88.4074 102.942 87.156C103.036 85.8073 103.797 85.1573 104.839 85.2369C105.156 85.2458 105.465 85.3436 105.732 85.5199L105.549 85.8382C105.333 85.6857 105.079 85.6013 104.818 85.595C103.989 85.5331 103.421 86.0372 103.344 87.1162V87.4434C103.469 87.2325 103.651 87.0641 103.867 86.9588C104.084 86.8536 104.325 86.816 104.562 86.8509C104.866 86.8401 105.162 86.9537 105.386 87.1672C105.61 87.3808 105.744 87.677 105.758 87.9917C105.762 88.0358 105.762 88.0803 105.758 88.1244ZM105.369 88.1244C105.408 87.6026 105.057 87.24 104.468 87.1958C104.353 87.1734 104.235 87.1746 104.121 87.1993C104.006 87.2241 103.898 87.2719 103.801 87.3401C103.705 87.4083 103.622 87.4955 103.559 87.5966C103.495 87.6978 103.451 87.811 103.429 87.9298C103.429 87.9298 103.429 87.9696 103.429 87.9873C103.395 88.4295 103.72 88.8717 104.382 88.9159C104.493 88.9356 104.606 88.9324 104.716 88.9065C104.826 88.8807 104.929 88.8327 105.021 88.7653C105.113 88.698 105.191 88.6125 105.25 88.5139C105.31 88.4153 105.351 88.3055 105.369 88.1907C105.371 88.1627 105.371 88.1347 105.369 88.1067V88.1244Z" fill="#FAFAFA"/>
    <path d="M111.001 88.5667C110.954 89.23 110.454 89.7031 109.527 89.6324C109.019 89.6144 108.539 89.3942 108.185 89.0177L108.398 88.7126C108.701 89.0419 109.114 89.2382 109.552 89.2609C110.189 89.3052 110.561 89.0266 110.595 88.5357C110.629 88.0449 110.326 87.7221 109.616 87.6514L109.343 87.6292L109.364 87.3286L110.522 86.0329L108.561 85.887L108.586 85.5244L111.052 85.7101L111.031 85.9976L109.847 87.3241C110.667 87.4524 111.043 87.9299 111.001 88.5667Z" fill="#FAFAFA"/>
    <path d="M114.846 88.8098C114.822 89.1369 114.674 89.4408 114.433 89.6547C114.193 89.8686 113.88 89.975 113.564 89.9507C113.526 89.955 113.487 89.955 113.449 89.9507C112.432 89.8755 111.928 89.1017 112.018 87.8503C112.112 86.5237 112.872 85.8515 113.915 85.9311C114.232 85.9401 114.54 86.0379 114.808 86.2141L114.624 86.5325C114.409 86.3781 114.155 86.2935 113.893 86.2893C113.064 86.2274 112.496 86.7315 112.419 87.8105V88.1377C112.544 87.9268 112.726 87.7584 112.943 87.6531C113.159 87.5478 113.4 87.5103 113.637 87.5451C113.945 87.532 114.245 87.6456 114.471 87.8612C114.698 88.0767 114.833 88.3765 114.846 88.6948C114.85 88.7331 114.85 88.7716 114.846 88.8098ZM114.457 88.8098C114.496 88.288 114.145 87.9254 113.556 87.8812C113.441 87.8588 113.323 87.86 113.209 87.8848C113.095 87.9095 112.986 87.9574 112.89 88.0255C112.793 88.0937 112.711 88.1809 112.647 88.2821C112.583 88.3833 112.539 88.4965 112.517 88.6152C112.517 88.6152 112.517 88.655 112.517 88.6727C112.483 89.1149 112.808 89.5571 113.47 89.6013C113.581 89.621 113.695 89.6178 113.804 89.592C113.914 89.5661 114.018 89.5181 114.109 89.4508C114.201 89.3834 114.279 89.298 114.339 89.1994C114.398 89.1007 114.439 88.9909 114.457 88.8761C114.459 88.8482 114.459 88.8201 114.457 88.7921V88.8098Z" fill="#FAFAFA"/>
    <path d="M118.577 86.2937L118.555 86.5811L116.692 90.1186L116.265 90.0877L118.098 86.6032L116.128 86.4528L116.073 87.1957L115.684 87.1692L115.765 86.0637L118.577 86.2937Z" fill="#FAFAFA"/>
    <path d="M124.05 86.705L124.029 86.9969L122.166 90.5344L121.738 90.5035L123.567 87.019L121.597 86.8686L121.546 87.6115L121.157 87.5806L121.234 86.4751L124.05 86.705Z" fill="#FAFAFA"/>
    <path d="M127.618 89.8535C127.571 90.5565 126.964 90.9457 126.05 90.8793C125.135 90.813 124.601 90.331 124.653 89.6279C124.667 89.4028 124.755 89.1894 124.901 89.0224C125.048 88.8554 125.245 88.7446 125.46 88.7082C125.285 88.6384 125.137 88.5109 125.039 88.3455C124.941 88.1801 124.898 87.9859 124.917 87.7928C124.964 87.1472 125.524 86.7846 126.336 86.8421C127.148 86.8996 127.661 87.3506 127.618 87.9962C127.609 88.1912 127.538 88.3776 127.416 88.5264C127.294 88.6752 127.127 88.778 126.943 88.8187C127.152 88.887 127.332 89.0264 127.455 89.2142C127.577 89.4021 127.635 89.6274 127.618 89.8535ZM127.216 89.8181C127.25 89.3272 126.866 88.9912 126.187 88.9337C125.507 88.8762 125.088 89.1548 125.054 89.6456C125.02 90.1365 125.396 90.4725 126.075 90.53C126.755 90.5875 127.182 90.3089 127.216 89.8181ZM126.208 88.6109C126.806 88.6551 127.182 88.4031 127.212 87.9741C127.242 87.5452 126.883 87.2224 126.31 87.1826C125.738 87.1428 125.345 87.3816 125.315 87.8238C125.285 88.266 125.614 88.5711 126.208 88.6109Z" fill="#FAFAFA"/>
    <path d="M131.395 89.2211C131.301 90.5698 130.54 91.2198 129.498 91.1402C129.182 91.1271 128.874 91.0296 128.605 90.8572L128.784 90.5388C129.002 90.6908 129.257 90.7752 129.519 90.782C130.344 90.8439 130.912 90.3398 130.989 89.2565V88.9337C130.864 89.1453 130.681 89.3142 130.464 89.4195C130.247 89.5249 130.004 89.562 129.767 89.5262C129.46 89.5394 129.159 89.4257 128.933 89.2102C128.706 88.9946 128.571 88.6948 128.558 88.3765C128.554 88.3309 128.554 88.285 128.558 88.2394C128.585 87.9144 128.735 87.6134 128.975 87.4016C129.215 87.1898 129.525 87.0841 129.84 87.1074H129.938C130.993 87.1959 131.493 87.9697 131.395 89.2211ZM130.908 88.3898C130.938 87.9476 130.617 87.5054 129.955 87.4656C129.732 87.4258 129.503 87.4794 129.317 87.6146C129.132 87.7497 129.007 87.9554 128.968 88.1864C128.966 88.2099 128.966 88.2336 128.968 88.2571C128.93 88.7789 129.28 89.1415 129.87 89.1857C130.1 89.234 130.34 89.1857 130.536 89.0514C130.732 88.9172 130.869 88.7078 130.917 88.4694V88.3898H130.908Z" fill="#FAFAFA"/>
    <path d="M112.867 92.8106L112.745 94.535L143.45 96.8462L143.571 95.1218L112.867 92.8106Z" fill="#FAFAFA"/>
    <path d="M127.586 97.3806L127.465 99.105L143.212 100.29L143.333 98.5658L127.586 97.3806Z" fill="#FAFAFA"/>
    <path d="M83.3954 72.4113L83.002 77.9947C82.9169 79.2028 83.7942 80.2535 84.9616 80.3416L93.6168 80.9947C94.7842 81.0828 95.7996 80.1748 95.8847 78.9667L96.278 73.3834C96.3632 72.1753 95.4858 71.1245 94.3184 71.0364L85.6632 70.3833C84.4958 70.2953 83.4805 71.2032 83.3954 72.4113Z" fill="#455A64"/>
    <path d="M83.0476 77.419L83.0946 76.7822L89.7261 77.2819C89.9082 77.3014 90.0922 77.2835 90.2676 77.2294C90.443 77.1752 90.6064 77.0859 90.7485 76.9664C90.8905 76.8469 91.0084 76.6996 91.0955 76.533C91.1825 76.3663 91.237 76.1836 91.2558 75.9951C91.2746 75.8067 91.2573 75.6163 91.205 75.4348C91.1527 75.2532 91.0663 75.0841 90.9509 74.9371C90.8354 74.7901 90.6931 74.6681 90.5321 74.578C90.3711 74.4879 90.1945 74.4315 90.0124 74.4121H89.9483L83.3168 73.9124L83.3595 73.2712L89.9953 73.7709C90.5143 73.8282 90.9915 74.0918 91.3262 74.5063C91.6609 74.9208 91.827 75.4536 91.7893 75.9923C91.7516 76.5311 91.5131 77.0336 91.1242 77.3938C90.7352 77.7541 90.2263 77.9438 89.7047 77.9231L83.0476 77.419Z" fill="#13A9FF"/>
    <path d="M91.5453 75.6449L91.4998 76.2843L96.0508 76.6318L96.0964 75.9924L91.5453 75.6449Z" fill="#13A9FF"/>
    <path d="M85.6484 62.1304L85.4412 65.072L118.575 67.572L118.782 64.6304L85.6484 62.1304Z" fill="#FAFAFA"/>
    <path d="M162.365 54.3852C161.48 55.9108 161.57 57.8254 161.818 59.5898C162.066 61.3541 162.45 63.1539 162.07 64.8961C161.818 66.0414 161.215 67.1867 161.506 68.3231C161.698 69.1323 162.284 69.7691 162.574 70.534C163.001 71.6395 162.758 72.8688 162.617 74.0451C162.476 75.2213 162.484 76.5346 163.236 77.4234C164.172 78.5289 165.894 78.4802 167.176 77.8656C168.458 77.2509 169.475 76.1587 170.663 75.3584C171.851 74.558 173.397 74.0318 174.675 74.6685C175.265 74.9604 175.773 75.4822 176.422 75.5529C177.333 75.6237 178.05 74.7614 178.931 74.5094C179.687 74.2971 180.495 74.558 181.272 74.4651C182.857 74.2838 184.028 72.5151 183.806 70.8834C183.658 70.0684 183.269 69.321 182.694 68.7438C182.118 68.1666 181.385 67.7879 180.593 67.6598C179.922 67.5448 179.114 67.5271 178.747 66.9346C178.2 66.0502 179.174 64.9403 178.99 63.9189C178.871 63.1848 178.196 62.694 177.533 62.3933C176.871 62.0926 176.14 61.8936 175.628 61.3718C174.709 60.4432 174.812 58.9221 174.53 57.622C174.064 55.4818 172.128 51.0997 167.915 50.6708" fill="#263238"/>
    <path d="M160.412 176.165L160.493 173.043L166.146 173.162L166.074 177.73H165.723C164.164 177.788 157.78 177.907 156.75 177.558C155.588 177.182 160.412 176.165 160.412 176.165Z" fill="#13A9FF"/>
    <path d="M164.027 177.637C164.121 177.147 164.385 176.71 164.77 176.408C165.149 176.108 165.624 175.966 166.099 176.01L166.069 177.642L164.027 177.637Z" fill="#13A9FF"/>
    <path d="M158.054 176.744C158.054 176.744 156.344 177.213 156.567 177.505C156.789 177.797 163.224 177.947 166.074 177.726V177.598L158.549 177.509C158.549 177.509 158.383 176.766 158.054 176.744Z" fill="#13A9FF"/>
    <path d="M166.155 177.593H165.779L164.753 177.62H161.361C160.036 177.62 158.835 177.545 157.968 177.496L156.943 177.43L156.665 177.407H156.943L157.972 177.447C158.827 177.483 160.036 177.527 161.361 177.553C162.685 177.58 163.882 177.584 164.749 177.58H166.155V177.593Z" fill="#263238"/>
    <path d="M158.541 177.602C158.499 177.424 158.437 177.252 158.357 177.089C158.258 176.938 158.144 176.798 158.015 176.673C158.183 176.755 158.323 176.888 158.417 177.053C158.511 177.219 158.554 177.41 158.541 177.602Z" fill="#263238"/>
    <path d="M160.224 176.757C160.158 176.689 160.099 176.613 160.049 176.532C159.968 176.399 159.916 176.275 159.933 176.267C159.951 176.258 160.027 176.359 160.109 176.492C160.19 176.625 160.241 176.749 160.224 176.757Z" fill="#263238"/>
    <path d="M160.686 176.519C160.614 176.481 160.548 176.433 160.489 176.377C160.391 176.284 160.327 176.196 160.34 176.183C160.352 176.169 160.442 176.231 160.536 176.324C160.63 176.417 160.698 176.505 160.686 176.519Z" fill="#263238"/>
    <path d="M160.985 175.97C160.985 175.993 160.852 176.006 160.69 176.006C160.527 176.006 160.395 176.006 160.395 175.966C160.49 175.931 160.591 175.921 160.69 175.935C160.789 175.925 160.89 175.937 160.985 175.97Z" fill="#263238"/>
    <path d="M161.092 175.586C160.994 175.651 160.879 175.683 160.763 175.678C160.647 175.697 160.529 175.677 160.425 175.621C160.536 175.612 160.647 175.612 160.758 175.621C160.867 175.594 160.98 175.582 161.092 175.586Z" fill="#263238"/>
    <path d="M160.023 176.245C159.903 176.267 159.78 176.267 159.66 176.245C159.529 176.224 159.401 176.191 159.275 176.147C159.2 176.122 159.127 176.09 159.058 176.05C159.015 176.022 158.984 175.98 158.968 175.931C158.963 175.902 158.967 175.873 158.977 175.847C158.988 175.82 159.005 175.797 159.028 175.78C159.168 175.714 159.326 175.699 159.476 175.74C159.625 175.78 159.757 175.872 159.848 176.001C159.904 176.075 159.942 176.162 159.959 176.253V176.355C159.926 176.239 159.872 176.129 159.801 176.032C159.721 175.931 159.614 175.856 159.493 175.816C159.424 175.79 159.351 175.778 159.278 175.782C159.204 175.786 159.132 175.805 159.066 175.838C159.006 175.882 159.028 175.953 159.092 175.992C159.157 176.028 159.224 176.059 159.293 176.085C159.413 176.134 159.537 176.171 159.664 176.196C159.785 176.205 159.904 176.222 160.023 176.245Z" fill="#263238"/>
    <path d="M159.946 176.262C159.903 176.183 159.891 176.09 159.912 176.001C159.925 175.9 159.963 175.804 160.023 175.723C160.054 175.666 160.099 175.62 160.153 175.587C160.207 175.554 160.268 175.537 160.331 175.537C160.366 175.548 160.397 175.572 160.416 175.605C160.436 175.637 160.443 175.676 160.438 175.714C160.427 175.772 160.405 175.828 160.374 175.877C160.325 175.96 160.266 176.036 160.198 176.103C160.14 176.17 160.066 176.221 159.985 176.253C160.049 176.196 160.109 176.134 160.164 176.068C160.224 176.001 160.276 175.926 160.318 175.847C160.369 175.767 160.408 175.625 160.318 175.608C160.228 175.59 160.13 175.687 160.075 175.763C160.02 175.833 159.984 175.917 159.968 176.006C159.954 176.091 159.947 176.176 159.946 176.262Z" fill="#263238"/>
    <path d="M166.069 175.992C165.927 175.978 165.784 175.978 165.642 175.992C165.308 176.023 164.989 176.152 164.723 176.363C164.456 176.575 164.254 176.86 164.138 177.186C164.048 177.434 164.036 177.602 164.023 177.602C164.018 177.562 164.018 177.522 164.023 177.483C164.074 177.071 164.265 176.691 164.56 176.409C164.855 176.128 165.237 175.963 165.638 175.944C165.74 175.935 165.843 175.935 165.946 175.944C165.989 175.955 166.03 175.971 166.069 175.992Z" fill="#263238"/>
    <path d="M165.531 173.547C165.565 173.947 165.574 174.349 165.557 174.75C165.566 175.15 165.552 175.55 165.514 175.948C165.468 175.149 165.468 174.347 165.514 173.547H165.531Z" fill="#263238"/>
    <path d="M163.326 177.049C163.054 177.111 162.775 177.134 162.497 177.116C162.22 177.123 161.943 177.095 161.673 177.032C161.673 177.032 162.044 177.032 162.502 177.032C162.959 177.032 163.322 177.049 163.326 177.049Z" fill="#263238"/>
    <path d="M164.433 177.076C164.411 177.132 164.387 177.186 164.36 177.239C164.317 177.323 164.3 177.407 164.279 177.403C164.258 177.399 164.253 177.31 164.3 177.213C164.347 177.116 164.42 177.049 164.433 177.076Z" fill="#263238"/>
    <path d="M164.86 176.545C164.841 176.595 164.812 176.641 164.775 176.678C164.715 176.735 164.659 176.775 164.646 176.762C164.634 176.749 164.668 176.687 164.728 176.629C164.787 176.572 164.847 176.532 164.86 176.545Z" fill="#263238"/>
    <path d="M165.463 176.311C165.463 176.333 165.381 176.311 165.3 176.359C165.219 176.408 165.155 176.43 165.142 176.417C165.129 176.404 165.176 176.324 165.279 176.289C165.381 176.253 165.467 176.293 165.463 176.311Z" fill="#263238"/>
    <path d="M165.89 176.205C165.873 176.234 165.848 176.258 165.817 176.271C165.785 176.281 165.751 176.281 165.719 176.271C165.734 176.24 165.76 176.216 165.792 176.205C165.839 176.187 165.881 176.187 165.89 176.205Z" fill="#263238"/>
    <path d="M176.448 176.165L176.529 173.043L182.178 173.162L182.105 177.73H181.755C180.195 177.788 173.816 177.907 172.782 177.558C171.624 177.182 176.448 176.165 176.448 176.165Z" fill="#13A9FF"/>
    <path d="M180.059 177.637C180.153 177.146 180.419 176.708 180.807 176.408C181.185 176.106 181.66 175.964 182.135 176.01L182.101 177.642L180.059 177.637Z" fill="#13A9FF"/>
    <path d="M174.09 176.744C174.09 176.744 172.38 177.213 172.598 177.505C172.816 177.797 179.255 177.947 182.105 177.726V177.598L174.577 177.509C174.577 177.509 174.419 176.766 174.09 176.744Z" fill="#13A9FF"/>
    <path d="M182.191 177.593H181.815L180.785 177.62H177.392C176.068 177.62 174.867 177.545 174.004 177.496L172.974 177.43L172.697 177.407H172.979L174.004 177.447C174.859 177.483 176.068 177.527 177.392 177.553C178.717 177.58 179.918 177.584 180.785 177.58H182.191V177.593Z" fill="#263238"/>
    <path d="M174.572 177.602C174.532 177.424 174.472 177.252 174.393 177.089C174.294 176.938 174.18 176.798 174.051 176.673C174.219 176.755 174.358 176.888 174.451 177.054C174.544 177.22 174.587 177.411 174.572 177.602Z" fill="#263238"/>
    <path d="M176.26 176.757C176.195 176.69 176.137 176.614 176.089 176.532C176.012 176.399 175.957 176.275 175.974 176.267C175.991 176.258 176.068 176.359 176.145 176.492C176.194 176.575 176.233 176.664 176.26 176.757Z" fill="#263238"/>
    <path d="M176.722 176.519C176.65 176.482 176.583 176.434 176.525 176.377C176.431 176.284 176.363 176.196 176.376 176.183C176.388 176.169 176.474 176.231 176.572 176.324C176.67 176.417 176.734 176.505 176.722 176.519Z" fill="#263238"/>
    <path d="M177.021 175.97C177.021 175.993 176.888 176.006 176.726 176.006C176.564 176.006 176.431 176.006 176.431 175.966C176.526 175.931 176.627 175.921 176.726 175.935C176.826 175.925 176.926 175.937 177.021 175.97Z" fill="#263238"/>
    <path d="M177.115 175.586C177.015 175.649 176.899 175.681 176.781 175.678C176.666 175.697 176.547 175.677 176.444 175.621C176.555 175.612 176.666 175.612 176.777 175.621C176.888 175.594 177.001 175.582 177.115 175.586Z" fill="#263238"/>
    <path d="M176.077 176.245C175.956 176.267 175.833 176.267 175.713 176.245C175.583 176.224 175.454 176.191 175.329 176.147C175.251 176.124 175.177 176.091 175.107 176.05C175.064 176.023 175.034 175.98 175.021 175.931C175.017 175.903 175.019 175.874 175.029 175.848C175.039 175.821 175.055 175.798 175.077 175.78C175.217 175.714 175.375 175.699 175.525 175.74C175.674 175.78 175.806 175.872 175.897 176.001C175.952 176.076 175.992 176.162 176.012 176.253C176.021 176.287 176.021 176.322 176.012 176.355C175.977 176.238 175.922 176.129 175.85 176.032C175.772 175.93 175.666 175.855 175.547 175.816C175.407 175.765 175.254 175.773 175.119 175.838C175.064 175.882 175.085 175.953 175.145 175.992C175.209 176.032 175.278 176.064 175.35 176.085C175.471 176.134 175.595 176.171 175.722 176.196C175.936 176.231 176.077 176.231 176.077 176.245Z" fill="#263238"/>
    <path d="M175.983 176.262C175.938 176.183 175.924 176.09 175.944 176.001C175.958 175.902 175.994 175.808 176.051 175.727C176.083 175.673 176.127 175.627 176.18 175.595C176.233 175.562 176.293 175.544 176.354 175.541C176.391 175.551 176.423 175.574 176.443 175.607C176.464 175.64 176.472 175.68 176.465 175.718C176.455 175.778 176.432 175.834 176.397 175.882C176.35 175.966 176.291 176.041 176.222 176.107C176.165 176.175 176.093 176.226 176.012 176.258C176.074 176.199 176.133 176.137 176.188 176.072C176.247 176.004 176.3 175.93 176.346 175.851C176.397 175.771 176.431 175.63 176.346 175.612C176.26 175.594 176.162 175.692 176.102 175.767C176.052 175.84 176.016 175.923 175.995 176.01C175.983 176.093 175.978 176.178 175.983 176.262Z" fill="#263238"/>
    <path d="M182.105 175.992C181.963 175.978 181.82 175.978 181.678 175.992C181.344 176.024 181.025 176.153 180.759 176.364C180.493 176.575 180.29 176.86 180.174 177.186C180.084 177.434 180.072 177.602 180.059 177.602C180.05 177.563 180.05 177.522 180.059 177.483C180.071 177.376 180.094 177.271 180.127 177.169C180.233 176.826 180.438 176.526 180.714 176.307C180.989 176.088 181.323 175.962 181.67 175.944C181.773 175.935 181.878 175.935 181.981 175.944C182.026 175.951 182.068 175.968 182.105 175.992Z" fill="#263238"/>
    <path d="M181.567 173.547C181.613 174.347 181.613 175.149 181.567 175.948C181.533 175.55 181.524 175.149 181.541 174.75C181.526 174.349 181.535 173.947 181.567 173.547Z" fill="#263238"/>
    <path d="M179.358 177.049C179.088 177.111 178.81 177.134 178.533 177.116C178.256 177.125 177.979 177.097 177.709 177.032C177.709 177.032 178.08 177.032 178.533 177.032C178.986 177.032 179.358 177.049 179.358 177.049Z" fill="#263238"/>
    <path d="M180.465 177.076C180.465 177.076 180.435 177.155 180.396 177.239C180.358 177.323 180.332 177.407 180.315 177.403C180.298 177.399 180.289 177.31 180.315 177.213C180.341 177.116 180.456 177.049 180.465 177.076Z" fill="#263238"/>
    <path d="M180.896 176.545C180.877 176.595 180.848 176.641 180.811 176.678C180.751 176.735 180.691 176.775 180.678 176.762C180.665 176.749 180.704 176.687 180.764 176.629C180.824 176.572 180.879 176.532 180.896 176.545Z" fill="#263238"/>
    <path d="M181.494 176.311C181.494 176.333 181.417 176.311 181.332 176.359C181.247 176.408 181.191 176.43 181.174 176.417C181.157 176.404 181.208 176.324 181.311 176.289C181.413 176.253 181.503 176.293 181.494 176.311Z" fill="#263238"/>
    <path d="M181.922 176.205C181.905 176.234 181.879 176.258 181.849 176.271C181.817 176.281 181.783 176.281 181.751 176.271C181.751 176.271 181.781 176.222 181.828 176.205C181.875 176.187 181.917 176.187 181.922 176.205Z" fill="#263238"/>
    <path d="M159.271 95.9292L156.562 137.721V175.409H167.39C167.39 175.409 167.847 142.908 167.561 140.781C167.561 140.781 169.33 108.227 169.53 108.691C169.958 109.642 169.932 137.314 170.539 140.741C171.146 144.168 173.957 175.409 173.957 175.409H184.379L180.875 139.591C180.802 135.275 179.73 97.3752 179.73 97.3752L159.271 95.9292Z" fill="#263238"/>
    <path d="M184.144 173.268C184.026 173.356 183.887 173.406 183.742 173.414C183.351 173.45 182.957 173.383 182.597 173.22C182.097 172.964 181.571 172.768 181.029 172.636C180.418 172.543 179.781 172.875 179.174 173.295C178.616 173.751 177.962 174.063 177.264 174.206C176.686 174.263 176.103 174.189 175.555 173.989C175.191 173.864 174.834 173.716 174.487 173.547C174.356 173.495 174.233 173.422 174.124 173.33C174.124 173.291 174.684 173.56 175.598 173.843C176.129 174.011 176.687 174.065 177.239 174.002C177.902 173.858 178.524 173.555 179.055 173.118C179.359 172.906 179.682 172.725 180.02 172.579C180.349 172.445 180.704 172.399 181.054 172.446C181.616 172.581 182.159 172.791 182.67 173.069C183.006 173.236 183.374 173.322 183.746 173.322C183.998 173.313 184.135 173.246 184.144 173.268Z" fill="#455A64"/>
    <path d="M167.479 173.008C167.372 172.904 167.258 172.807 167.138 172.72C166.791 172.52 166.385 172.457 165.997 172.543C165.421 172.712 164.881 172.993 164.407 173.37C164.103 173.583 163.78 173.763 163.442 173.91C163.065 174.07 162.652 174.121 162.249 174.056C161.429 173.91 160.78 173.468 160.113 173.317C159.532 173.189 158.929 173.216 158.361 173.397C157.378 173.702 156.802 174.016 156.784 173.972C156.905 173.874 157.037 173.794 157.178 173.733C157.545 173.537 157.926 173.371 158.318 173.238C158.91 173.026 159.546 172.981 160.16 173.109C160.856 173.264 161.514 173.702 162.267 173.83C163.019 173.958 163.706 173.556 164.275 173.189C164.774 172.807 165.342 172.533 165.945 172.384C166.37 172.305 166.808 172.398 167.167 172.645C167.307 172.727 167.417 172.855 167.479 173.008Z" fill="#455A64"/>
    <path d="M178.999 104.596C178.81 104.724 178.592 104.8 178.367 104.817C177.829 104.901 177.28 104.865 176.756 104.712C176.232 104.56 175.746 104.294 175.329 103.933C175.012 103.654 174.871 103.429 174.901 103.411C175.455 103.915 176.113 104.283 176.824 104.486C177.535 104.689 178.282 104.722 179.008 104.583L178.999 104.596Z" fill="#455A64"/>
    <path d="M161.023 102.964C161.049 102.964 161.049 103.19 160.938 103.517C160.787 103.946 160.536 104.329 160.207 104.632C159.876 104.933 159.481 105.149 159.053 105.259C158.724 105.335 158.515 105.308 158.515 105.282C159.088 105.147 159.62 104.864 160.058 104.458C160.497 104.053 160.829 103.539 161.023 102.964Z" fill="#455A64"/>
    <path d="M135.433 87.5629L135.151 91.5426L134.758 91.5161L135.01 87.9122L134.108 87.8415L134.134 87.4789L135.433 87.5629Z" fill="#FAFAFA"/>
    <path d="M139.12 91.463L139.095 91.8256L136.407 91.6266V91.3347L138.116 89.8401C138.578 89.4333 138.68 89.1724 138.702 88.8983C138.732 88.4561 138.441 88.1333 137.847 88.0891C137.653 88.0628 137.455 88.0816 137.269 88.1444C137.083 88.2071 136.912 88.3121 136.77 88.4517L136.523 88.1686C136.708 87.9887 136.929 87.8537 137.171 87.7734C137.412 87.6931 137.668 87.6695 137.92 87.7043C138.697 87.7618 139.163 88.2084 139.116 88.8717C139.091 89.252 138.95 89.5837 138.398 90.0657L137.005 91.295L139.12 91.463Z" fill="#FAFAFA"/>
    <path d="M142.611 90.9501C142.564 91.609 142.065 92.0865 141.142 92.0158C140.633 91.998 140.151 91.7778 139.796 91.4011L140.009 91.0916C140.158 91.2573 140.337 91.391 140.536 91.4851C140.734 91.5792 140.949 91.6318 141.167 91.6399C141.8 91.6886 142.171 91.41 142.21 90.9191C142.248 90.4283 141.941 90.1055 141.227 90.0348H140.954L140.975 89.7341L142.137 88.4384L140.176 88.2925L140.202 87.9299L142.663 88.1157V88.4031L141.479 89.7297C142.278 89.8358 142.658 90.3133 142.611 90.9501Z" fill="#FAFAFA"/>
    <path d="M162.801 52.0504C162.419 52.4522 162.125 52.934 161.938 53.4634C161.752 53.9928 161.677 54.5575 161.72 55.1192C161.814 56.243 162.167 57.327 162.749 58.2809" fill="#263238"/>
    <path d="M172.128 69.3356L172.709 55.4818L167.338 51.2721L162.459 53.7395C162.459 53.7395 162.297 60.0806 162.459 62.831C162.621 65.5814 165.3 65.8733 165.3 65.8733C165.3 65.8733 165.223 67.39 165.138 68.9686C165.091 69.9173 165.405 70.8473 166.013 71.5591C166.621 72.2709 167.474 72.7077 168.39 72.7759C169.315 72.8427 170.229 72.5262 170.929 71.896C171.63 71.2657 172.059 70.3734 172.124 69.4152C172.124 69.3887 172.128 69.3622 172.128 69.3356Z" fill="#FFBE9D"/>
    <path d="M163.331 58.3649C163.331 58.4348 163.351 58.5032 163.388 58.5614C163.426 58.6196 163.479 58.6649 163.542 58.6917C163.604 58.7185 163.673 58.7255 163.739 58.7118C163.805 58.6982 163.866 58.6645 163.914 58.615C163.962 58.5655 163.994 58.5025 164.008 58.4339C164.021 58.3653 164.014 58.2941 163.988 58.2295C163.962 58.1648 163.919 58.1096 163.862 58.0707C163.806 58.0319 163.74 58.0111 163.672 58.0111C163.628 58.0111 163.583 58.0203 163.542 58.038C163.5 58.0558 163.462 58.0819 163.431 58.1147C163.399 58.1476 163.374 58.1866 163.357 58.2295C163.339 58.2724 163.331 58.3184 163.331 58.3649Z" fill="#263238"/>
    <path d="M162.664 57.9803C162.707 58.0245 162.959 57.8034 163.322 57.7813C163.685 57.7592 163.963 57.9449 164.001 57.8962C164.04 57.8476 163.976 57.7901 163.856 57.7017C163.694 57.5925 163.502 57.5412 163.309 57.5558C163.117 57.5651 162.933 57.6415 162.788 57.7724C162.677 57.8697 162.643 57.9582 162.664 57.9803Z" fill="#263238"/>
    <path d="M167.287 58.365C167.287 58.4576 167.323 58.5465 167.386 58.612C167.449 58.6775 167.535 58.7143 167.625 58.7143C167.692 58.7152 167.759 58.6953 167.815 58.6571C167.872 58.619 167.916 58.5643 167.943 58.5C167.97 58.4357 167.977 58.3647 167.965 58.2959C167.953 58.2271 167.921 58.1637 167.874 58.1136C167.826 58.0635 167.766 58.029 167.7 58.0145C167.634 58 167.565 58.0061 167.502 58.0321C167.439 58.0581 167.385 58.1027 167.347 58.1604C167.309 58.2181 167.288 58.2862 167.287 58.3561V58.365Z" fill="#263238"/>
    <path d="M166.723 57.9802C166.766 58.0245 167.018 57.8034 167.381 57.7813C167.744 57.7592 168.022 57.9449 168.06 57.8962C168.099 57.8476 168.035 57.7901 167.915 57.7017C167.752 57.5941 167.561 57.543 167.368 57.5557C167.175 57.5685 166.991 57.6443 166.843 57.7724C166.736 57.8697 166.702 57.9581 166.723 57.9802Z" fill="#263238"/>
    <path d="M166.608 61.5398C166.049 61.832 165.454 62.0432 164.839 62.1677C164.975 62.3576 165.167 62.4958 165.387 62.5606C165.606 62.6254 165.84 62.6132 166.052 62.5259C166.149 62.5039 166.24 62.4624 166.321 62.4038C166.402 62.3451 166.471 62.2705 166.524 62.1841C166.576 62.0978 166.612 62.0015 166.629 61.9008C166.645 61.8 166.643 61.6969 166.621 61.5973L166.608 61.5398Z" fill="#FAFAFA"/>
    <path d="M165.3 65.8735C166.563 65.8193 167.785 65.3928 168.821 64.6442C168.821 64.6442 168.022 66.665 165.36 66.55L165.3 65.8735Z" fill="#EB996E"/>
    <path d="M165.398 61.195C165.203 61.1457 165.002 61.1205 164.8 61.1198C164.706 61.1198 164.617 61.1199 164.595 61.0314C164.584 60.9248 164.603 60.817 164.651 60.7219C164.728 60.4742 164.813 60.2134 164.899 59.9392C165.074 59.3776 165.223 58.8735 165.326 58.5021C165.398 58.3062 165.442 58.1007 165.458 57.8918C165.36 58.0737 165.283 58.2666 165.228 58.4667C165.099 58.8293 164.933 59.3511 164.758 59.8906C164.676 60.1691 164.595 60.43 164.518 60.6821C164.467 60.8061 164.455 60.944 164.484 61.0756C164.497 61.1097 164.518 61.14 164.545 61.1638C164.571 61.1877 164.603 61.2045 164.638 61.2127C164.69 61.2215 164.744 61.2215 164.796 61.2127C164.997 61.2355 165.199 61.2296 165.398 61.195Z" fill="#263238"/>
    <path d="M172.316 60.4079C172.274 59.9499 172.324 59.4878 172.461 59.0504C172.53 58.832 172.656 58.6371 172.823 58.4868C172.991 58.3364 173.196 58.2362 173.414 58.197C173.668 58.183 173.917 58.2652 174.116 58.428C174.315 58.5908 174.45 58.8231 174.495 59.0813C174.527 59.3452 174.481 59.6128 174.364 59.8494C174.246 60.0859 174.063 60.2805 173.837 60.4079C173.61 60.5287 173.358 60.595 173.103 60.6019C172.847 60.6088 172.593 60.5561 172.359 60.4477" fill="#FFBE9D"/>
    <path d="M173.094 60.0054C173.094 59.9745 173.235 60.0452 173.423 59.9833C173.54 59.9415 173.642 59.8626 173.713 59.7579C173.784 59.6531 173.822 59.5278 173.82 59.3996C173.832 59.335 173.83 59.2686 173.813 59.2051C173.797 59.1416 173.767 59.0827 173.726 59.0326C173.643 58.9674 173.54 58.9359 173.436 58.9442C173.239 58.9442 173.098 59.0149 173.086 58.9839C173.073 58.953 173.175 58.8557 173.415 58.785C173.488 58.7672 173.564 58.7659 173.637 58.7812C173.711 58.7964 173.781 58.8279 173.842 58.8734C173.912 58.9427 173.965 59.0281 173.997 59.1226C174.028 59.2171 174.038 59.3181 174.026 59.4173C174.015 59.6056 173.946 59.7853 173.829 59.9302C173.728 60.0484 173.588 60.1239 173.436 60.1425C173.192 60.169 173.068 60.0231 173.094 60.0054Z" fill="#EB996E"/>
    <path d="M162.497 52.3201C161.318 53.8368 162.89 54.792 163.672 55.4154C164.275 55.9019 166.052 57.1842 167.612 56.5784C167.061 55.8134 166.433 55.4774 166.189 54.7477C166.826 55.6763 167.497 56.3794 168.59 56.5165C168.373 55.8576 168.065 54.5178 168.3 54.4647C168.59 57.0825 170.962 59.2846 172.594 58.4445C172.9 57.621 173.013 56.7346 172.925 55.8572C172.838 54.9798 172.552 54.1361 172.09 53.3946C171.616 52.6615 171.001 52.038 170.282 51.5638C169.563 51.0896 168.758 50.775 167.915 50.6398C166.948 50.4876 165.961 50.5594 165.024 50.8499C164.087 51.1405 163.224 51.6426 162.497 52.3201Z" fill="#263238"/>
    <path d="M173.696 60.6599C173.696 60.6334 173.897 60.8324 173.816 61.2082C173.791 61.3166 173.742 61.4177 173.674 61.5042C173.606 61.5906 173.52 61.6602 173.423 61.7079C173.301 61.7654 173.168 61.7925 173.035 61.7871C172.901 61.7817 172.771 61.744 172.654 61.6769C172.539 61.6052 172.442 61.5081 172.368 61.3927C172.294 61.2772 172.246 61.1463 172.227 61.0092C172.2 60.7888 172.255 60.5662 172.38 60.3857C172.594 60.0851 172.833 60.0541 172.833 60.0762C172.707 60.1902 172.598 60.3246 172.513 60.4742C172.431 60.6277 172.402 60.8056 172.432 60.9783C172.448 61.0803 172.485 61.1776 172.54 61.2638C172.595 61.3499 172.668 61.4229 172.752 61.478C172.839 61.528 172.935 61.5575 173.034 61.5644C173.133 61.5713 173.232 61.5554 173.325 61.5178C173.401 61.4853 173.469 61.4367 173.526 61.375C173.583 61.3132 173.626 61.2399 173.654 61.1596C173.7 60.9976 173.714 60.8277 173.696 60.6599Z" fill="#13A9FF"/>
    <path d="M155.225 83.4417L159.233 82.5795L160.451 89.5573C159.421 93.1338 158.566 96.7613 157.887 100.426L167.287 106.498L168.736 103.65L171.056 105.932L181.059 100.426C179.824 93.7935 176.705 92.0601 176.705 90.9811C176.705 87.8858 176.277 90.8927 178.786 80.6382C181.294 70.3838 172.141 69.3358 172.141 69.3358C172.141 69.3358 172.346 70.7685 165.065 69.4021C162.399 68.9025 151.755 74.6863 151.755 74.6863L155.225 83.4417Z" fill="#13A9FF"/>
    <path d="M165.052 69.402C165.052 69.402 164.967 76.99 166.715 76.4771C168.462 75.9641 171.983 72.7229 172.128 69.318L165.052 69.402Z" fill="#FFBE9D"/>
    <path d="M165.497 82.6987C165.476 81.7998 165.526 80.9007 165.646 80.0102C165.697 79.1162 165.822 78.2284 166.022 77.3571C166.044 78.2576 165.992 79.1584 165.868 80.05C165.817 80.9422 165.693 81.8283 165.497 82.6987Z" fill="#263238"/>
    <path d="M166.612 82.0841C166.484 81.3743 166.428 80.6525 166.445 79.9306C166.391 79.2098 166.41 78.4851 166.501 77.7683C166.629 78.4796 166.685 79.2029 166.667 79.9262C166.726 80.6454 166.707 81.3691 166.612 82.0841Z" fill="#263238"/>
    <path d="M165.044 83.4415C164.984 83.4415 164.941 83.247 165.044 83.0303C165.146 82.8136 165.313 82.7163 165.351 82.765C165.39 82.8136 165.322 82.9551 165.249 83.1231C165.176 83.2912 165.108 83.4459 165.044 83.4415Z" fill="#263238"/>
    <path d="M165.283 83.4417C165.223 83.4417 165.202 83.2825 165.232 83.11C165.262 82.9376 165.343 82.8138 165.403 82.827C165.463 82.8403 165.484 82.9862 165.454 83.1587C165.424 83.3311 165.343 83.4549 165.283 83.4417Z" fill="#263238"/>
    <path d="M165.51 83.4461C165.45 83.4461 165.386 83.3178 165.369 83.1454C165.351 82.9729 165.39 82.8314 165.454 82.827C165.518 82.8226 165.578 82.9552 165.591 83.1233C165.604 83.2913 165.578 83.4372 165.51 83.4461Z" fill="#263238"/>
    <path d="M165.881 83.5654C165.817 83.5654 165.77 83.3443 165.659 83.1232C165.548 82.9021 165.42 82.7076 165.463 82.6545C165.505 82.6015 165.732 82.7341 165.864 83.026C165.997 83.3178 165.941 83.5699 165.881 83.5654Z" fill="#263238"/>
    <path d="M166.655 82.765C166.599 82.7871 166.484 82.597 166.484 82.3228C166.484 82.0486 166.599 81.8806 166.655 81.8806C166.71 81.8806 166.706 82.0884 166.706 82.3228C166.706 82.5572 166.715 82.7429 166.655 82.765Z" fill="#263238"/>
    <path d="M166.886 82.6413C166.826 82.6413 166.762 82.4997 166.745 82.314C166.727 82.1283 166.745 81.9691 166.826 81.9647C166.907 81.9603 166.95 82.1062 166.967 82.2919C166.984 82.4776 166.945 82.6368 166.886 82.6413Z" fill="#263238"/>
    <path d="M167.249 82.5793C167.202 82.6191 167.069 82.5262 166.954 82.3715C166.839 82.2167 166.783 82.0619 166.834 82.0266C166.886 81.9912 167.014 82.0796 167.129 82.23C167.245 82.3803 167.287 82.5395 167.249 82.5793Z" fill="#263238"/>
    <path d="M167.368 82.4556C167.313 82.4821 167.206 82.3671 167.069 82.2433C166.933 82.1195 166.813 82.0266 166.834 81.9647C166.856 81.9028 167.048 81.9117 167.219 82.0708C167.39 82.23 167.424 82.4202 167.368 82.4556Z" fill="#263238"/>
    <path d="M164.518 70.2378C164.518 70.2113 164.647 70.145 164.796 70.2865C164.858 70.3611 164.888 70.4578 164.881 70.5556C164.874 70.6533 164.829 70.7441 164.758 70.8083C164.722 70.8409 164.681 70.8658 164.637 70.8815C164.592 70.8972 164.544 70.9033 164.497 70.8996C164.45 70.8959 164.404 70.8824 164.362 70.8598C164.321 70.8373 164.283 70.8062 164.253 70.7685C164.233 70.7464 164.215 70.721 164.202 70.6933C164.182 70.6347 164.176 70.5721 164.184 70.5105C164.192 70.449 164.215 70.3903 164.249 70.3395C164.373 70.1715 164.523 70.2113 164.514 70.2378C164.461 70.2911 164.417 70.3541 164.386 70.4236C164.343 70.5429 164.386 70.7021 164.561 70.68C164.736 70.6579 164.749 70.5032 164.681 70.3926C164.612 70.2821 164.523 70.2732 164.518 70.2378Z" fill="#263238"/>
    <path d="M164.689 71.6661C164.651 71.7147 164.531 71.6661 164.416 71.6042C164.3 71.5423 164.236 71.4096 164.27 71.3566C164.305 71.3035 164.429 71.33 164.544 71.4185C164.659 71.5069 164.723 71.613 164.689 71.6661Z" fill="#263238"/>
    <path d="M164.8 71.9668C164.852 72.0066 164.8 72.1614 164.63 72.2277C164.459 72.294 164.318 72.2277 164.33 72.1614C164.343 72.095 164.441 72.0597 164.548 72.0155C164.655 71.9712 164.753 71.927 164.8 71.9668Z" fill="#263238"/>
    <path d="M164.809 72.714C164.856 72.7538 164.809 72.8688 164.745 72.9705C164.681 73.0722 164.557 73.1253 164.51 73.0811C164.463 73.0368 164.488 72.9263 164.574 72.8246C164.659 72.7229 164.758 72.6919 164.809 72.714Z" fill="#263238"/>
    <path d="M164.625 73.5232C164.625 73.4967 164.796 73.4347 164.997 73.6249C165.053 73.6807 165.094 73.7514 165.114 73.8293C165.135 73.9073 165.134 73.9895 165.112 74.0671C165.083 74.1693 165.024 74.2594 164.943 74.3245C164.861 74.3897 164.762 74.4265 164.659 74.4297C164.558 74.4219 164.462 74.3808 164.385 74.3123C164.308 74.2439 164.255 74.1517 164.232 74.0494C164.213 73.9641 164.222 73.8747 164.257 73.795C164.291 73.7152 164.35 73.6492 164.424 73.6072C164.672 73.4657 164.852 73.6072 164.809 73.6293C164.703 73.6407 164.602 73.6786 164.514 73.7399C164.476 73.7683 164.448 73.8084 164.433 73.8545C164.419 73.9005 164.419 73.9502 164.433 73.9963C164.451 74.0512 164.484 74.0993 164.528 74.1348C164.572 74.1702 164.625 74.1913 164.681 74.1953C164.719 74.1931 164.757 74.1829 164.792 74.1654C164.827 74.1479 164.857 74.1234 164.883 74.0933C164.908 74.0633 164.928 74.0283 164.94 73.9903C164.952 73.9524 164.957 73.9124 164.954 73.8725C164.95 73.8118 164.929 73.7535 164.894 73.7045C164.766 73.5762 164.621 73.5762 164.625 73.5232Z" fill="#263238"/>
    <path d="M165.104 74.8101C165.134 74.8676 165.04 74.9737 164.937 75.0931C164.835 75.2125 164.749 75.3231 164.689 75.3009C164.63 75.2788 164.638 75.102 164.771 74.9428C164.903 74.7836 165.078 74.7526 165.104 74.8101Z" fill="#263238"/>
    <path d="M165.343 75.6105C165.399 75.6326 165.39 75.8095 165.258 75.9687C165.125 76.1279 164.954 76.1588 164.924 76.1058C164.894 76.0527 164.988 75.9377 165.091 75.8183C165.194 75.6989 165.283 75.5884 165.343 75.6105Z" fill="#263238"/>
    <path d="M165.471 76.906C165.411 76.906 165.347 76.7645 165.334 76.5743C165.322 76.3842 165.334 76.2338 165.416 76.225C165.497 76.2161 165.539 76.3665 165.552 76.5566C165.565 76.7468 165.535 76.9015 165.471 76.906Z" fill="#263238"/>
    <path d="M167.548 77.1139C167.518 77.167 167.398 77.1581 167.283 77.1139C167.168 77.0697 167.099 76.9459 167.129 76.8884C167.159 76.8309 167.279 76.8442 167.394 76.8884C167.509 76.9326 167.578 77.0343 167.548 77.1139Z" fill="#263238"/>
    <path d="M168.27 76.2295C168.313 76.2737 168.24 76.4197 168.112 76.5567C167.984 76.6938 167.838 76.769 167.796 76.7248C167.753 76.6806 167.821 76.5346 167.954 76.3976C168.086 76.2605 168.223 76.1897 168.27 76.2295Z" fill="#263238"/>
    <path d="M168.86 75.7341C168.86 75.6988 168.971 75.6811 169.133 75.6855H169.154L169.184 75.712C169.222 75.7514 169.25 75.7999 169.266 75.853C169.281 75.9062 169.284 75.9626 169.274 76.0171C169.262 76.0867 169.229 76.1504 169.178 76.1983C169.128 76.2462 169.064 76.2758 168.996 76.2825C168.924 76.2892 168.851 76.2718 168.789 76.2328C168.727 76.1938 168.678 76.1353 168.65 76.0658C168.628 76.0106 168.622 75.9496 168.635 75.891C168.647 75.8325 168.676 75.7793 168.719 75.7386C168.86 75.6059 168.992 75.6722 168.975 75.6988C168.958 75.7253 168.889 75.743 168.842 75.8403C168.83 75.8616 168.823 75.8861 168.823 75.911C168.823 75.936 168.83 75.9604 168.842 75.9818C168.858 76.0056 168.879 76.0247 168.904 76.0371C168.928 76.0496 168.956 76.0549 168.983 76.0525C169.073 76.0525 169.116 75.8889 169.069 75.8314L169.12 75.858C168.954 75.8137 168.855 75.7872 168.86 75.7341Z" fill="#263238"/>
    <path d="M169.471 75.6149C169.411 75.6149 169.385 75.4512 169.419 75.2832C169.454 75.1152 169.53 74.9869 169.59 74.9958C169.65 75.0046 169.671 75.1594 169.637 75.3274C169.603 75.4955 169.53 75.6281 169.471 75.6149Z" fill="#263238"/>
    <path d="M170.406 74.9337C170.385 74.9912 170.244 74.9824 170.094 74.9337C169.945 74.8851 169.847 74.7613 169.872 74.7038C169.898 74.6463 170.039 74.6552 170.184 74.7038C170.329 74.7524 170.432 74.8763 170.406 74.9337Z" fill="#263238"/>
    <path d="M170.513 74.0936C170.539 74.0936 170.534 74.1732 170.586 74.2307C170.637 74.2882 170.701 74.3015 170.748 74.2307C170.795 74.16 170.748 74.1069 170.68 74.0804C170.629 74.0665 170.576 74.0665 170.526 74.0804C170.5 74.0804 170.526 73.9566 170.671 73.9256C170.716 73.9168 170.763 73.9204 170.806 73.9359C170.85 73.9514 170.889 73.9783 170.919 74.014C170.958 74.0614 170.982 74.1206 170.985 74.1828C170.989 74.245 170.973 74.3068 170.94 74.359C170.91 74.4131 170.864 74.456 170.809 74.4815C170.754 74.5069 170.692 74.5135 170.633 74.5005C170.588 74.4896 170.547 74.4667 170.514 74.4341C170.481 74.4014 170.457 74.3602 170.445 74.3147C170.402 74.1467 170.492 74.0715 170.513 74.0936Z" fill="#263238"/>
    <path d="M171.167 73.3951C171.129 73.3887 171.093 73.3719 171.064 73.3463C171.034 73.3207 171.012 73.2874 170.999 73.2498C170.987 73.2122 170.984 73.1717 170.992 73.1327C170.999 73.0937 171.017 73.0575 171.043 73.0281C171.086 73.0281 171.175 73.0723 171.21 73.174C171.244 73.2757 171.222 73.3774 171.167 73.3951Z" fill="#263238"/>
    <path d="M171.778 72.776C171.748 72.8291 171.628 72.8202 171.513 72.7495C171.398 72.6787 171.329 72.5814 171.364 72.5284C171.398 72.4753 171.509 72.4841 171.624 72.5505C171.74 72.6168 171.808 72.7185 171.778 72.776Z" fill="#263238"/>
    <path d="M172.197 71.8473C172.222 71.9093 172.12 72.011 171.974 72.0773C171.829 72.1436 171.684 72.1525 171.658 72.0773C171.633 72.0021 171.735 71.9181 171.88 71.8518C171.928 71.8232 171.983 71.8078 172.038 71.807C172.093 71.8063 172.148 71.8201 172.197 71.8473Z" fill="#263238"/>
    <path d="M172.389 70.7375C172.389 70.7154 172.47 70.6313 172.616 70.7109C172.658 70.7352 172.693 70.7703 172.719 70.8129C172.744 70.8555 172.759 70.9041 172.761 70.9541C172.761 71.0192 172.742 71.0828 172.706 71.1364C172.67 71.1901 172.62 71.2313 172.561 71.2548C172.502 71.2782 172.438 71.2827 172.377 71.2677C172.316 71.2528 172.26 71.219 172.218 71.1708C172.187 71.1321 172.166 71.0855 172.158 71.0358C172.15 70.9862 172.154 70.9351 172.171 70.8878C172.227 70.733 172.346 70.7242 172.351 70.7552C172.355 70.7861 172.316 70.8348 172.325 70.9188C172.334 71.0028 172.385 71.078 172.479 71.0426C172.573 71.0072 172.573 70.9188 172.517 70.8436C172.462 70.7684 172.415 70.7684 172.389 70.7375Z" fill="#263238"/>
    <path d="M172.974 69.7691C172.974 69.831 172.88 69.9106 172.731 69.946C172.581 69.9814 172.453 69.946 172.44 69.8974C172.427 69.8487 172.534 69.7559 172.684 69.7205C172.833 69.6851 172.962 69.7072 172.974 69.7691Z" fill="#263238"/>
    <path d="M172.376 69.4462L172.611 69.2605L172.376 69.4462Z" fill="#263238"/>
    <path d="M152.969 75.752C152.913 75.752 152.892 75.6237 152.93 75.5088C152.969 75.3938 153.041 75.3186 153.097 75.3363C153.153 75.354 153.174 75.4646 153.14 75.5795C153.106 75.6945 153.029 75.7874 152.969 75.752Z" fill="#263238"/>
    <path d="M153.482 76.3932C153.482 76.3666 153.559 76.2826 153.712 76.3534C153.765 76.3777 153.81 76.4173 153.842 76.4676C153.874 76.5178 153.89 76.5764 153.89 76.6364C153.89 76.6963 153.874 76.755 153.842 76.8052C153.81 76.8554 153.765 76.8951 153.712 76.9194C153.656 76.9515 153.59 76.9645 153.526 76.9566C153.462 76.9486 153.401 76.9202 153.353 76.8752C153.318 76.8396 153.292 76.7956 153.277 76.747C153.262 76.6984 153.259 76.6467 153.268 76.5966C153.298 76.4241 153.422 76.3976 153.43 76.4241C153.439 76.4507 153.405 76.5126 153.43 76.601C153.456 76.6894 153.516 76.769 153.623 76.716C153.729 76.6629 153.708 76.5656 153.623 76.4905C153.537 76.4153 153.494 76.4241 153.482 76.3932Z" fill="#263238"/>
    <path d="M154.118 77.8391C154.093 77.8966 153.96 77.8966 153.819 77.8391C153.678 77.7816 153.588 77.6843 153.61 77.6269C153.631 77.5694 153.768 77.5694 153.909 77.6269C154.05 77.6843 154.14 77.7816 154.118 77.8391Z" fill="#263238"/>
    <path d="M154.276 78.7235C154.255 78.7854 154.152 78.8031 154.041 78.7677C153.93 78.7323 153.857 78.6527 153.875 78.5908C153.892 78.5289 153.998 78.5112 154.11 78.551C154.221 78.5908 154.293 78.666 154.276 78.7235Z" fill="#263238"/>
    <path d="M154.537 79.3247C154.588 79.3557 154.575 79.4839 154.503 79.6077C154.43 79.7315 154.332 79.8111 154.281 79.7757C154.229 79.7404 154.242 79.6166 154.311 79.4927C154.331 79.4466 154.362 79.4067 154.402 79.3772C154.442 79.3477 154.488 79.3296 154.537 79.3247Z" fill="#263238"/>
    <path d="M154.691 79.9394C154.661 79.9394 154.763 79.7758 154.981 79.8377C155.044 79.8555 155.101 79.8891 155.148 79.9354C155.195 79.9817 155.23 80.0393 155.251 80.103C155.275 80.1922 155.266 80.2877 155.225 80.3699C155.183 80.4521 155.113 80.5149 155.028 80.5452C154.952 80.5772 154.868 80.5854 154.786 80.569C154.705 80.5525 154.631 80.512 154.571 80.4524C154.523 80.3953 154.497 80.3223 154.497 80.2467C154.497 80.1712 154.523 80.0982 154.571 80.0411C154.606 80.0049 154.654 79.9846 154.704 79.9846C154.753 79.9846 154.801 80.0049 154.836 80.0411C154.883 80.0986 154.862 80.1428 154.836 80.1428C154.824 80.1443 154.812 80.1426 154.801 80.1379C154.79 80.1333 154.78 80.1259 154.772 80.1163C154.764 80.1111 154.755 80.1079 154.745 80.107C154.735 80.106 154.726 80.1072 154.717 80.1106C154.708 80.114 154.7 80.1195 154.693 80.1266C154.686 80.1337 154.681 80.1423 154.678 80.1517C154.668 80.1791 154.666 80.2091 154.673 80.2376C154.68 80.2662 154.695 80.2918 154.716 80.3109C154.749 80.3348 154.787 80.3498 154.826 80.3544C154.866 80.3591 154.906 80.3532 154.943 80.3374C155.118 80.2711 155.045 80.0677 154.917 80.0013C154.789 79.935 154.712 79.966 154.691 79.9394Z" fill="#263238"/>
    <path d="M155.323 81.0936C155.366 81.1378 155.323 81.2395 155.246 81.3191C155.169 81.3987 155.063 81.4164 155.02 81.3722C154.977 81.3279 155.02 81.2218 155.097 81.1466C155.174 81.0715 155.268 81.0361 155.323 81.0936Z" fill="#263238"/>
    <path d="M155.554 81.8542C155.601 81.8984 155.554 82.0089 155.481 82.1018C155.409 82.1947 155.289 82.2389 155.242 82.1947C155.195 82.1504 155.242 82.0399 155.319 81.947C155.396 81.8542 155.511 81.81 155.554 81.8542Z" fill="#263238"/>
    <path d="M159.916 101.545C159.865 101.576 159.75 101.474 159.669 101.315C159.587 101.156 159.558 101.005 159.609 100.975C159.66 100.944 159.775 101.045 159.861 101.204C159.946 101.364 159.972 101.514 159.916 101.545Z" fill="#263238"/>
    <path d="M160.288 101.545C160.233 101.571 160.13 101.465 160.062 101.306C159.993 101.147 159.985 101.001 160.062 100.975C160.139 100.948 160.22 101.054 160.288 101.213C160.357 101.372 160.344 101.518 160.288 101.545Z" fill="#263238"/>
    <path d="M160.814 101.832V101.974C160.814 102.04 160.878 102.067 160.938 102.031C160.997 101.996 160.993 101.947 160.938 101.89C160.882 101.832 160.839 101.841 160.822 101.81C160.805 101.779 160.874 101.7 161.01 101.744C161.074 101.765 161.127 101.812 161.158 101.873C161.189 101.934 161.196 102.005 161.177 102.071C161.155 102.138 161.109 102.194 161.049 102.226C161.003 102.261 160.947 102.279 160.891 102.279C160.834 102.279 160.779 102.261 160.733 102.226C160.701 102.196 160.677 102.159 160.663 102.117C160.649 102.075 160.645 102.031 160.651 101.987C160.698 101.824 160.805 101.802 160.814 101.832Z" fill="#263238"/>
    <path d="M162.13 102.12C162.168 102.169 162.087 102.297 161.95 102.403C161.814 102.509 161.677 102.553 161.638 102.5C161.6 102.447 161.681 102.323 161.818 102.217C161.955 102.111 162.096 102.067 162.13 102.12Z" fill="#263238"/>
    <path d="M162.561 102.562C162.587 102.619 162.527 102.708 162.429 102.761C162.331 102.814 162.22 102.81 162.194 102.761C162.168 102.712 162.224 102.615 162.326 102.562C162.429 102.509 162.536 102.509 162.561 102.562Z" fill="#263238"/>
    <path d="M163.168 103.265C163.104 103.265 163.044 103.181 163.023 103.057C163.002 102.933 163.044 102.827 163.104 102.818C163.164 102.81 163.228 102.902 163.245 103.026C163.262 103.15 163.228 103.256 163.168 103.265Z" fill="#263238"/>
    <path d="M164.147 103.252C164.133 103.308 164.133 103.368 164.147 103.424C164.172 103.513 164.228 103.575 164.322 103.517C164.416 103.46 164.39 103.376 164.322 103.314C164.253 103.252 164.185 103.27 164.168 103.243C164.151 103.217 164.219 103.119 164.382 103.163C164.429 103.177 164.472 103.203 164.507 103.238C164.542 103.274 164.568 103.318 164.582 103.367C164.6 103.45 164.586 103.537 164.542 103.609C164.498 103.681 164.428 103.733 164.347 103.752C164.302 103.763 164.254 103.763 164.208 103.753C164.162 103.742 164.119 103.72 164.082 103.69C164.046 103.655 164.019 103.612 164.004 103.564C163.988 103.517 163.984 103.465 163.993 103.416C164.014 103.243 164.138 103.203 164.147 103.252Z" fill="#263238"/>
    <path d="M165.309 103.716C165.351 103.765 165.287 103.889 165.168 103.995C165.048 104.101 164.92 104.149 164.881 104.101C164.843 104.052 164.903 103.928 165.022 103.822C165.142 103.716 165.27 103.667 165.309 103.716Z" fill="#263238"/>
    <path d="M166.078 104.189C166.121 104.234 166.052 104.371 165.894 104.446C165.736 104.521 165.587 104.481 165.582 104.415C165.578 104.348 165.681 104.291 165.8 104.234C165.92 104.176 166.031 104.141 166.078 104.189Z" fill="#263238"/>
    <path d="M166.659 105.052C166.599 105.074 166.522 105.003 166.488 104.897C166.454 104.791 166.488 104.689 166.531 104.671C166.574 104.654 166.668 104.72 166.702 104.826C166.736 104.932 166.715 105.034 166.659 105.052Z" fill="#263238"/>
    <path d="M167.317 104.645C167.291 104.645 167.343 104.512 167.505 104.521C167.563 104.524 167.618 104.547 167.663 104.586C167.707 104.625 167.737 104.679 167.749 104.737C167.762 104.796 167.755 104.858 167.73 104.912C167.705 104.966 167.663 105.011 167.612 105.038C167.557 105.077 167.49 105.093 167.423 105.084C167.357 105.075 167.297 105.042 167.253 104.99C167.224 104.948 167.206 104.898 167.202 104.847C167.198 104.795 167.209 104.744 167.232 104.698C167.313 104.547 167.449 104.578 167.437 104.609C167.406 104.652 167.387 104.702 167.381 104.755C167.381 104.835 167.415 104.888 167.496 104.839C167.578 104.791 167.548 104.729 167.471 104.68C167.394 104.631 167.343 104.667 167.317 104.645Z" fill="#263238"/>
    <path d="M167.932 104.026C167.881 104.061 167.791 104.026 167.732 103.933C167.672 103.84 167.667 103.743 167.732 103.707C167.796 103.672 167.873 103.707 167.932 103.8C167.992 103.893 167.984 103.99 167.932 104.026Z" fill="#263238"/>
    <path d="M168.236 103.517C168.193 103.561 168.103 103.544 168.035 103.473C167.966 103.402 167.945 103.309 167.988 103.265C168.031 103.221 168.125 103.239 168.193 103.309C168.261 103.38 168.278 103.473 168.236 103.517Z" fill="#263238"/>
    <path d="M168.569 102.544C168.539 102.544 168.603 102.425 168.736 102.474C168.775 102.488 168.809 102.514 168.834 102.549C168.859 102.584 168.874 102.625 168.877 102.668C168.871 102.737 168.84 102.8 168.79 102.845C168.739 102.889 168.674 102.912 168.608 102.907C168.569 102.905 168.531 102.893 168.498 102.873C168.465 102.853 168.436 102.826 168.415 102.792C168.397 102.758 168.387 102.719 168.387 102.679C168.387 102.64 168.397 102.601 168.415 102.566C168.467 102.451 168.561 102.447 168.569 102.474C168.573 102.518 168.573 102.562 168.569 102.606C168.569 102.619 168.572 102.631 168.577 102.643C168.583 102.654 168.59 102.664 168.599 102.673H168.684V102.624C168.684 102.624 168.603 102.566 168.569 102.544Z" fill="#263238"/>
    <path d="M169.253 103.265C169.221 103.251 169.196 103.226 169.182 103.194C169.168 103.162 169.166 103.126 169.176 103.093C169.177 103.076 169.182 103.059 169.19 103.044C169.198 103.03 169.208 103.016 169.221 103.006C169.234 102.995 169.248 102.987 169.264 102.982C169.28 102.977 169.296 102.976 169.312 102.978C169.343 102.991 169.368 103.015 169.383 103.046C169.397 103.077 169.399 103.113 169.389 103.146C169.384 103.179 169.368 103.21 169.342 103.232C169.317 103.254 169.285 103.266 169.253 103.265Z" fill="#263238"/>
    <path d="M169.564 103.645C169.541 103.621 169.524 103.591 169.515 103.557C169.506 103.524 169.505 103.489 169.513 103.455C169.513 103.42 169.524 103.386 169.544 103.357C169.564 103.329 169.592 103.307 169.624 103.296C169.684 103.296 169.757 103.371 169.735 103.495C169.714 103.619 169.611 103.685 169.564 103.645Z" fill="#263238"/>
    <path d="M169.996 104.158C169.973 104.185 169.943 104.204 169.91 104.214C169.876 104.223 169.841 104.222 169.808 104.211C169.774 104.211 169.74 104.199 169.712 104.178C169.685 104.156 169.664 104.126 169.654 104.092C169.654 104.03 169.731 103.959 169.851 103.981C169.97 104.004 170.026 104.088 169.996 104.158Z" fill="#263238"/>
    <path d="M170.346 104.592C170.325 104.57 170.381 104.481 170.513 104.503C170.554 104.512 170.592 104.532 170.624 104.559C170.656 104.587 170.681 104.622 170.697 104.662C170.715 104.73 170.707 104.802 170.674 104.863C170.642 104.925 170.587 104.97 170.522 104.99C170.478 105.002 170.431 105.003 170.387 104.991C170.343 104.98 170.302 104.956 170.27 104.923C170.245 104.886 170.231 104.842 170.231 104.797C170.231 104.752 170.245 104.708 170.27 104.671C170.338 104.539 170.458 104.574 170.445 104.605C170.424 104.641 170.413 104.682 170.415 104.724C170.415 104.782 170.415 104.782 170.44 104.782H170.483C170.526 104.782 170.513 104.755 170.517 104.742C170.513 104.716 170.499 104.692 170.479 104.676C170.415 104.618 170.364 104.618 170.346 104.592Z" fill="#263238"/>
    <path d="M170.894 105.467C170.861 105.458 170.834 105.436 170.816 105.407C170.799 105.377 170.793 105.342 170.8 105.308C170.799 105.291 170.802 105.274 170.808 105.258C170.814 105.242 170.823 105.228 170.834 105.216C170.846 105.204 170.86 105.194 170.875 105.188C170.891 105.182 170.907 105.179 170.923 105.18C170.939 105.183 170.955 105.189 170.968 105.199C170.982 105.208 170.994 105.22 171.003 105.234C171.012 105.248 171.018 105.264 171.021 105.28C171.025 105.297 171.025 105.314 171.022 105.33C171.021 105.365 171.007 105.399 170.983 105.424C170.96 105.45 170.928 105.465 170.894 105.467Z" fill="#263238"/>
    <path d="M171.722 105.012C171.722 105.074 171.603 105.105 171.483 105.074C171.363 105.043 171.278 104.972 171.291 104.91C171.304 104.848 171.415 104.822 171.534 104.848C171.654 104.875 171.735 104.972 171.722 105.012Z" fill="#263238"/>
    <path d="M172.034 104.857C172 104.853 171.968 104.835 171.945 104.808C171.923 104.781 171.91 104.747 171.91 104.711C171.91 104.623 171.945 104.543 172.009 104.539C172.073 104.534 172.124 104.6 172.133 104.689C172.141 104.777 172.098 104.852 172.034 104.857Z" fill="#263238"/>
    <path d="M172.615 104.379C172.556 104.379 172.504 104.309 172.504 104.22C172.504 104.132 172.556 104.061 172.615 104.061C172.675 104.061 172.727 104.132 172.727 104.22C172.727 104.309 172.68 104.379 172.615 104.379Z" fill="#263238"/>
    <path d="M173.064 103.729C173.064 103.707 173.141 103.619 173.282 103.707C173.323 103.734 173.356 103.772 173.377 103.818C173.397 103.863 173.404 103.914 173.397 103.964C173.386 104.031 173.35 104.09 173.298 104.131C173.246 104.172 173.181 104.191 173.115 104.185C173.057 104.19 172.998 104.173 172.95 104.138C172.903 104.103 172.868 104.051 172.854 103.992C172.84 103.933 172.846 103.871 172.872 103.816C172.898 103.762 172.942 103.718 172.996 103.694C173.141 103.619 173.231 103.721 173.205 103.743C173.179 103.765 173.128 103.743 173.085 103.827C173.074 103.839 173.066 103.854 173.061 103.87C173.056 103.886 173.054 103.903 173.055 103.92C173.073 103.939 173.098 103.952 173.124 103.955C173.167 103.955 173.188 103.955 173.196 103.924C173.201 103.893 173.201 103.862 173.196 103.831C173.196 103.8 173.077 103.756 173.064 103.729Z" fill="#263238"/>
    <path d="M174.222 103.358C174.175 103.407 174.094 103.393 174.013 103.385C173.931 103.376 173.846 103.349 173.82 103.292C173.795 103.234 173.889 103.128 174.047 103.155C174.205 103.181 174.265 103.318 174.222 103.358Z" fill="#263238"/>
    <path d="M174.807 103.04C174.778 103.097 174.658 103.093 174.53 103.071C174.402 103.048 174.29 103.009 174.282 102.942C174.273 102.876 174.406 102.81 174.568 102.841C174.731 102.872 174.837 102.987 174.807 103.04Z" fill="#263238"/>
    <path d="M175.141 102.761C175.081 102.761 175.038 102.677 175.043 102.589C175.047 102.5 175.107 102.434 175.171 102.443C175.235 102.452 175.273 102.522 175.265 102.611C175.265 102.647 175.253 102.682 175.23 102.71C175.207 102.738 175.176 102.756 175.141 102.761Z" fill="#263238"/>
    <path d="M175.645 101.943C175.624 101.943 175.688 101.824 175.841 101.854C175.889 101.867 175.932 101.894 175.964 101.932C175.997 101.97 176.018 102.017 176.025 102.067C176.033 102.131 176.021 102.197 175.989 102.253C175.957 102.309 175.908 102.352 175.85 102.376C175.788 102.396 175.722 102.393 175.663 102.367C175.603 102.341 175.555 102.294 175.525 102.235C175.5 102.187 175.493 102.132 175.504 102.08C175.515 102.027 175.544 101.98 175.585 101.947C175.722 101.846 175.82 101.947 175.799 101.947C175.777 101.947 175.726 101.987 175.696 102.049C175.666 102.111 175.696 102.102 175.696 102.115C175.705 102.126 175.715 102.134 175.727 102.139C175.739 102.144 175.752 102.147 175.765 102.146C175.777 102.138 175.788 102.127 175.796 102.114C175.804 102.101 175.809 102.086 175.812 102.071C175.813 102.057 175.81 102.042 175.804 102.029C175.798 102.016 175.789 102.004 175.777 101.996C175.73 101.961 175.662 101.969 175.645 101.943Z" fill="#263238"/>
    <path d="M176.375 101.921C176.343 101.906 176.317 101.88 176.302 101.846C176.287 101.813 176.284 101.775 176.294 101.74C176.294 101.721 176.298 101.702 176.305 101.685C176.312 101.668 176.323 101.652 176.336 101.639C176.349 101.626 176.365 101.617 176.382 101.61C176.399 101.604 176.417 101.601 176.435 101.602C176.495 101.602 176.529 101.695 176.512 101.784C176.495 101.872 176.435 101.934 176.375 101.921Z" fill="#263238"/>
    <path d="M176.995 101.381C176.963 101.372 176.935 101.35 176.918 101.321C176.9 101.291 176.894 101.256 176.901 101.222C176.899 101.207 176.899 101.191 176.903 101.176C176.907 101.161 176.913 101.146 176.923 101.134C176.932 101.122 176.943 101.111 176.957 101.104C176.97 101.096 176.984 101.091 176.999 101.09C177.015 101.087 177.03 101.088 177.045 101.092C177.06 101.095 177.074 101.102 177.086 101.112C177.099 101.121 177.109 101.133 177.117 101.147C177.125 101.16 177.13 101.176 177.132 101.191C177.136 101.21 177.136 101.23 177.132 101.249C177.13 101.285 177.114 101.319 177.089 101.343C177.063 101.368 177.03 101.382 176.995 101.381Z" fill="#263238"/>
    <path d="M177.867 100.86C177.832 100.913 177.726 100.904 177.615 100.86C177.503 100.815 177.405 100.793 177.397 100.727C177.388 100.661 177.512 100.599 177.666 100.634C177.82 100.669 177.901 100.807 177.867 100.86Z" fill="#263238"/>
    <path d="M178.286 100.55C178.23 100.577 178.145 100.493 178.179 100.378C178.213 100.263 178.324 100.241 178.358 100.294C178.373 100.315 178.383 100.34 178.388 100.366C178.393 100.391 178.393 100.418 178.388 100.444C178.379 100.468 178.366 100.49 178.348 100.509C178.33 100.527 178.309 100.541 178.286 100.55Z" fill="#263238"/>
    <path d="M178.79 100.042C178.758 100.032 178.73 100.011 178.713 99.981C178.695 99.9515 178.689 99.9162 178.696 99.8823C178.696 99.8651 178.699 99.8481 178.706 99.8322C178.712 99.8164 178.722 99.802 178.734 99.7901C178.746 99.7781 178.76 99.7687 178.775 99.7626C178.791 99.7564 178.807 99.7535 178.824 99.7541C178.856 99.7625 178.883 99.7832 178.901 99.8121C178.918 99.8409 178.924 99.8755 178.918 99.9089C178.916 99.9434 178.902 99.9759 178.878 100C178.855 100.025 178.823 100.039 178.79 100.042Z" fill="#263238"/>
    <path d="M172.628 76.5523L169.795 79.5017L176.658 86.4839C176.658 86.4839 178.055 82.2742 179.029 78.5687C179.717 75.9509 172.628 76.5523 172.628 76.5523Z" fill="#13A9FF"/>
    <path d="M171.522 79.767C171.462 79.767 171.398 79.6387 171.381 79.4707C171.363 79.3027 171.402 79.1568 171.462 79.1523C171.522 79.1479 171.586 79.2761 171.603 79.4486C171.62 79.6211 171.581 79.767 171.522 79.767Z" fill="#263238"/>
    <path d="M172.175 79.904C172.175 79.9659 172.068 80.019 171.936 80.019C171.803 80.019 171.701 79.9659 171.701 79.904C171.701 79.8421 171.808 79.7891 171.936 79.7891C172.064 79.7891 172.175 79.8377 172.175 79.904Z" fill="#263238"/>
    <path d="M172.355 80.8857C172.299 80.8503 172.304 80.7486 172.304 80.6381C172.304 80.5275 172.304 80.4303 172.355 80.3949C172.406 80.3595 172.526 80.4568 172.526 80.6381C172.526 80.8194 172.415 80.9255 172.355 80.8857Z" fill="#263238"/>
    <path d="M172.919 80.9831C172.893 80.9831 172.991 80.8416 173.175 80.9035C173.231 80.9219 173.281 80.9554 173.32 81.0005C173.359 81.0456 173.386 81.1006 173.397 81.16C173.406 81.2402 173.387 81.3209 173.344 81.3882C173.301 81.4555 173.236 81.505 173.162 81.5281C173.087 81.5512 173.007 81.5465 172.935 81.5148C172.863 81.4831 172.805 81.4264 172.769 81.3545C172.749 81.2954 172.747 81.2315 172.762 81.171C172.778 81.1104 172.81 81.0558 172.855 81.014C172.881 80.9867 172.914 80.9661 172.949 80.9538C172.985 80.9415 173.023 80.9379 173.06 80.9433C173.115 80.9433 173.132 80.9875 173.124 80.9963C173.062 81.0192 173.009 81.0628 172.974 81.1202C172.919 81.2174 172.949 81.3457 173.098 81.3059C173.248 81.2661 173.209 81.1246 173.098 81.0538C172.987 80.9831 172.936 81.0096 172.919 80.9831Z" fill="#263238"/>
    <path d="M173.658 82.1769C173.602 82.1769 173.581 82.0575 173.611 81.9558C173.641 81.8541 173.718 81.7878 173.778 81.8055C173.837 81.8232 173.859 81.9249 173.825 82.0266C173.79 82.1283 173.718 82.1946 173.658 82.1769Z" fill="#263238"/>
    <path d="M174.299 82.0487C174.359 82.0487 174.38 82.2344 174.346 82.4378C174.312 82.6412 174.235 82.8004 174.175 82.7872C174.115 82.7739 174.094 82.6014 174.128 82.398C174.162 82.1946 174.239 82.0399 174.299 82.0487Z" fill="#263238"/>
    <path d="M174.978 82.8624C174.978 82.9243 174.872 82.9906 174.722 83.0083C174.572 83.026 174.453 82.9862 174.444 82.9243C174.436 82.8624 174.551 82.796 174.701 82.7783C174.85 82.7607 174.978 82.7872 174.978 82.8624Z" fill="#263238"/>
    <path d="M175.256 83.1984C175.256 83.1719 175.346 83.1011 175.508 83.1719C175.558 83.1936 175.601 83.2268 175.636 83.269C175.671 83.3112 175.696 83.3612 175.709 83.4151C175.723 83.489 175.714 83.5657 175.682 83.6336C175.651 83.7014 175.599 83.7567 175.534 83.791C175.467 83.8319 175.388 83.8451 175.313 83.8278C175.238 83.8106 175.171 83.7642 175.128 83.6981C175.1 83.6425 175.091 83.5789 175.102 83.5173C175.112 83.4557 175.143 83.3995 175.188 83.3576C175.215 83.3279 175.25 83.307 175.289 83.2976C175.328 83.2882 175.368 83.2906 175.406 83.3046C175.457 83.3267 175.465 83.3576 175.457 83.3665C175.427 83.3702 175.399 83.3819 175.375 83.4006C175.351 83.4192 175.332 83.444 175.32 83.4726C175.273 83.5787 175.32 83.6495 175.444 83.5964C175.568 83.5433 175.525 83.4018 175.444 83.3222C175.363 83.2426 175.26 83.2338 175.256 83.1984Z" fill="#263238"/>
    <path d="M175.974 84.7593C175.914 84.7593 175.863 84.5913 175.863 84.3879C175.863 84.1845 175.914 84.0209 175.974 84.0209C176.034 84.0209 176.085 84.1845 176.085 84.3879C176.085 84.5913 176.038 84.7593 175.974 84.7593Z" fill="#263238"/>
    <path d="M174.94 73.5277C174.778 73.8725 174.571 74.1924 174.325 74.4784C173.897 75.0356 173.308 75.805 172.615 76.5877C171.923 77.3704 171.291 78.1088 170.825 78.6218C170.586 78.9123 170.322 79.1788 170.035 79.4177C170.229 79.0933 170.453 78.7896 170.706 78.5112C171.133 77.9762 171.765 77.2421 172.449 76.4373L174.201 74.3723C174.428 74.0732 174.675 73.791 174.94 73.5277Z" fill="#263238"/>
    <path d="M179.738 99.9886C179.738 100.051 179.61 100.073 179.482 100.042C179.354 100.011 179.264 99.9311 179.277 99.8692C179.29 99.8073 179.409 99.7852 179.533 99.8161C179.657 99.8471 179.751 99.9267 179.738 99.9886Z" fill="#263238"/>
    <path d="M180.063 99.449C180.063 99.4269 180.089 99.3561 180.212 99.3473C180.253 99.3477 180.292 99.3605 180.326 99.3842C180.359 99.4078 180.385 99.4411 180.401 99.4799C180.413 99.5042 180.42 99.5308 180.422 99.5582C180.425 99.5855 180.421 99.613 180.413 99.639C180.405 99.6651 180.391 99.6891 180.374 99.7096C180.356 99.7301 180.335 99.7468 180.311 99.7585H180.268C180.054 99.816 179.871 99.5993 179.965 99.4313C179.978 99.406 179.999 99.3856 180.024 99.373C180.05 99.3603 180.078 99.356 180.106 99.3606C180.112 99.3602 180.118 99.3614 180.124 99.3642C180.13 99.367 180.135 99.3712 180.139 99.3764C180.142 99.3817 180.145 99.3878 180.146 99.3943C180.147 99.4008 180.146 99.4074 180.144 99.4136C180.131 99.4236 180.12 99.437 180.114 99.4525C180.107 99.468 180.104 99.4851 180.106 99.5021C180.106 99.5021 180.17 99.5507 180.208 99.5374C180.21 99.5281 180.208 99.5185 180.203 99.5104C180.199 99.5023 180.191 99.4962 180.183 99.4932C180.136 99.4799 180.076 99.48 180.063 99.449Z" fill="#263238"/>
    <path d="M143.697 83.7732C143.453 82.9375 140.39 81.2218 140.851 80.7575C141.449 80.1473 143.97 82.6943 144.197 82.8933C144.423 83.0923 144.701 82.7518 144.487 82.5838C144.18 82.3405 140.992 79.7228 141.577 79.1214C141.902 78.7853 142.432 79.4619 142.432 79.4619C142.432 79.4619 145.243 82.146 145.513 81.8497C145.782 81.5534 144.18 79.9173 143.603 79.4088C143.026 78.9003 143.03 78.4095 143.449 78.3299C143.731 78.2724 145.534 79.7935 146.09 80.3153C146.645 80.8371 148.162 82.2875 147.961 80.93V80.868C147.73 79.5415 147.961 78.4316 148.26 78.1663C148.323 78.101 148.404 78.0578 148.492 78.0426C148.58 78.0274 148.67 78.0409 148.75 78.0813C148.83 78.1218 148.896 78.1871 148.938 78.2681C148.981 78.3491 148.998 78.4418 148.987 78.5333C148.999 78.5989 148.999 78.6666 148.987 78.7323V78.8295C148.974 79.2928 149.004 79.7563 149.076 80.2136C149.135 80.6246 149.261 81.0223 149.448 81.3898C149.666 81.832 149.875 82.1681 150.046 82.4644C152.093 83.6318 157.985 86.7138 163.886 87.1826C164.954 87.2666 170.359 80.0323 170.359 80.0323L175.662 85.4226C174.944 86.6917 174.692 86.9836 171.09 92.082C165.215 100.4 146.735 86.6254 146.735 86.6254L146.564 86.5369C145.16 85.8279 143.796 85.0366 142.479 84.1668C140.889 83.0127 140.983 82.8623 141.142 82.6855C141.5 82.2212 143.945 84.6311 143.697 83.7732Z" fill="#FFBE9D"/>
</svg>